<svg width="18" height="18" viewBox="0 0 18 18" fill="none" xmlns="http://www.w3.org/2000/svg">
<path fill-rule="evenodd" clip-rule="evenodd" d="M1 8.99993C1.00028 5.18354 3.69637 1.89881 7.43947 1.15452C11.1826 0.41023 14.9302 2.41368 16.3904 5.93965C17.8507 9.46562 16.6169 13.5321 13.4435 15.6522C10.2702 17.7723 6.04119 17.3555 3.34274 14.6568C1.84256 13.1564 0.999847 11.1216 1 8.99993Z" stroke="currentColor" stroke-width="2" stroke-linecap="round" stroke-linejoin="round"/>
<path d="M5.99973 7.99979C5.44744 7.99979 4.99973 8.44751 4.99973 8.99979C4.99973 9.55208 5.44744 9.99979 5.99973 9.99979V8.99979V7.99979ZM8.99957 9.99979C9.55186 9.99979 9.99957 9.55208 9.99957 8.99979C9.99957 8.44751 9.55186 7.99979 8.99957 7.99979V8.99979V9.99979ZM8.99956 7.99979C8.44728 7.99979 7.99956 8.44751 7.99956 8.99979C7.99956 9.55208 8.44728 9.99979 8.99956 9.99979V8.99979V7.99979ZM11.9994 9.99979C12.5517 9.99979 12.9994 9.55208 12.9994 8.99979C12.9994 8.44751 12.5517 7.99979 11.9994 7.99979V8.99979V9.99979ZM9.99958 8.99987C9.99958 8.44758 9.55186 7.99987 8.99958 7.99987C8.44729 7.99987 7.99958 8.44758 7.99958 8.99987H8.99958H9.99958ZM7.99958 11.9997C7.99958 12.552 8.44729 12.9997 8.99958 12.9997C9.55186 12.9997 9.99958 12.552 9.99958 11.9997H8.99958H7.99958ZM7.99958 8.99988C7.99958 9.55216 8.44729 9.99988 8.99958 9.99988C9.55186 9.99988 9.99958 9.55216 9.99958 8.99988H8.99958H7.99958ZM9.99958 6.00003C9.99958 5.44775 9.55186 5.00003 8.99958 5.00003C8.44729 5.00003 7.99958 5.44775 7.99958 6.00003H8.99958H9.99958ZM5.99973 8.99979V9.99979H8.99957V8.99979V7.99979H5.99973V8.99979ZM8.99956 8.99979V9.99979H11.9994V8.99979V7.99979H8.99956V8.99979ZM8.99958 8.99987H7.99958V11.9997H8.99958H9.99958V8.99987H8.99958ZM8.99958 8.99988H9.99958V6.00003H8.99958H7.99958V8.99988H8.99958Z" fill="currentColor"/>
</svg>
