<svg width="16" height="16" viewBox="0 0 16 16" fill="none" xmlns="http://www.w3.org/2000/svg">
<path d="M0.293028 14.2928C-0.0975708 14.6832 -0.0976914 15.3164 0.292759 15.707C0.683208 16.0976 1.31637 16.0977 1.70697 15.7072L1 15L0.293028 14.2928ZM8.70697 8.70991C9.09757 8.31946 9.09769 7.6863 8.70724 7.2957C8.31679 6.9051 7.68363 6.90498 7.29303 7.29543L8 8.00267L8.70697 8.70991ZM7.29262 7.29583C6.90225 7.6865 6.90249 8.31967 7.29316 8.71004C7.68384 9.10042 8.317 9.10018 8.70738 8.7095L8 8.00267L7.29262 7.29583ZM15.7047 1.70684C16.0951 1.31616 16.0948 0.682999 15.7042 0.292624C15.3135 -0.0977516 14.6803 -0.0975105 14.29 0.293163L14.9973 1L15.7047 1.70684ZM8.70697 7.29543C8.31637 6.90498 7.68321 6.9051 7.29276 7.2957C6.90231 7.6863 6.90243 8.31946 7.29303 8.70991L8 8.00267L8.70697 7.29543ZM14.293 15.7072C14.6836 16.0977 15.3168 16.0976 15.7072 15.707C16.0977 15.3164 16.0976 14.6832 15.707 14.2928L15 15L14.293 15.7072ZM7.29276 8.70964C7.68321 9.10024 8.31637 9.10036 8.70697 8.70991C9.09757 8.31946 9.09769 7.68629 8.70724 7.29569L8 8.00267L7.29276 8.70964ZM1.70724 0.293028C1.31679 -0.0975708 0.683626 -0.0976913 0.293028 0.292759C-0.0975708 0.683209 -0.0976913 1.31637 0.292759 1.70697L1 1L1.70724 0.293028ZM1 15L1.70697 15.7072L8.70697 8.70991L8 8.00267L7.29303 7.29543L0.293028 14.2928L1 15ZM8 8.00267L8.70738 8.7095L15.7047 1.70684L14.9973 1L14.29 0.293163L7.29262 7.29583L8 8.00267ZM8 8.00267L7.29303 8.70991L14.293 15.7072L15 15L15.707 14.2928L8.70697 7.29543L8 8.00267ZM8 8.00267L8.70724 7.29569L1.70724 0.293028L1 1L0.292759 1.70697L7.29276 8.70964L8 8.00267Z" fill="currentColor"/>
</svg>
