<svg width="32" height="32" viewBox="0 0 32 32" fill="none" xmlns="http://www.w3.org/2000/svg">
<path d="M1.77783 3.55554H2.76334C4.42226 3.55554 5.81505 4.75099 5.99496 6.32926L7.31309 17.8929C7.49299 19.4712 8.88579 20.6667 10.5447 20.6667H24.6082C26.0942 20.6667 27.391 19.7023 27.7582 18.3243L30.1024 6.62538C30.1644 6.31594 29.9277 6.02715 29.6121 6.02715H5.94489M7.6695 26.3054H8.88855M7.6695 27.4721H8.88855M25.5489 26.3054H26.7679M25.5489 27.4721H26.7679M9.90482 26.8889C9.90482 27.748 9.1771 28.4444 8.27942 28.4444C7.38174 28.4444 6.65402 27.748 6.65402 26.8889C6.65402 26.0298 7.38174 25.3333 8.27942 25.3333C9.1771 25.3333 9.90482 26.0298 9.90482 26.8889ZM27.7842 26.8889C27.7842 27.748 27.0565 28.4444 26.1588 28.4444C25.2611 28.4444 24.5334 27.748 24.5334 26.8889C24.5334 26.0298 25.2611 25.3333 26.1588 25.3333C27.0565 25.3333 27.7842 26.0298 27.7842 26.8889Z" stroke="currentColor" stroke-width="2" stroke-linecap="round"/>
</svg>
