<svg width="18" height="18" viewBox="0 0 18 18" fill="none" xmlns="http://www.w3.org/2000/svg">
<path d="M1 2H1.55435C2.48749 2 3.27094 2.67244 3.37213 3.56022L4.11358 10.0648C4.21478 10.9526 4.99823 11.625 5.93137 11.625H13.8421C14.6779 11.625 15.4074 11.0826 15.6139 10.3074L16.8801 3.98852C16.9421 3.67907 16.7055 3.39028 16.3899 3.39028H3.34397M4.31406 14.7968H4.99978M4.31406 15.4531H4.99978M14.3712 14.7968H15.0569M14.3712 15.4531H15.0569M5.57143 15.125C5.57143 15.6082 5.16209 16 4.65714 16C4.1522 16 3.74286 15.6082 3.74286 15.125C3.74286 14.6418 4.1522 14.25 4.65714 14.25C5.16209 14.25 5.57143 14.6418 5.57143 15.125ZM15.6286 15.125C15.6286 15.6082 15.2192 16 14.7143 16C14.2093 16 13.8 15.6082 13.8 15.125C13.8 14.6418 14.2093 14.25 14.7143 14.25C15.2192 14.25 15.6286 14.6418 15.6286 15.125Z" stroke="currentColor" stroke-width="2" stroke-linecap="round"/>
</svg>
