<svg width="26" height="26" viewBox="0 0 26 26" fill="none" xmlns="http://www.w3.org/2000/svg">
<path d="M0.293028 24.2928C-0.0975707 24.6832 -0.0976914 25.3164 0.292758 25.707C0.683208 26.0976 1.31637 26.0977 1.70697 25.7072L1 25L0.293028 24.2928ZM13.707 13.7118C14.0976 13.3214 14.0977 12.6882 13.7072 12.2976C13.3168 11.907 12.6836 11.9069 12.293 12.2973L13 13.0046L13.707 13.7118ZM12.2926 12.2977C11.9022 12.6884 11.9025 13.3216 12.2932 13.7119C12.6838 14.1023 13.317 14.1021 13.7074 13.7114L13 13.0046L12.2926 12.2977ZM25.7028 1.70684C26.0932 1.31616 26.0929 0.683 25.7023 0.292624C25.3116 -0.0977515 24.6784 -0.0975105 24.2881 0.293162L24.9954 1L25.7028 1.70684ZM13.707 12.2973C13.3164 11.9069 12.6832 11.907 12.2928 12.2976C11.9023 12.6882 11.9024 13.3214 12.293 13.7118L13 13.0046L13.707 12.2973ZM24.293 25.7072C24.6836 26.0977 25.3168 26.0976 25.7072 25.707C26.0977 25.3164 26.0976 24.6832 25.707 24.2928L25 25L24.293 25.7072ZM12.2928 13.7115C12.6832 14.1021 13.3164 14.1023 13.707 13.7118C14.0976 13.3214 14.0977 12.6882 13.7072 12.2976L13 13.0046L12.2928 13.7115ZM1.70724 0.293028C1.31679 -0.0975708 0.683626 -0.0976913 0.293028 0.292759C-0.0975708 0.683209 -0.0976913 1.31637 0.292759 1.70697L1 1L1.70724 0.293028ZM1 25L1.70697 25.7072L13.707 13.7118L13 13.0046L12.293 12.2973L0.293028 24.2928L1 25ZM13 13.0046L13.7074 13.7114L25.7028 1.70684L24.9954 1L24.2881 0.293162L12.2926 12.2977L13 13.0046ZM13 13.0046L12.293 13.7118L24.293 25.7072L25 25L25.707 24.2928L13.707 12.2973L13 13.0046ZM13 13.0046L13.7072 12.2976L1.70724 0.293028L1 1L0.292759 1.70697L12.2928 13.7115L13 13.0046Z" fill="currentColor"/>
</svg>
