<svg width="24" height="24" viewBox="0 0 24 24" fill="none" xmlns="http://www.w3.org/2000/svg">
<path fill-rule="evenodd" clip-rule="evenodd" d="M3.5 10.4V15.7329C3.50514 16.87 3.95584 17.9585 4.7529 18.7588C5.54997 19.559 6.62809 20.0055 7.75 19.9999H16.25C17.3719 20.0055 18.45 19.559 19.2471 18.7588C20.0442 17.9585 20.4949 16.87 20.5 15.7329V10.4C20.4949 9.26285 20.0442 8.17438 19.2471 7.37411C18.45 6.57384 17.3719 6.12736 16.25 6.13292C15.6608 6.05371 15.1573 5.66338 14.9276 5.1077C14.5511 4.42197 13.8368 3.99772 13.0625 4.00001H10.9375C10.1632 3.99772 9.44888 4.42197 9.07236 5.1077C8.84269 5.66338 8.33924 6.05371 7.75 6.13292C6.62809 6.12736 5.54997 6.57384 4.7529 7.37411C3.95584 8.17438 3.50514 9.26285 3.5 10.4Z" stroke="currentColor" stroke-width="1.5" stroke-linecap="round" stroke-linejoin="round"/>
<path fill-rule="evenodd" clip-rule="evenodd" d="M12 15.7329C10.55 15.7186 9.38463 14.5181 9.3942 13.0483C9.40377 11.5786 10.5847 10.3937 12.0347 10.3989C13.4848 10.404 14.6575 11.5973 14.6569 13.067C14.6533 13.7777 14.3714 14.4577 13.8732 14.9577C13.3749 15.4576 12.7011 15.7365 12 15.7329Z" stroke="currentColor" stroke-width="1.5" stroke-linecap="round" stroke-linejoin="round"/>
</svg>
