<svg width="16" height="16" viewBox="0 0 16 16" fill="none" xmlns="http://www.w3.org/2000/svg">
<path d="M12.9495 2.05891C14.2346 3.34932 14.9696 5.09106 14.9991 6.91585C15.0285 8.74063 14.3502 10.5054 13.1074 11.837L12.9495 12.001L9.64948 15.3142C9.23076 15.7345 8.66863 15.9791 8.07698 15.9987C7.48532 16.0183 6.90837 15.8113 6.46301 15.4197L6.35102 15.3142L3.05021 12.0002C1.73748 10.6819 1 8.89391 1 7.02956C1 5.1652 1.73748 3.37721 3.05021 2.05891C4.36294 0.740612 6.14338 0 7.99986 0C9.85634 0 11.6368 0.740612 12.9495 2.05891ZM7.99986 4.68638C7.69345 4.68638 7.39004 4.74699 7.10696 4.86475C6.82387 4.9825 6.56665 5.1551 6.34999 5.37268C6.13332 5.59027 5.96146 5.84858 5.8442 6.13286C5.72694 6.41715 5.66659 6.72185 5.66659 7.02956C5.66659 7.33727 5.72694 7.64196 5.8442 7.92625C5.96146 8.21054 6.13332 8.46884 6.34999 8.68643C6.56665 8.90401 6.82387 9.07661 7.10696 9.19436C7.39004 9.31212 7.69345 9.37273 7.99986 9.37273C8.61868 9.37273 9.21216 9.12586 9.64973 8.68643C10.0873 8.247 10.3331 7.651 10.3331 7.02956C10.3331 6.40811 10.0873 5.81211 9.64973 5.37268C9.21216 4.93325 8.61868 4.68638 7.99986 4.68638Z" fill="currentColor"/>
</svg>
