<svg width="26" height="18" viewBox="0 0 26 18" fill="none" xmlns="http://www.w3.org/2000/svg">
<path d="M1 8C0.447715 8 0 8.44772 0 9C0 9.55229 0.447715 10 1 10V9V8ZM25 10C25.5523 10 26 9.55229 26 9C26 8.44772 25.5523 8 25 8V9V10ZM1 16C0.447715 16 0 16.4477 0 17C0 17.5523 0.447715 18 1 18V17V16ZM25 18C25.5523 18 26 17.5523 26 17C26 16.4477 25.5523 16 25 16V17V18ZM1 0C0.447715 0 0 0.447715 0 1C0 1.55228 0.447715 2 1 2V1V0ZM25 2C25.5523 2 26 1.55228 26 1C26 0.447715 25.5523 0 25 0V1V2ZM1 9V10H25V9V8H1V9ZM1 17V18H25V17V16H1V17ZM1 1V2H25V1V0H1V1Z" fill="currentColor"/>
</svg>
