<svg width="16" height="16" viewBox="0 0 16 16" fill="none" xmlns="http://www.w3.org/2000/svg">
<path fill-rule="evenodd" clip-rule="evenodd" d="M0.987937 1.55569C1.99483 0.496823 2.35068 0.199838 2.77976 0.0616264C3.0767 -0.0160497 3.38812 -0.0203622 3.68711 0.0490617C4.08071 0.163287 4.18483 0.250097 5.47549 1.53398C6.6094 2.66138 6.72267 2.7836 6.83137 3.00406C7.03922 3.39102 7.07169 3.84816 6.92062 4.26053C6.8062 4.57465 6.64372 4.78254 5.95606 5.47131L5.50753 5.92022C5.38974 6.03972 5.36206 6.22118 5.43888 6.37026C6.4354 8.06748 7.84922 9.48282 9.54656 10.4824C9.74193 10.5868 9.98253 10.5531 10.1415 10.399L10.5729 9.9752C10.8395 9.70238 11.1219 9.44531 11.4185 9.20532C11.8843 8.91977 12.4648 8.8943 12.954 9.13793C13.1931 9.25216 13.2721 9.32298 14.4415 10.4881C15.6474 11.6886 15.6818 11.7263 15.8145 12.0015C16.0643 12.4572 16.0617 13.0091 15.8076 13.4625C15.6783 13.7183 15.5994 13.8109 14.9209 14.5031C14.5112 14.9211 14.1257 15.3026 14.0639 15.3586C13.5041 15.8213 12.786 16.0482 12.0615 15.9914C10.736 15.8708 9.45303 15.4618 8.30281 14.7932C5.75483 13.4456 3.58573 11.482 1.99369 9.08196C1.64693 8.57968 1.33865 8.05198 1.07146 7.50338C0.354717 6.27702 -0.0154139 4.87956 0.000491864 3.45982C0.0552111 2.71708 0.412009 2.02905 0.987937 1.55569Z" fill="currentColor"/>
</svg>
