<svg width="18" height="18" viewBox="0 0 18 18" fill="none" xmlns="http://www.w3.org/2000/svg">
<path fill-rule="evenodd" clip-rule="evenodd" d="M1.98794 2.55569C2.99483 1.49682 3.35068 1.19984 3.77976 1.06163C4.0767 0.98395 4.38812 0.979638 4.68711 1.04906C5.08071 1.16329 5.18483 1.2501 6.47549 2.53398C7.6094 3.66138 7.72267 3.7836 7.83137 4.00406C8.03922 4.39102 8.07169 4.84816 7.92062 5.26053C7.8062 5.57465 7.64372 5.78254 6.95606 6.47131L6.50753 6.92022C6.38974 7.03972 6.36206 7.22118 6.43888 7.37026C7.4354 9.06748 8.84922 10.4828 10.5466 11.4824C10.7419 11.5868 10.9825 11.5531 11.1415 11.399L11.5729 10.9752C11.8395 10.7024 12.1219 10.4453 12.4185 10.2053C12.8843 9.91977 13.4648 9.8943 13.954 10.1379C14.1931 10.2522 14.2721 10.323 15.4415 11.4881C16.6474 12.6886 16.6818 12.7263 16.8145 13.0015C17.0643 13.4572 17.0617 14.0091 16.8076 14.4625C16.6783 14.7183 16.5994 14.8109 15.9209 15.5031C15.5112 15.9211 15.1257 16.3026 15.0639 16.3586C14.5041 16.8213 13.786 17.0482 13.0615 16.9914C11.736 16.8708 10.453 16.4618 9.30281 15.7932C6.75483 14.4456 4.58573 12.482 2.99369 10.082C2.64693 9.57968 2.33865 9.05198 2.07146 8.50337C1.35472 7.27702 0.984586 5.87956 1.00049 4.45982C1.05521 3.71708 1.41201 3.02905 1.98794 2.55569Z" stroke="currentColor" stroke-width="2" stroke-linecap="round" stroke-linejoin="round"/>
</svg>
