<svg width="16" height="16" viewBox="0 0 16 16" fill="none" xmlns="http://www.w3.org/2000/svg">
<path fill-rule="evenodd" clip-rule="evenodd" d="M5.6 1.53743C5.6 1.12968 5.76857 0.738625 6.06863 0.450302C6.36869 0.161978 6.77565 0 7.2 0H8.8C9.22435 0 9.63131 0.161978 9.93137 0.450302C10.2314 0.738625 10.4 1.12968 10.4 1.53743V3.07485C10.4 3.4826 10.2314 3.87366 9.93137 4.16198C9.63131 4.4503 9.22435 4.61228 8.8 4.61228V6.14971H12C12.6365 6.14971 13.247 6.39268 13.6971 6.82516C14.1471 7.25765 14.4 7.84422 14.4 8.45585V9.22456C14.8243 9.22456 15.2313 9.38654 15.5314 9.67486C15.8314 9.96319 16 10.3542 16 10.762V12.2994C16 12.7072 15.8314 13.0982 15.5314 13.3865C15.2313 13.6749 14.8243 13.8368 14.4 13.8368H12.8C12.3757 13.8368 11.9687 13.6749 11.6686 13.3865C11.3686 13.0982 11.2 12.7072 11.2 12.2994V10.762C11.2 10.3542 11.3686 9.96319 11.6686 9.67486C11.9687 9.38654 12.3757 9.22456 12.8 9.22456V8.45585C12.8 8.25197 12.7157 8.05645 12.5657 7.91229C12.4157 7.76812 12.2122 7.68714 12 7.68714H8.8V9.22456C9.22435 9.22456 9.63131 9.38654 9.93137 9.67486C10.2314 9.96319 10.4 10.3542 10.4 10.762V12.2994C10.4 12.7072 10.2314 13.0982 9.93137 13.3865C9.63131 13.6749 9.22435 13.8368 8.8 13.8368H7.2C6.77565 13.8368 6.36869 13.6749 6.06863 13.3865C5.76857 13.0982 5.6 12.7072 5.6 12.2994V10.762C5.6 10.3542 5.76857 9.96319 6.06863 9.67486C6.36869 9.38654 6.77565 9.22456 7.2 9.22456V7.68714H4C3.78783 7.68714 3.58434 7.76812 3.43431 7.91229C3.28429 8.05645 3.2 8.25197 3.2 8.45585V9.22456C3.62435 9.22456 4.03131 9.38654 4.33137 9.67486C4.63143 9.96319 4.8 10.3542 4.8 10.762V12.2994C4.8 12.7072 4.63143 13.0982 4.33137 13.3865C4.03131 13.6749 3.62435 13.8368 3.2 13.8368H1.6C1.17565 13.8368 0.768687 13.6749 0.468629 13.3865C0.168571 13.0982 0 12.7072 0 12.2994V10.762C0 10.3542 0.168571 9.96319 0.468629 9.67486C0.768687 9.38654 1.17565 9.22456 1.6 9.22456V8.45585C1.6 7.84422 1.85286 7.25765 2.30294 6.82516C2.75303 6.39268 3.36348 6.14971 4 6.14971H7.2V4.61228C6.77565 4.61228 6.36869 4.4503 6.06863 4.16198C5.76857 3.87366 5.6 3.4826 5.6 3.07485V1.53743Z" fill="currentColor"/>
</svg>
