<svg width="24" height="24" viewBox="0 0 24 24" fill="none" xmlns="http://www.w3.org/2000/svg">
<path d="M21 16.225C21 16.624 20.7783 16.9705 20.4406 17.149L12.1017 21.811C11.9328 21.937 11.7217 22 11.5 22C11.2783 22 11.0672 21.937 10.8983 21.811L2.55945 17.149C2.39015 17.0606 2.24846 16.9278 2.14982 16.7648C2.05118 16.6019 1.99936 16.4152 2.00001 16.225V6.775C2.00001 6.376 2.22167 6.0295 2.55945 5.851L10.8983 1.189C11.0672 1.063 11.2783 1 11.5 1C11.7217 1 11.9328 1.063 12.1017 1.189L20.4406 5.851C20.7783 6.0295 21 6.376 21 6.775V16.225ZM4.11112 8.35V14.65H5.43056V12.55H6.22223C6.78213 12.55 7.3191 12.3287 7.71501 11.9349C8.11092 11.5411 8.33334 11.007 8.33334 10.45C8.33334 9.89304 8.11092 9.3589 7.71501 8.96508C7.3191 8.57125 6.78213 8.35 6.22223 8.35H4.11112ZM5.43056 11.5V9.4H5.95834C6.23829 9.4 6.50677 9.51062 6.70473 9.70754C6.90268 9.90445 7.01389 10.1715 7.01389 10.45C7.01389 10.7285 6.90268 10.9955 6.70473 11.1925C6.50677 11.3894 6.23829 11.5 5.95834 11.5H5.43056ZM9.125 8.35V14.65H10.4444V12.55H11.2361L11.9328 14.65H13.3261L12.4922 12.1405C13.0094 11.7625 13.3472 11.143 13.3472 10.45C13.3472 9.89304 13.1248 9.3589 12.7289 8.96508C12.333 8.57125 11.796 8.35 11.2361 8.35H9.125ZM10.4444 11.5V9.4H10.9722C11.2522 9.4 11.5207 9.51062 11.7186 9.70754C11.9166 9.90445 12.0278 10.1715 12.0278 10.45C12.0278 10.7285 11.9166 10.9955 11.7186 11.1925C11.5207 11.3894 11.2522 11.5 10.9722 11.5H10.4444ZM16.7778 8.35C15.3211 8.35 14.1389 9.757 14.1389 11.5C14.1389 13.243 15.3211 14.65 16.7778 14.65C18.2344 14.65 19.4167 13.243 19.4167 11.5C19.4167 9.757 18.2344 8.35 16.7778 8.35ZM16.7778 9.6625C17.58 9.6625 18.2344 10.4815 18.2344 11.5C18.2344 12.5185 17.58 13.3375 16.7778 13.3375C15.9756 13.3375 15.3317 12.5185 15.3317 11.5C15.3317 10.4815 15.9756 9.6625 16.7778 9.6625Z" fill="currentColor"/>
</svg>
