<svg width="24" height="24" viewBox="0 0 24 24" fill="none" xmlns="http://www.w3.org/2000/svg">
<path d="M12.1546 12.4977L14.2132 11.254L16.2719 12.4977L15.7289 10.1459L17.5387 8.58556L15.1634 8.38204L14.2132 6.1659L13.2631 8.38204L10.8877 8.58556L12.6975 10.1459L12.1546 12.4977ZM6.2501 20.9778C5.75241 21.0532 5.30388 20.9365 4.90452 20.6278C4.50515 20.319 4.27501 19.9156 4.21408 19.4175L3.01508 9.53533C2.95475 9.03783 3.07541 8.5931 3.37704 8.20113C3.67868 7.80916 4.07834 7.58302 4.57604 7.52272L5.61667 7.38704V14.7591C5.61667 15.7541 5.97109 16.6059 6.67993 17.3144C7.38877 18.023 8.24089 18.3772 9.23628 18.3772H17.6519C17.5614 18.7391 17.3804 19.052 17.1089 19.3162C16.8375 19.5803 16.5057 19.7347 16.1135 19.7793L6.2501 20.9778ZM9.23628 16.5682C8.73858 16.5682 8.31268 16.3912 7.95856 16.0372C7.60444 15.6832 7.42708 15.2572 7.42648 14.7591V4.80909C7.42648 4.31159 7.60384 3.88585 7.95856 3.53187C8.31328 3.17789 8.73919 3.0006 9.23628 3H19.1902C19.6879 3 20.1141 3.17729 20.4688 3.53187C20.8235 3.88645 21.0006 4.31219 21 4.80909V14.7591C21 15.2566 20.8229 15.6826 20.4688 16.0372C20.1147 16.3918 19.6885 16.5688 19.1902 16.5682H9.23628Z" fill="currentColor"/>
</svg>
