<svg width="32" height="32" viewBox="0 0 32 32" fill="none" xmlns="http://www.w3.org/2000/svg">
<path d="M27.9255 16.7867C27.2954 13.2001 24.9255 12.5601 23.8159 12.4667C23.4183 11.9429 22.9003 11.517 22.3032 11.2229C21.7062 10.9289 21.0467 10.7749 20.3776 10.7734C20.0698 10.7742 19.7628 10.8009 19.4598 10.8534C19.0566 10.3676 18.5445 9.97811 17.9628 9.71465C17.381 9.45119 16.7451 9.32078 16.1036 9.3334C15.2414 9.33697 14.3954 9.56236 13.6516 9.98673L11.2132 2.5334C11.0029 1.80108 10.551 1.15639 9.92725 0.698615C9.30347 0.240842 8.54235 -0.00461062 7.76115 6.55982e-05C7.16259 0.00161632 6.5726 0.138528 6.03771 0.399998C5.50281 0.661468 5.03767 1.04034 4.67896 1.50673C4.34129 1.95848 4.12126 2.48322 4.03775 3.03593C3.95425 3.58864 4.00975 4.15282 4.19951 4.68007L7.2817 14.1334C6.8384 14.3786 6.44773 14.7045 6.13101 15.0934C5.45717 15.9769 5.06639 17.0345 5.00773 18.1334C4.92622 20.3207 5.58034 22.4742 6.87074 24.2667C7.58724 25.3741 8.40814 26.4142 9.32279 27.3734L10.7885 30.6667C10.9583 31.0611 11.2438 31.3979 11.6093 31.6351C11.9748 31.8722 12.4041 31.9992 12.8433 32.0001H22.5009C23.0306 32.0073 23.5456 31.8298 23.9526 31.4996C24.3596 31.1695 24.6318 30.7085 24.7201 30.2001L25.131 26.9067V26.7601C27.2954 21.9601 28.1858 18.7601 27.8707 16.8534L27.9255 16.7867ZM23.6516 26.3601C23.6408 26.4084 23.6408 26.4584 23.6516 26.5067L23.2269 29.9334C23.1977 30.0923 23.1113 30.2358 22.9833 30.3384C22.8554 30.441 22.6941 30.4959 22.5283 30.4934H12.9392C12.8032 30.4965 12.6694 30.4601 12.5547 30.3889C12.44 30.3176 12.3498 30.2148 12.2954 30.0934L10.679 26.6667C10.6495 26.5908 10.6027 26.5224 10.542 26.4667C9.92553 25.8267 6.2132 21.8934 6.54197 18.2934C6.74745 16.1601 7.80224 15.4801 8.52827 15.2534C8.61649 15.2277 8.69847 15.185 8.76932 15.1277C8.84018 15.0705 8.89844 14.9999 8.94064 14.9203C8.98284 14.8406 9.00811 14.7535 9.01492 14.6641C9.02174 14.5747 9.00998 14.4849 8.98033 14.4001L5.66526 4.24007C5.56399 3.92603 5.54176 3.59291 5.60045 3.26876C5.65914 2.94462 5.79703 2.63895 6.00249 2.37754C6.20796 2.11612 6.47498 1.90661 6.78104 1.76666C7.08711 1.62671 7.42325 1.56043 7.76115 1.5734C8.21103 1.56825 8.64972 1.70988 9.00724 1.97571C9.36477 2.24154 9.62054 2.61625 9.73375 3.04007L12.5694 11.6667C12.6135 11.8063 12.7026 11.9283 12.8235 12.0147C12.9443 12.1012 13.0906 12.1475 13.2406 12.1467C13.3473 12.1489 13.453 12.1258 13.5484 12.0793C13.6439 12.0328 13.7263 11.9645 13.7885 11.8801C13.9158 11.725 14.058 11.5821 14.2132 11.4534C14.769 11.0801 15.4283 10.8801 16.1036 10.8801C16.5794 10.8852 17.0456 11.0108 17.4564 11.2446C17.8671 11.4784 18.2082 11.8123 18.4461 12.2134C18.5107 12.3118 18.5999 12.3928 18.7052 12.4487C18.8106 12.5047 18.9288 12.5338 19.0488 12.5334C19.1121 12.5463 19.1774 12.5463 19.2406 12.5334C19.606 12.4035 19.9892 12.3271 20.3776 12.3067C20.8673 12.2977 21.3505 12.4167 21.7769 12.6512C22.2034 12.8857 22.5574 13.2272 22.8022 13.6401C22.8669 13.7385 22.956 13.8195 23.0614 13.8754C23.1668 13.9314 23.285 13.9605 23.405 13.9601H23.5009C24.3228 13.9601 25.994 14.3067 26.4598 17.0401C26.9255 19.7734 24.0488 25.6134 23.7201 26.3734L23.6516 26.3601Z" fill="currentColor"/>
<path d="M26.6791 4.40011C26.788 4.40384 26.8966 4.38569 26.9981 4.34681C27.0995 4.30792 27.1917 4.24913 27.2688 4.17409C27.3459 4.09904 27.4063 4.00936 27.4462 3.91061C27.4862 3.81187 27.5048 3.70617 27.501 3.60011C27.4852 3.39305 27.3935 3.19839 27.2427 3.05157C27.0918 2.90474 26.8918 2.81551 26.6791 2.80011H19.2818L20.7887 1.33345C20.9207 1.18548 20.9934 0.996094 20.9934 0.800114C20.9934 0.604134 20.9207 0.414744 20.7887 0.266781C20.6366 0.138269 20.4421 0.0675049 20.2407 0.0675049C20.0394 0.0675049 19.8448 0.138269 19.6928 0.266781L16.8161 3.20011C16.684 3.34808 16.6113 3.53747 16.6113 3.73345C16.6113 3.92943 16.684 4.11882 16.8161 4.26678L19.6928 7.06678C19.758 7.14811 19.841 7.21424 19.9358 7.26038C20.0306 7.30651 20.1348 7.33147 20.2407 7.33345C20.4467 7.30006 20.6376 7.20715 20.7887 7.06678C20.9207 6.91882 20.9934 6.72943 20.9934 6.53345C20.9934 6.33747 20.9207 6.14808 20.7887 6.00011L19.1448 4.40011H26.6791Z" fill="currentColor"/>
</svg>
