<svg width="17" height="17" viewBox="0 0 17 17" fill="none" xmlns="http://www.w3.org/2000/svg">
<path fill-rule="evenodd" clip-rule="evenodd" d="M10.6131 4.51714L8.5 0.5L6.38686 4.51714C6.23757 4.8107 6.0215 5.06514 5.756 5.26C5.48921 5.45586 5.18049 5.58694 4.85429 5.64286L0.5 6.49657L3.54 10.132C3.95574 10.5876 4.15191 11.202 4.07714 11.8143L3.49886 16.5L7.508 14.5571C7.81728 14.4074 8.15636 14.3292 8.5 14.3286C8.82242 14.3296 9.13989 14.4079 9.42571 14.5571L13.5286 16.38L12.9503 11.7503C12.8772 11.1394 13.0737 10.5269 13.4886 10.0726L16.5 6.49657L12.1457 5.64286C11.8191 5.58711 11.51 5.45602 11.2429 5.26C10.9778 5.065 10.7621 4.81058 10.6131 4.51714Z" fill="currentColor" stroke="currentColor" stroke-linecap="round" stroke-linejoin="round"/>
</svg>
