<svg width="24" height="24" viewBox="0 0 24 24" fill="none" xmlns="http://www.w3.org/2000/svg">
<path d="M9.05463 20.8L8.49175 21.7699H8.4907C8.33968 22.0322 8.06194 22.1962 7.75885 22.1993C7.61311 22.1962 7.46949 22.157 7.34169 22.0862C6.95201 21.8556 6.81261 21.3574 7.02698 20.9576L7.58985 19.9877C7.82324 19.5826 8.33965 19.444 8.74413 19.6778C9.1486 19.9116 9.288 20.4288 9.0546 20.8339L9.05463 20.8ZM3.85033 16.5132L2.97168 17.1108C2.61578 17.3731 2.52708 17.8681 2.76891 18.2394C2.92204 18.4689 3.18077 18.6043 3.45537 18.6C3.63067 18.6032 3.80069 18.5482 3.94011 18.4424L4.86418 17.7994C5.21902 17.536 5.30772 17.041 5.06694 16.6708C4.92965 16.4825 4.72268 16.3598 4.49244 16.3302C4.26222 16.2995 4.02987 16.3662 3.85033 16.5132ZM7.58985 3.88859C7.82325 4.29369 8.33965 4.43224 8.74413 4.19849C9.1486 3.96474 9.288 3.44754 9.0546 3.04244L8.49173 2.0609H8.49067C8.25728 1.6558 7.74087 1.51619 7.3364 1.74995C6.93192 1.9837 6.79358 2.50196 7.02698 2.90705L7.58985 3.88859ZM3.85033 7.37475C3.99712 7.45936 4.16504 7.4985 4.33401 7.48686C4.60964 7.49109 4.8684 7.35571 5.02152 7.1262C5.25703 6.75495 5.16937 6.26418 4.81876 5.99763L3.89469 5.34397C3.52506 5.10176 3.03083 5.1906 2.76891 5.54704C2.53235 5.9183 2.62106 6.40907 2.97168 6.67455L3.85033 7.37475ZM3.85033 12C3.84716 11.7705 3.75211 11.5516 3.58736 11.3929C3.42262 11.2343 3.20084 11.1475 2.97169 11.1539H1.84485C1.37806 11.1539 1 11.5325 1 12C1 12.4675 1.37806 12.8462 1.84485 12.8462H2.97169C3.43529 12.8398 3.81022 12.4643 3.81654 12L3.85033 12ZM23 12C22.9937 12.4643 22.6187 12.8398 22.1551 12.8462H20.7812L21.5923 13.6585C21.9218 13.9885 21.9218 14.5237 21.5923 14.8547C21.2617 15.1848 20.7274 15.1848 20.3978 14.8547L18.3924 12.8462H13.4584L17.4683 16.8622H20.3081C20.7738 16.8622 21.1529 17.2419 21.1529 17.7084C21.1529 18.1759 20.7738 18.5545 20.3081 18.5545H19.1813L20.1275 19.5022C20.288 19.6598 20.3788 19.8756 20.3788 20.1009C20.3788 20.3262 20.288 20.5409 20.1275 20.6985C19.9701 20.8592 19.7547 20.9491 19.5308 20.947C19.3059 20.9481 19.0915 20.8582 18.9331 20.6985L17.9869 19.7508V20.8793C17.9869 21.3458 17.6088 21.7255 17.142 21.7255C16.6763 21.7255 16.2972 21.3458 16.2972 20.8793V18.0585L12.8501 14.6062V22.1538C12.8501 22.6214 12.4721 23 12.0053 23C11.5396 23 11.1604 22.6214 11.1604 22.1538V19.5699C8.65545 19.296 6.44818 17.7961 5.26863 15.5655C4.08899 13.3359 4.08899 10.664 5.26863 8.43451C6.44826 6.20383 8.65534 4.70412 11.1604 4.4301V1.84615C11.1604 1.37864 11.5396 1 12.0053 1C12.4721 1 12.8501 1.37864 12.8501 1.84615V9.06703L16.2972 5.61472V2.77164C16.2972 2.30413 16.6763 1.92549 17.142 1.92549C17.6088 1.92549 17.9869 2.30413 17.9869 2.77164V3.90021L18.9109 2.97472C19.0672 2.80655 19.2848 2.70924 19.514 2.70501C19.7431 2.70078 19.9639 2.79068 20.1265 2.95251C20.288 3.11539 20.3778 3.33646 20.3736 3.56596C20.3694 3.79548 20.2722 4.01336 20.1053 4.16991L19.1591 5.11761H20.2859H20.2849C20.7517 5.11761 21.1297 5.49731 21.1297 5.96376C21.1297 6.43127 20.7517 6.80991 20.2849 6.80991H17.4694L13.11 11.1539H18.3702L20.3757 9.1453C20.7084 8.8354 21.2269 8.84385 21.549 9.16645C21.87 9.48905 21.8796 10.0084 21.5691 10.3415L20.758 11.1538H22.1214C22.585 11.1602 22.9599 11.5357 22.9663 12L23 12Z" fill="currentColor"/>
</svg>
