<svg width="24" height="24" viewBox="0 0 24 24" fill="none" xmlns="http://www.w3.org/2000/svg">
<path d="M4 21H8.57143V7.58824H4V21ZM4 4.23529H4.37714L5.14286 6.47059H7.42857L8.19429 4.23529H8.57143V3.11765H4V4.23529Z" fill="currentColor"/>
<path d="M13.1429 5.35294C13.1429 5.9702 12.6312 6.47059 12 6.47059C11.3688 6.47059 10.8571 5.9702 10.8571 5.35294C10.8571 4.73568 11.3688 4.23529 12 4.23529C12.6312 4.23529 13.1429 4.73568 13.1429 5.35294Z" fill="currentColor"/>
<path d="M16.5714 7.58824C16.5714 8.20549 16.0598 8.70588 15.4286 8.70588C14.7974 8.70588 14.2857 8.20549 14.2857 7.58824C14.2857 6.97098 14.7974 6.47059 15.4286 6.47059C16.0598 6.47059 16.5714 6.97098 16.5714 7.58824Z" fill="currentColor"/>
<path d="M16.5714 4.23529C16.5714 4.85255 16.0598 5.35294 15.4286 5.35294C14.7974 5.35294 14.2857 4.85255 14.2857 4.23529C14.2857 3.61803 14.7974 3.11765 15.4286 3.11765C16.0598 3.11765 16.5714 3.61803 16.5714 4.23529Z" fill="currentColor"/>
<path d="M20 3.11765C20 3.73491 19.4883 4.23529 18.8571 4.23529C18.226 4.23529 17.7143 3.73491 17.7143 3.11765C17.7143 2.50039 18.226 2 18.8571 2C19.4883 2 20 2.50039 20 3.11765Z" fill="currentColor"/>
<path d="M20 9.82353C20 10.4408 19.4883 10.9412 18.8571 10.9412C18.226 10.9412 17.7143 10.4408 17.7143 9.82353C17.7143 9.20627 18.226 8.70588 18.8571 8.70588C19.4883 8.70588 20 9.20627 20 9.82353Z" fill="currentColor"/>
<path d="M20 6.47059C20 7.08785 19.4883 7.58824 18.8571 7.58824C18.226 7.58824 17.7143 7.08785 17.7143 6.47059C17.7143 5.85333 18.226 5.35294 18.8571 5.35294C19.4883 5.35294 20 5.85333 20 6.47059Z" fill="currentColor"/>
</svg>
