<svg width="18" height="18" viewBox="0 0 18 18" fill="none" xmlns="http://www.w3.org/2000/svg">
<path d="M2 12.4286C2 11.8763 1.55228 11.4286 1 11.4286C0.447715 11.4286 0 11.8763 0 12.4286H1H2ZM1 13.5714H0H1ZM18 12.4286C18 11.8763 17.5523 11.4286 17 11.4286C16.4477 11.4286 16 11.8763 16 12.4286H17H18ZM9.78091 1.62473C10.1259 1.19346 10.056 0.564171 9.62473 0.219162C9.19347 -0.125848 8.56418 -0.0559264 8.21917 0.375335L9.00004 1.00003L9.78091 1.62473ZM3.64774 6.08962C3.30273 6.52088 3.37265 7.15018 3.80391 7.49518C4.23518 7.84019 4.86447 7.77027 5.20948 7.33901L4.42861 6.71432L3.64774 6.08962ZM9.78104 0.375335C9.43603 -0.0559264 8.80674 -0.125848 8.37548 0.219162C7.94421 0.564171 7.87429 1.19346 8.2193 1.62473L9.00017 1.00003L9.78104 0.375335ZM12.7907 7.33901C13.1357 7.77027 13.765 7.84019 14.1963 7.49518C14.6276 7.15018 14.6975 6.52088 14.3525 6.08962L13.5716 6.71432L12.7907 7.33901ZM9.99987 1.00003C9.99987 0.447746 9.55216 3.05176e-05 8.99987 3.05176e-05C8.44759 3.05176e-05 7.99987 0.447746 7.99987 1.00003H8.99987H9.99987ZM7.99987 13.5715C7.99987 14.1237 8.44759 14.5715 8.99987 14.5715C9.55216 14.5715 9.99987 14.1237 9.99987 13.5715H8.99987H7.99987ZM1 12.4286H0V13.5714H1H2V12.4286H1ZM1 13.5714H0C0 16.0173 1.98274 18 4.42857 18V17V16C3.08731 16 2 14.9127 2 13.5714H1ZM4.42857 17V18H13.5714V17V16H4.42857V17ZM13.5714 17V18C16.0173 18 18 16.0173 18 13.5714H17H16C16 14.9127 14.9127 16 13.5714 16V17ZM17 13.5714H18V12.4286H17H16V13.5714H17ZM9.00004 1.00003L8.21917 0.375335L3.64774 6.08962L4.42861 6.71432L5.20948 7.33901L9.78091 1.62473L9.00004 1.00003ZM9.00017 1.00003L8.2193 1.62473L12.7907 7.33901L13.5716 6.71432L14.3525 6.08962L9.78104 0.375335L9.00017 1.00003ZM8.99987 1.00003H7.99987V13.5715H8.99987H9.99987V1.00003H8.99987Z" fill="currentColor"/>
</svg>
