<svg width="24" height="24" viewBox="0 0 24 24" fill="none" xmlns="http://www.w3.org/2000/svg">
<path fill-rule="evenodd" clip-rule="evenodd" d="M12 24C9.95951 24 7.95101 23.4722 6.16146 22.4706L1.33867 23.897C0.985754 24 0.60085 23.902 0.342914 23.6352C0.0849788 23.3703 -0.003999 22.9834 0.111972 22.6326L1.62859 18.0185C0.56086 16.1853 0 14.1151 0 12C0 5.38376 5.38265 0 12 0C18.6163 0 24 5.38376 24 12C24 18.6162 18.6163 24 12 24ZM12 1.99017C6.47938 1.99017 1.9895 6.4803 1.9895 12C1.9895 13.8942 2.53037 15.7484 3.55511 17.3598C3.71607 17.6097 3.75506 17.9205 3.66108 18.2034L2.59335 21.4511L6.0095 20.4415C6.10147 20.4145 6.19745 20.4005 6.29143 20.4005C6.47238 20.4005 6.65134 20.4505 6.8093 20.5464C8.3809 21.504 10.1765 22.0098 12 22.0098C17.5196 22.0098 22.0105 17.5197 22.0105 12C22.0105 6.4803 17.5196 1.99017 12 1.99017ZM15.878 16.9459C15.3862 16.9889 15.3862 17.3378 12.6628 16.2922C9.93951 15.2436 8.22094 12.5158 8.08698 12.3419C7.95201 12.1669 6.99225 10.9234 6.99225 9.63499C6.99225 8.34952 7.68408 7.71579 7.93002 7.45589C8.17496 7.193 8.46588 7.12803 8.64384 7.12803C8.82179 7.12803 9.00075 7.14902 9.15771 7.14902C9.31467 7.14902 9.53761 7.06206 9.76056 7.58484C9.9845 8.10962 10.5194 9.39709 10.5864 9.52803C10.6533 9.65898 10.6983 9.80991 10.6083 9.98584C10.5194 10.1598 10.4744 10.2697 10.3414 10.4217C10.2074 10.5746 10.0585 10.7615 9.93951 10.8815C9.80555 11.0104 9.66558 11.1514 9.82154 11.4142C9.9785 11.6761 10.5154 12.5318 11.3122 13.2265C12.3349 14.1171 13.1987 14.393 13.4666 14.5239C13.7346 14.6549 13.8905 14.6339 14.0455 14.457C14.2024 14.283 14.7173 13.6953 14.8953 13.4334C15.0732 13.1705 15.2512 13.2155 15.4981 13.3025C15.7431 13.3894 17.0607 14.0222 17.3287 14.1531C17.5966 14.283 17.7746 14.349 17.8415 14.457C17.9075 14.5669 17.9075 15.0917 17.6856 15.7025C17.4616 16.3132 16.3679 16.903 15.878 16.9459Z" fill="currentColor"/>
</svg>
