<svg width="24" height="24" viewBox="0 0 24 24" fill="none" xmlns="http://www.w3.org/2000/svg">
<g clip-path="url(#clip0_55_572)">
<path d="M5.39197 9.76406C6.34659 6.9375 9.06177 4.90781 12.2854 4.90781C14.0172 4.90781 15.5763 5.50781 16.8091 6.4875L20.3734 3C18.2003 1.14375 15.4084 0 12.2806 0C7.44034 0 3.27164 2.7 1.27124 6.65156L5.39197 9.76406Z" fill="#EA4335"/>
<path d="M16.4157 18.0139C15.2979 18.717 13.8828 19.092 12.2806 19.092C9.07127 19.092 6.3657 17.0764 5.40148 14.2686L1.26636 17.3342C3.26676 21.2951 7.43546 23.9998 12.2806 23.9998C15.2835 23.9998 18.1522 22.9592 20.2965 20.9998L16.4157 18.0139Z" fill="#34A853"/>
<path d="M20.2965 21C22.5416 18.9516 23.9999 15.9047 23.9999 12C23.9999 11.2922 23.8896 10.5281 23.7217 9.82031H12.2805V14.4562H18.867C18.5408 16.0172 17.6677 17.2219 16.4156 18.0141L20.2965 21Z" fill="#4A90E2"/>
<path d="M5.40156 14.2686C5.15691 13.5561 5.02259 12.7967 5.02259 11.9998C5.02259 11.217 5.15211 10.467 5.38717 9.76387L1.26644 6.65137C0.446132 8.25918 0 10.0732 0 11.9998C0 13.917 0.455727 15.7311 1.26644 17.3342L5.40156 14.2686Z" fill="#FBBC05"/>
</g>
<defs>
<clipPath id="clip0_55_572">
<rect width="24" height="24" fill="white"/>
</clipPath>
</defs>
</svg>
