<svg width="90" height="90" viewBox="0 0 90 90" fill="none" xmlns="http://www.w3.org/2000/svg">
<path d="M59.7321 68.2885C58.0523 68.2885 56.4936 67.4681 55.404 65.964L55.3284 65.8577C48.4276 54.4787 48.3822 54.3419 48.3216 54.2052C47.7768 52.9442 47.7617 51.5465 48.2762 50.2704C48.7908 48.9942 49.7593 47.9915 51.0154 47.4446C51.6964 47.156 52.3471 47.0344 53.134 47.0192H58.4912C60.2769 47.0496 62.6831 47.8244 64.1813 51.3338C64.1813 51.3338 66.3302 56.3473 67.0415 58.0336C68.5094 61.5127 66.8448 65.7058 63.3944 67.1946L61.7297 67.9086C61.0487 68.1669 60.3677 68.2885 59.717 68.2885H59.7321ZM57.8859 64.2169C58.3096 64.7942 59.2025 65.6146 60.625 65.0829L62.2291 64.384C64.1359 63.5636 65.1044 61.1481 64.2872 59.2035C63.576 57.5323 61.4271 52.534 61.4271 52.534C60.4888 50.3463 59.2933 50.0729 58.4912 50.0577H53.134C52.8162 50.0577 52.5136 50.1033 52.2412 50.2248C51.7266 50.4527 51.318 50.8629 51.1062 51.3794C50.8943 51.9112 50.9094 52.4733 51.1213 53.005C51.2878 53.2937 55.2678 59.8567 57.901 64.2017L57.8859 64.2169Z" fill="#1589C9"/>
<path d="M19.9166 85C9.48977 85 1 76.4771 1 66.0096C1 55.5421 9.48977 47.0192 19.9166 47.0192C30.3434 47.0192 38.8332 55.5421 38.8332 66.0096C38.8332 76.4771 30.3434 85 19.9166 85ZM19.9166 50.0577C11.1544 50.0577 4.02665 57.2133 4.02665 66.0096C4.02665 74.806 11.1544 81.9615 19.9166 81.9615C28.6788 81.9615 35.8065 74.806 35.8065 66.0096C35.8065 57.2133 28.6788 50.0577 19.9166 50.0577Z" fill="#1589C9"/>
<path d="M44.8865 69.8077H41.8599V35.625C41.8599 35.1996 41.527 34.8654 41.1032 34.8654H27.4833C27.0595 34.8654 26.7266 35.1996 26.7266 35.625V49.3588H23.7V35.625C23.7 33.5284 25.3949 31.8269 27.4833 31.8269H41.1032C43.1916 31.8269 44.8865 33.5284 44.8865 35.625V69.8077Z" fill="#1589C9"/>
<path d="M9.80669 11.1759C9.2157 10.5826 8.25751 10.5826 7.66652 11.1759C7.07553 11.7692 7.07553 12.7311 7.66652 13.3244L11.8398 17.514C12.4308 18.1073 13.389 18.1073 13.98 17.514C14.571 16.9208 14.571 15.9588 13.98 15.3655L9.80669 11.1759Z" fill="#1589C9"/>
<path d="M25.2132 7.51923C25.2132 6.68018 24.5356 6 23.6999 6C22.8641 6 22.1865 6.68018 22.1865 7.51923V15.1154C22.1865 15.9544 22.8641 16.6346 23.6999 16.6346C24.5356 16.6346 25.2132 15.9544 25.2132 15.1154V7.51923Z" fill="#1589C9"/>
<path d="M11.5934 27.2692H4.02676C3.19097 27.2692 2.51343 27.9494 2.51343 28.7885C2.51343 29.6275 3.19097 30.3077 4.02676 30.3077H11.5934C12.4292 30.3077 13.1067 29.6275 13.1067 28.7885C13.1067 27.9494 12.4292 27.2692 11.5934 27.2692Z" fill="#1589C9"/>
<path d="M31.1517 52.5843L6.53979 77.2922L8.67996 79.4408L33.2919 54.7328L31.1517 52.5843Z" fill="#1589C9"/>
<path d="M34.2931 37.9039H25.2131V40.9423H34.2931V37.9039Z" fill="#1589C9"/>
<path d="M68.3431 72.8462C67.4805 72.8462 66.6936 72.36 66.3153 71.57L63.2735 65.1437L66.0126 63.8371L68.7366 69.595L74.8807 67.1339L63.5307 43.1452C63.5307 43.1452 61.3515 38.9673 60.6251 37.5544C60.1409 36.6277 59.929 35.3668 60.0652 34.3641C60.4133 31.8118 62.7589 30.0343 65.3013 30.3685C66.4212 30.5204 67.4351 31.0673 68.1615 31.9029C69.3419 33.255 71.7481 35.7921 74.7748 37.6608C76.9994 39.0281 79.8898 42.4312 81.9177 45.0443C82.3717 45.6368 83.0375 46.0014 83.7639 46.1077L89 46.8977L88.546 49.9058L83.3251 49.1158C81.8269 48.9183 80.4649 48.1283 79.5266 46.9129C76.9086 43.5554 74.5932 41.1246 73.1706 40.2587C69.811 38.1925 67.1476 35.3971 65.8613 33.9083C65.6191 33.6196 65.2559 33.4373 64.8776 33.3766C64.015 33.255 63.1675 33.8779 63.0465 34.7743C62.9859 35.23 63.1221 35.8377 63.2886 36.1568C64.015 37.5696 66.2093 41.7931 66.2093 41.7931L77.9376 66.5718C78.0889 66.8908 78.1646 67.2098 78.1646 67.5441C78.1646 68.4708 77.6047 69.3064 76.7421 69.6558L69.1603 72.6943C68.8728 72.8006 68.6004 72.8614 68.328 72.8614L68.3431 72.8462Z" fill="#1589C9"/>
<path d="M19.9166 77.4038C15.3312 77.4038 11.5933 73.6513 11.5933 69.048C11.5933 64.9765 17.5104 56.8182 18.7059 55.2231L19.9166 53.5975L21.1272 55.2231C22.3076 56.8182 28.2399 64.9765 28.2399 69.048C28.2399 73.6513 24.5019 77.4038 19.9166 77.4038ZM19.9166 58.7325C17.5104 62.2115 14.6199 67.0275 14.6199 69.048C14.6199 71.9802 16.9958 74.3654 19.9166 74.3654C22.8373 74.3654 25.2132 71.9802 25.2132 69.048C25.2132 67.0275 22.3228 62.2115 19.9166 58.7325Z" fill="#1589C9"/>
<path d="M55.6916 49.1918L53.1492 43.8289C49.5324 44.315 45.7793 43.5706 42.6165 41.7323L44.1298 39.1041C46.99 40.7752 50.5009 41.3221 53.7091 40.6537L54.8744 40.4106L58.4156 47.8852L55.6916 49.1918Z" fill="#1589C9"/>
<path d="M35.6855 33.9538C34.7623 31.8421 34.2932 29.5936 34.2932 27.2692C34.2932 21.2683 36.4875 16.8777 41.0275 13.8544L42.6468 12.7758L47.6105 27.0413L53.7546 24.5802L48.7909 10.5881H50.9398C55.6614 10.5881 59.9441 12.3352 63.001 15.4952C65.952 18.564 67.5864 22.7571 67.5864 27.2996C67.5864 29.0467 67.314 30.7635 66.7995 32.4042L63.9242 31.4775C64.3479 30.1254 64.5749 28.7277 64.5749 27.2996C64.5749 23.5623 63.2432 20.1136 60.837 17.6069C58.8091 15.4952 56.1759 14.1887 53.1493 13.7633L56.8721 24.246C56.9629 24.5042 57.0083 24.7473 57.0083 25.0056C57.0083 25.9323 56.4483 26.7679 55.5857 27.1173L48.004 30.1558C46.7933 30.6419 45.4918 30.0038 45.053 28.8644L41.1335 17.6221C38.5457 19.9617 37.335 23.0913 37.335 27.2844C37.335 29.1835 37.7133 31.0217 38.47 32.7536L35.7006 33.969L35.6855 33.9538Z" fill="#1589C9"/>
<path d="M74.8354 63.199L73.322 60.5708L79.1332 57.1829C80.7979 56.2106 82.4777 55.8915 83.9758 56.2865C85.02 56.56 87.5776 57.6994 87.8651 57.8361L86.6393 60.6163C85.6254 60.1606 83.8094 59.401 83.204 59.2338C82.2658 58.9908 81.2065 59.4921 80.6617 59.8111L74.8354 63.199Z" fill="#1589C9"/>
</svg>
