<svg width="90" height="90" viewBox="0 0 90 90" fill="none" xmlns="http://www.w3.org/2000/svg">
<path d="M15.9672 43.1186L8.20862 35.4023C7.60345 34.8004 7.60345 33.8282 8.20862 33.2263L12.8638 28.5965C13.469 27.9946 14.4466 27.9946 15.0517 28.5965L15.9672 29.507C16.5724 30.1089 17.55 30.1089 18.1552 29.507L22.0034 25.6797C22.6086 25.0779 23.5862 25.0779 24.1914 25.6797C24.7965 26.2816 24.7965 27.2539 24.1914 27.8558L18.1552 33.859C17.55 34.4609 16.5724 34.4609 15.9672 33.859L15.0517 32.9485C14.4466 32.3467 13.469 32.3467 12.8638 32.9485L12.6 33.2109C11.9948 33.8128 11.9948 34.785 12.6 35.3869L15.9672 38.7358C16.5724 39.3376 17.55 39.3376 18.1552 38.7358L28.2103 28.7354C28.8155 28.1335 29.7931 28.1335 30.3983 28.7354C31.0034 29.3373 31.0034 30.3095 30.3983 30.9114L18.1552 43.0878C17.55 43.6896 16.5724 43.6896 15.9672 43.0878V43.1186Z" fill="#1589C9"/>
<path d="M73.7236 38.4217L72.4638 41.2425L78.2355 43.7922L79.4954 40.9714L73.7236 38.4217Z" fill="#1589C9"/>
<path d="M51.5793 80.8823L6.56379 62.6409L8.20862 60.9896C8.20862 60.9896 10.7534 58.4278 14.5862 52.5789L17.1931 54.261C14.9276 57.7025 13.1121 60.0483 11.9172 61.4681L50.7879 77.2094C53.6431 73.9376 65.0017 59.6779 75.6621 28.2416C77.0276 24.2291 79.9914 21.945 83.7931 21.945C87.2224 21.945 90 24.7075 90 28.1181C90 30.2787 89.581 32.4084 88.7741 34.2757L83.6535 46.1589L76.6552 43.0723L77.9121 40.2482L82.0397 42.0692L85.919 33.0566C86.5552 31.575 86.8966 29.862 86.8966 28.1181C86.8966 26.3742 85.5 25.0316 83.7931 25.0316C81.3259 25.0316 79.5414 26.4822 78.6104 29.2293C66.0879 66.1441 52.8672 79.5705 52.3086 80.1261L51.5793 80.8515V80.8823Z" fill="#1589C9"/>
<path d="M54.9155 84.5862C54.3103 84.0152 54.2638 83.0892 54.7759 82.4719C56.4983 80.4193 60.3466 75.4963 64.9241 67.6411C65.3586 66.9158 66.2897 66.638 67.0345 67.0547C67.7793 67.4714 68.0431 68.4282 67.6086 69.1689C62.8914 77.2711 58.9655 82.2867 57.15 84.4473C56.5759 85.1263 55.5672 85.188 54.9155 84.5862Z" fill="#1589C9"/>
<path d="M84.9569 25.2785L43.0603 8.30259C42.6879 8.14826 42.3 8.0711 41.8965 8.0711C39.4293 8.0711 37.6448 9.52177 36.7138 12.2688C35.4414 16.0189 35.2397 16.4973 33.9983 19.198L31.1741 17.9171C32.369 15.3244 32.5396 14.9078 33.7655 11.2965C35.131 7.28403 38.0948 5 41.8965 5C42.7034 5 43.4948 5.15433 44.2397 5.44755L86.1362 22.4235L84.9724 25.2785H84.9569Z" fill="#1589C9"/>
<path d="M47.358 17.4957C46.5644 17.1741 45.6589 17.5532 45.3355 18.3426C45.0121 19.1319 45.3933 20.0325 46.1869 20.3541L64.3938 27.7326C65.1874 28.0542 66.0929 27.6751 66.4163 26.8858C66.7397 26.0965 66.3585 25.1959 65.5649 24.8743L47.358 17.4957Z" fill="#1589C9"/>
<path d="M37.5241 24.3071C36.7305 23.9851 35.8249 24.364 35.5012 25.1532C35.1775 25.9424 35.5584 26.8431 36.352 27.165L55.0878 34.7655C55.8813 35.0874 56.787 34.7086 57.1106 33.9194C57.4343 33.1302 57.0534 32.2294 56.2599 31.9075L37.5241 24.3071Z" fill="#1589C9"/>
<path d="M60.9379 35.2886L60.809 35.603C60.5211 36.3054 60.8602 37.107 61.5665 37.3934C62.2728 37.6797 63.0788 37.3425 63.3667 36.64L63.4956 36.3256C63.7835 35.6232 63.4444 34.8216 62.7381 34.5352C62.0318 34.2489 61.2258 34.5862 60.9379 35.2886Z" fill="#1589C9"/>
<path d="M35.8598 34.4508C35.0661 34.1293 34.1607 34.5086 33.8374 35.298C33.5142 36.0873 33.8955 36.9879 34.6892 37.3093L45.7693 41.7974C46.563 42.1189 47.4684 41.7396 47.7917 40.9503C48.115 40.1609 47.7336 39.2604 46.9399 38.9389L35.8598 34.4508Z" fill="#1589C9"/>
<path d="M32.0878 43.7281C31.2942 43.4064 30.3887 43.7856 30.0653 44.5749C29.7419 45.3642 30.1231 46.2648 30.9167 46.5864L39.6106 50.1097C40.4042 50.4313 41.3098 50.0522 41.6331 49.2629C41.9565 48.4736 41.5753 47.573 40.7817 47.2514L32.0878 43.7281Z" fill="#1589C9"/>
<path d="M45.3091 50.6113L45.2154 50.84C44.9179 51.5661 45.2686 52.3947 45.9988 52.6906L46.0131 52.6964C46.7433 52.9923 47.5764 52.6435 47.8739 51.9174L47.9676 51.6887C48.2651 50.9625 47.9144 50.134 47.1843 49.8381L47.1699 49.8323C46.4397 49.5364 45.6067 49.8852 45.3091 50.6113Z" fill="#1589C9"/>
<path d="M52.8517 49.1219L51.1138 44.5076C50.819 43.7051 51.2224 42.8254 52.0293 42.5168C52.8362 42.2235 53.7207 42.6248 54.031 43.4273L54.5121 44.7082C54.8379 45.5879 55.8776 45.9737 56.7155 45.5261L62.5345 42.3779C63.2793 41.9766 64.2259 42.239 64.6448 42.9952C65.0483 43.7359 64.7845 44.6773 64.0241 45.094L55.0707 49.9553C54.2483 50.4029 53.2086 50.017 52.8672 49.1374L52.8517 49.1219Z" fill="#1589C9"/>
<path d="M46.5517 71.345C43.1224 71.345 40.3448 68.5825 40.3448 65.1719C40.3448 61.7613 43.1224 58.9988 46.5517 58.9988C49.981 58.9988 52.7586 61.7613 52.7586 65.1719C52.7586 68.5825 49.981 71.345 46.5517 71.345ZM46.5517 62.0854C44.8448 62.0854 43.4483 63.4743 43.4483 65.1719C43.4483 66.8695 44.8448 68.2584 46.5517 68.2584C48.2586 68.2584 49.6552 66.8695 49.6552 65.1719C49.6552 63.4743 48.2586 62.0854 46.5517 62.0854Z" fill="#1589C9"/>
<path d="M18.6207 56.4679L18.0155 56.221C2.3431 49.6312 0 30.6491 0 19.9079V18.8894L0.946552 18.4881C8.72069 15.1701 12.1655 13.3954 17.519 7.91677L18.6362 6.77475L19.7534 7.91677C25.1069 13.3954 28.5517 15.1701 36.3259 18.4881L37.2724 18.8894V19.9079C37.2724 30.6491 34.9293 49.6312 19.2569 56.2055L18.6517 56.4524L18.6207 56.4679ZM3.10345 20.9265C3.2431 30.8806 5.58621 47.1774 18.6207 53.1036C31.6552 47.1774 33.9828 30.8806 34.1379 20.9265C27.2638 17.9634 23.5397 15.988 18.6207 11.1885C13.7172 15.9726 9.97758 17.9634 3.10345 20.9265Z" fill="#1589C9"/>
</svg>
