<svg width="90" height="90" viewBox="0 0 90 90" fill="none" xmlns="http://www.w3.org/2000/svg">
<path d="M53.2873 76.0483C52.9723 76.0483 52.6515 76.0069 52.31 75.9271L11.2438 65.9724C9.33345 65.5054 8 63.8059 8 61.8374C8 60.6965 8.44154 59.6266 9.24514 58.8227L14.9057 53.1389C15.9242 52.1103 17.2988 51.6374 18.8854 52.0128L33.0971 55.4562L32.4348 58.2167L18.229 54.7734C17.6079 54.6315 17.24 54.8118 16.9103 55.1458L11.2468 60.8325C10.9789 61.1015 10.8317 61.4562 10.8317 61.8374C10.8317 62.4906 11.2762 63.0552 11.912 63.2089L52.9664 73.1606C53.5846 73.2995 53.9555 73.1222 54.2852 72.7882L59.9487 67.1015C60.2165 66.8325 60.3637 66.4778 60.3637 66.0965C60.3637 65.4433 59.9192 64.8788 59.2834 64.7251L41.6365 60.4483L42.2988 57.6877L59.9487 61.9645C61.8591 62.4315 63.1925 64.131 63.1925 66.0995C63.1925 67.2404 62.751 68.3103 61.9474 69.1143L56.2868 74.798C55.4891 75.602 54.4206 76.0483 53.2844 76.0483H53.2873Z" fill="#1589C9"/>
<path d="M43.3791 66.5576L26.2768 62.4167L35.1812 51.7232L53.617 7.61576C54.2793 6.02562 55.8159 5 57.532 5C59.8721 5 61.7766 6.91232 61.7766 9.26207C61.7766 9.82956 61.6648 10.3852 61.447 10.9084L43.385 54.1261L43.3791 66.5576ZM31.3751 60.7261L40.5503 62.9517V53.5586L58.8389 9.81182C58.9096 9.63744 58.9478 9.45419 58.9478 9.26503C58.9478 8.48177 58.312 7.84335 57.532 7.84335C56.9609 7.84335 56.4458 8.18621 56.228 8.71527L37.6273 53.2217L31.3751 60.7291V60.7261Z" fill="#1589C9"/>
<path d="M39.1345 14.9458C37.5744 14.9458 36.3027 13.6719 36.3027 12.1025C36.3027 10.533 37.5714 9.25911 39.1345 9.25911C40.6975 9.25911 41.9662 10.533 41.9662 12.1025C41.9662 13.6719 40.6975 14.9458 39.1345 14.9458Z" fill="#1589C9"/>
<path d="M74.5136 27.735C72.9535 27.735 71.6819 26.4611 71.6819 24.8916C71.6819 23.3222 72.9506 22.0483 74.5136 22.0483C76.0767 22.0483 77.3454 23.3222 77.3454 24.8916C77.3454 26.4611 76.0767 27.735 74.5136 27.735Z" fill="#1589C9"/>
<path d="M58.2384 49.0512C55.5068 49.0512 53.2844 46.8197 53.2844 44.0768C53.2844 41.334 55.5068 39.1025 58.2384 39.1025C60.9701 39.1025 63.1925 41.334 63.1925 44.0768C63.1925 46.8197 60.9701 49.0512 58.2384 49.0512ZM58.2384 41.9458C57.0669 41.9458 56.1161 42.9005 56.1161 44.0768C56.1161 45.2532 57.0669 46.2079 58.2384 46.2079C59.41 46.2079 60.3608 45.2532 60.3608 44.0768C60.3608 42.9005 59.41 41.9458 58.2384 41.9458Z" fill="#1589C9"/>
<path d="M68.8531 41.9458C65.7299 41.9458 63.1925 39.398 63.1925 36.2621C63.1925 33.1261 65.7299 30.5783 68.8531 30.5783C71.9762 30.5783 74.5136 33.1261 74.5136 36.2621C74.5136 39.398 71.9762 41.9458 68.8531 41.9458ZM68.8531 33.4187C67.293 33.4187 66.0213 34.6926 66.0213 36.2621C66.0213 37.8315 67.29 39.1054 68.8531 39.1054C70.4161 39.1054 71.6848 37.8315 71.6848 36.2621C71.6848 34.6926 70.4161 33.4187 68.8531 33.4187Z" fill="#1589C9"/>
<path d="M27.104 22.0512C24.3723 22.0512 22.1499 19.8197 22.1499 17.0768C22.1499 14.334 24.3723 12.1025 27.104 12.1025C29.8356 12.1025 32.0581 14.334 32.0581 17.0768C32.0581 19.8197 29.8356 22.0512 27.104 22.0512ZM27.104 14.9458C25.9324 14.9458 24.9816 15.9005 24.9816 17.0768C24.9816 18.2532 25.9324 19.2079 27.104 19.2079C28.2755 19.2079 29.2263 18.2532 29.2263 17.0768C29.2263 15.9005 28.2755 14.9458 27.104 14.9458Z" fill="#1589C9"/>
<path d="M32.0581 41.9458C28.9349 41.9458 26.3975 39.398 26.3975 36.2621C26.3975 33.1261 28.9349 30.5783 32.0581 30.5783C35.1812 30.5783 37.7186 33.1261 37.7186 36.2621C37.7186 39.398 35.1812 41.9458 32.0581 41.9458ZM32.0581 33.4187C30.4979 33.4187 29.2263 34.6926 29.2263 36.2621C29.2263 37.8315 30.495 39.1054 32.0581 39.1054C33.6211 39.1054 34.8898 37.8315 34.8898 36.2621C34.8898 34.6926 33.6211 33.4187 32.0581 33.4187Z" fill="#1589C9"/>
<path d="M8.61816 52.2522C8.209 51.2355 8 50.1596 8 49.0512C8 44.3488 11.862 40.5241 16.61 40.5241V43.3675C13.478 43.3675 10.8317 45.9714 10.8317 49.0512C10.8317 49.7901 10.9701 50.5084 11.2438 51.1823L8.6211 52.2522H8.61816Z" fill="#1589C9"/>
<path d="M75.588 72.8975L74.8845 70.1458C77.9988 69.3448 80.1712 66.5133 80.1712 63.2621C80.1712 59.3458 76.998 56.1567 73.0948 56.1567C70.8194 56.1567 68.6676 57.268 67.34 59.1241L65.0411 57.466C66.8985 54.865 69.9098 53.3133 73.0948 53.3133C78.5552 53.3133 83 57.7764 83 63.2591C83 67.8108 79.9504 71.7714 75.5851 72.8975H75.588Z" fill="#1589C9"/>
<path d="M68.8531 83.1537C65.6475 83.1537 62.751 81.3744 61.288 78.5074L63.8077 77.2099C64.7821 79.1222 66.7131 80.3103 68.8501 80.3103C71.9733 80.3103 74.5107 77.7626 74.5107 74.6266C74.5107 72.4424 73.3273 70.5034 71.4228 69.5635L72.6709 67.0128C75.5497 68.4345 77.3395 71.3517 77.3395 74.6266C77.3395 79.3291 73.5304 83.1537 68.8472 83.1537H68.8531Z" fill="#1589C9"/>
<path d="M16.4923 78.8916C12.592 78.8916 9.41587 75.7054 9.41587 71.7862C9.41587 71.2305 9.48063 70.6778 9.60721 70.1429L12.3595 70.799C12.2859 71.1182 12.2476 71.4522 12.2476 71.7862C12.2476 74.136 14.1521 76.0483 16.4923 76.0483C18.8325 76.0483 20.737 74.136 20.737 71.7862H23.5687C23.5687 75.7025 20.3955 78.8916 16.4923 78.8916Z" fill="#1589C9"/>
<path d="M30.6422 85.997C25.0228 85.997 19.9981 82.2197 18.4174 76.8108L21.1343 76.0128C22.3618 80.2187 26.2709 83.1566 30.6422 83.1566C34.619 83.1566 38.1955 80.7833 39.7585 77.1094L42.3636 78.2236C40.3561 82.9468 35.7552 85.997 30.6451 85.997H30.6422Z" fill="#1589C9"/>
<path d="M47.6268 85.9971C46.4523 85.9971 45.2895 85.7015 44.2622 85.1458L45.6074 82.6453C46.2315 82.9852 46.9115 83.1566 47.6238 83.1566C49.964 83.1566 51.8685 81.2443 51.8685 78.8946H54.7002C54.7002 82.8108 51.527 86 47.6238 86L47.6268 85.9971Z" fill="#1589C9"/>
<path d="M17.5137 47.0591C15.9418 45.2473 15.0764 42.9271 15.0764 40.5241C15.0764 35.0414 19.5213 30.5783 24.9816 30.5783C26.7066 30.5783 28.405 31.0305 29.8945 31.8877L28.4875 34.3527C27.4278 33.7438 26.215 33.4217 24.9816 33.4217C21.0814 33.4217 17.9052 36.6079 17.9052 40.5271C17.9052 42.2443 18.5234 43.8995 19.6449 45.1941L17.5108 47.0621L17.5137 47.0591Z" fill="#1589C9"/>
</svg>
