<svg width="90" height="90" viewBox="0 0 90 90" fill="none" xmlns="http://www.w3.org/2000/svg">
<path d="M4.31009 84.9918C4.06496 84.9945 3.82454 84.9239 3.61911 84.789C3.47273 84.6979 3.34567 84.5786 3.24525 84.4378C3.14482 84.297 3.07303 84.1376 3.034 83.9687C2.99497 83.7998 2.98948 83.6248 3.01785 83.4537C3.04621 83.2827 3.10786 83.119 3.19925 82.9721C4.28483 81.188 5.78613 79.6984 7.57263 78.6326L7.66884 78.5885L14.0802 75.9425C14.2455 75.8686 14.4242 75.8304 14.605 75.8304C14.7858 75.8304 14.9646 75.8686 15.1298 75.9425C18.8925 77.4243 23.0703 77.4243 26.833 75.9425C26.9915 75.8701 27.1626 75.8299 27.3365 75.8242C27.5104 75.8185 27.6837 75.8474 27.8466 75.9092C28.0094 75.971 28.1586 76.0646 28.2856 76.1846C28.4126 76.3046 28.5149 76.4486 28.5867 76.6084C28.6585 76.7682 28.6983 76.9408 28.704 77.1161C28.7097 77.2915 28.681 77.4663 28.6197 77.6305C28.5584 77.7947 28.4656 77.9452 28.3466 78.0732C28.2276 78.2013 28.0848 78.3044 27.9263 78.3768C25.7124 79.3146 23.33 79.7801 20.9289 79.7439C18.7397 79.7516 16.5663 79.3694 14.5088 78.615L8.68347 81.0228C7.35752 81.8689 6.24384 83.013 5.42968 84.3656C5.31291 84.5589 5.14831 84.7183 4.95203 84.8281C4.75575 84.9379 4.53454 84.9943 4.31009 84.9918Z" fill="#1589C9"/>
<path d="M16.8617 74.8488C16.5955 74.8484 16.3359 74.7653 16.1182 74.6107C12.6195 72.1852 12.4096 70.3241 12.086 67.7487C12.0247 67.3077 11.9635 66.8667 11.8848 66.3022C11.8848 66.3022 11.8848 66.2316 11.8848 66.1875C11.7448 64.2383 11.5786 61.7775 12.7595 59.7842C13.7942 58.009 15.4415 56.6807 17.3865 56.0533C18.4956 55.5964 19.6877 55.38 20.8852 55.4183C22.0234 55.4126 23.1568 55.567 24.2527 55.8769C25.255 56.1635 26.1909 56.6479 27.0062 57.3019C27.8215 57.956 28.4999 58.7667 29.0022 59.6872C29.9703 61.6903 30.2592 63.9586 29.8244 66.1434C29.7456 66.6903 29.6844 67.1666 29.6319 67.6076C29.2733 70.5182 28.9234 72.1411 25.5909 74.4784C25.3044 74.6784 24.9509 74.7554 24.6081 74.6926C24.2652 74.6297 23.9612 74.4321 23.7629 74.1432C23.5645 73.8543 23.4881 73.4978 23.5504 73.1521C23.6128 72.8064 23.8087 72.4998 24.0952 72.2998C26.623 70.5358 26.7193 69.7155 27.0254 67.2812C27.0866 66.8138 27.1479 66.311 27.2353 65.7554C27.591 64.134 27.4002 62.4393 26.693 60.9396C26.0198 59.7227 24.8978 58.8226 23.5704 58.4347C22.6973 58.1834 21.7932 58.0587 20.8852 58.0643C20.0356 58.0327 19.1889 58.183 18.4011 58.5053H18.3049C16.9546 58.921 15.8067 59.83 15.0861 61.0543C14.3164 62.3861 14.4301 64.1766 14.5525 65.9053C14.64 66.4433 14.7012 66.9284 14.7537 67.3782C15.0424 69.6891 15.1648 70.6505 17.6751 72.3968C17.9074 72.5563 18.0828 72.7866 18.1754 73.0541C18.2681 73.3215 18.2732 73.6119 18.19 73.8825C18.1067 74.1531 17.9396 74.3896 17.713 74.5572C17.4865 74.7248 17.2126 74.8147 16.9316 74.8135L16.8617 74.8488Z" fill="#1589C9"/>
<path d="M60.6567 84.9918C60.4337 84.9928 60.2142 84.9356 60.0196 84.8259C59.825 84.7162 59.6618 84.5576 59.5458 84.3656C58.7761 83.1308 57.4816 81.5168 56.327 81.0405L50.4317 78.6326C46.2817 80.1375 41.7414 80.1375 37.5915 78.6326L31.7311 81.0228C30.403 81.8699 29.2889 83.0174 28.4774 84.3744C28.3855 84.5215 28.2657 84.649 28.125 84.7494C27.9843 84.8498 27.8253 84.9213 27.6572 84.9598C27.4891 84.9983 27.3151 85.0031 27.1451 84.9737C26.9752 84.9444 26.8127 84.8816 26.6668 84.789C26.5209 84.6963 26.3945 84.5756 26.2949 84.4337C26.1953 84.2918 26.1244 84.1315 26.0862 83.962C26.0481 83.7924 26.0434 83.617 26.0725 83.4456C26.1015 83.2742 26.1638 83.1103 26.2557 82.9632C27.3421 81.1822 28.8434 79.6956 30.629 78.6326L30.7253 78.5885L37.1366 75.9425C37.3019 75.8686 37.4807 75.8304 37.6614 75.8304C37.8422 75.8304 38.021 75.8686 38.1862 75.9425C41.9489 77.4243 46.1267 77.4243 49.8894 75.9425C50.0552 75.8707 50.2337 75.8336 50.4142 75.8336C50.5946 75.8336 50.7732 75.8707 50.939 75.9425L57.3504 78.5885C59.4671 79.4705 61.164 81.9489 61.7937 82.9985C61.8851 83.1454 61.9468 83.3091 61.9751 83.4802C62.0035 83.6512 61.998 83.8262 61.959 83.9951C61.9199 84.164 61.8481 84.3235 61.7477 84.4643C61.6473 84.6051 61.5202 84.7244 61.3739 84.8154C61.158 84.9462 60.9079 85.0077 60.6567 84.9918Z" fill="#1589C9"/>
<path d="M39.9181 74.8488C39.6625 74.8493 39.4127 74.7725 39.2009 74.6283C35.5447 72.2204 35.3435 70.2183 35.0549 67.3694C35.0549 67.0254 34.9762 66.6462 34.9324 66.2493C34.7838 64.2383 34.6176 61.8393 35.8071 59.7842C36.8419 58.009 38.4892 56.6807 40.4342 56.0533C41.5433 55.5964 42.7353 55.38 43.9328 55.4183C45.071 55.4126 46.2044 55.567 47.3004 55.8769C48.3027 56.1635 49.2386 56.6479 50.0539 57.3019C50.8692 57.956 51.5476 58.7667 52.0498 59.6872C53.018 61.6903 53.3068 63.9586 52.872 66.1434C52.7933 66.6903 52.7321 67.1666 52.6796 67.6076C52.321 70.5182 51.9799 72.1411 48.6386 74.4784C48.3521 74.6784 47.9986 74.7554 47.6557 74.6926C47.3129 74.6297 47.0089 74.4321 46.8105 74.1432C46.6122 73.8543 46.5358 73.4978 46.5981 73.1521C46.6604 72.8064 46.8564 72.4998 47.1429 72.2998C49.6707 70.5358 49.7669 69.7155 50.0731 67.2812C50.1343 66.8138 50.1955 66.311 50.283 65.7554C50.6387 64.134 50.4478 62.4393 49.7407 60.9396C49.0675 59.7227 47.9454 58.8226 46.6181 58.4347C45.745 58.1834 44.8408 58.0587 43.9328 58.0643C43.0832 58.0327 42.2366 58.183 41.4488 58.5053H41.3526C40.0023 58.921 38.8544 59.83 38.1338 61.0543C37.3553 62.3949 37.4778 64.2118 37.609 65.967C37.609 66.311 37.6877 66.6991 37.7227 67.0695C37.9938 69.7156 38.09 70.6593 40.6966 72.3616C40.9349 72.5168 41.1168 72.7457 41.2152 73.014C41.3136 73.2822 41.3232 73.5755 41.2424 73.8497C41.1616 74.1239 40.9948 74.3643 40.7671 74.5349C40.5394 74.7055 40.263 74.7971 39.9793 74.7959L39.9181 74.8488Z" fill="#1589C9"/>
<path d="M83.7131 84.9918C83.4911 84.9928 83.2726 84.9367 83.0781 84.8286C82.8837 84.7206 82.7199 84.5642 82.6022 84.3744C81.8325 83.1308 80.5292 81.5168 79.3834 81.0405L73.4881 78.6326C71.4307 79.3871 69.2573 79.7693 67.068 79.7616C64.667 79.7977 62.2845 79.3322 60.0706 78.3945C59.9072 78.3254 59.7594 78.2236 59.6361 78.0953C59.5128 77.9671 59.4165 77.8149 59.3531 77.6481C59.2896 77.4813 59.2603 77.3033 59.267 77.1248C59.2736 76.9463 59.3161 76.7709 59.3917 76.6094C59.4674 76.4479 59.5747 76.3035 59.7073 76.1849C59.8398 76.0663 59.9947 75.976 60.1628 75.9195C60.3308 75.8629 60.5085 75.8413 60.6851 75.8558C60.8617 75.8704 61.0335 75.9209 61.1902 76.0042C64.9529 77.486 69.1307 77.486 72.8933 76.0042C73.0591 75.9324 73.2377 75.8954 73.4182 75.8954C73.5986 75.8954 73.7771 75.9324 73.9429 76.0042L80.3543 78.6502C82.471 79.5322 84.1679 82.0107 84.7977 83.0603C84.8897 83.2073 84.952 83.3712 84.9811 83.5426C85.0103 83.714 85.0056 83.8895 84.9674 84.0591C84.9293 84.2286 84.8583 84.3889 84.7586 84.5308C84.659 84.6727 84.5325 84.7934 84.3866 84.886C84.1755 84.9813 83.9429 85.0179 83.7131 84.9918Z" fill="#1589C9"/>
<path d="M63.1145 74.6724C62.8602 74.6729 62.6111 74.5994 62.3972 74.4607C58.7411 72.0529 58.5312 70.0507 58.2425 67.2018C58.2425 66.849 58.1726 66.4786 58.1288 66.0817C57.9801 64.0619 57.8052 61.6717 59.0035 59.6166C60.0353 57.837 61.6834 56.505 63.6305 55.8769C64.7451 55.4392 65.9333 55.2236 67.1292 55.2419C68.268 55.2187 69.3993 55.4319 70.453 55.8681C72.4356 56.4612 74.1071 57.8173 75.1063 59.6431C76.0738 61.6495 76.3626 63.9204 75.9285 66.1082C75.8497 66.655 75.7885 67.1313 75.736 67.5723C75.3774 70.4829 75.0363 72.1058 71.695 74.4431C71.4085 74.6431 71.055 74.7201 70.7122 74.6573C70.3693 74.5944 70.0653 74.3968 69.867 74.1079C69.6686 73.819 69.5922 73.4625 69.6545 73.1168C69.7169 72.7711 69.9128 72.4645 70.1993 72.2645C72.7271 70.5005 72.8234 69.6803 73.1295 67.2459C73.1907 66.7785 73.252 66.2757 73.3394 65.7201C73.6951 64.0987 73.5042 62.404 72.7971 60.9043C72.1239 59.6874 71.0019 58.7873 69.6745 58.3994C69.584 58.3764 69.496 58.3439 69.4121 58.3024C68.6896 58.0004 67.9109 57.859 67.1292 57.8879C66.2809 57.8732 65.4376 58.0229 64.6452 58.3289H64.5402C63.1936 58.747 62.0475 59.6515 61.3214 60.8691C60.5429 62.2185 60.6741 64.0266 60.7966 65.7818C60.8403 66.1346 60.8841 66.5227 60.919 66.8843C61.1814 69.5303 61.2864 70.4829 63.8929 72.1763C64.1272 72.3331 64.3054 72.5615 64.4012 72.8281C64.497 73.0947 64.5054 73.3852 64.425 73.6569C64.3447 73.9286 64.1799 74.1671 63.955 74.3372C63.7301 74.5074 63.4569 74.6001 63.1757 74.6018L63.1145 74.6724Z" fill="#1589C9"/>
<path d="M21.6374 53.2133H21.4275C21.2222 53.1802 21.0278 53.0981 20.8604 52.9738C20.6931 52.8495 20.5576 52.6867 20.4653 52.4989L16.9666 45.5222H10.2754C9.76309 45.5222 9.25581 45.4205 8.78251 45.2228C8.30921 45.0251 7.87916 44.7353 7.51692 44.37C7.15467 44.0048 6.86732 43.5711 6.67127 43.0938C6.47522 42.6166 6.37432 42.1051 6.37432 41.5885V6.93457C6.3636 6.41502 6.45717 5.89864 6.64942 5.41649C6.84167 4.93434 7.12862 4.49637 7.49303 4.12891C7.85743 3.76145 8.29177 3.4721 8.76991 3.27824C9.24805 3.08438 9.76015 2.99002 10.2754 3.00083H78.7712C79.2864 2.99618 79.7974 3.09448 80.2748 3.29008C80.7521 3.48569 81.1863 3.7747 81.5523 4.14045C81.9182 4.5062 82.2087 4.94142 82.4069 5.421C82.6052 5.90058 82.7072 6.415 82.7072 6.93457V41.5708C82.7179 42.0904 82.6244 42.6068 82.4321 43.0889C82.2399 43.5711 81.9529 44.009 81.5885 44.3765C81.2241 44.7439 80.7898 45.0333 80.3116 45.2272C79.8335 45.421 79.3214 45.5154 78.8062 45.5046H71.9749L68.4762 52.4812C68.3846 52.6695 68.2493 52.8327 68.0818 52.9571C67.9143 53.0814 67.7196 53.1632 67.5141 53.1956C67.3125 53.22 67.108 53.1968 66.9167 53.128C66.7255 53.0591 66.5527 52.9464 66.412 52.7987L59.2921 45.4869H51.5425L45.5248 52.7194C45.3977 52.8612 45.2425 52.9746 45.0692 53.0522C44.8959 53.1298 44.7085 53.1698 44.5189 53.1698C44.3293 53.1698 44.1419 53.1298 43.9686 53.0522C43.7953 52.9746 43.6401 52.8612 43.513 52.7194L37.5477 45.5046H29.8419L22.582 52.8252C22.4577 52.9494 22.3102 53.0476 22.1481 53.1142C21.986 53.1808 21.8124 53.2145 21.6374 53.2133ZM29.2733 42.8586H38.1425C38.3346 42.8583 38.5244 42.9008 38.6983 42.9832C38.8722 43.0655 39.0259 43.1856 39.1484 43.3348L44.5451 49.8352L49.9594 43.3348C50.0805 43.1863 50.2327 43.0665 50.4051 42.9842C50.5775 42.9019 50.7658 42.859 50.9565 42.8586H59.8257C60 42.8592 60.1724 42.8946 60.333 42.9627C60.4936 43.0308 60.6393 43.1303 60.7616 43.2555L66.9805 49.6412L69.9807 43.5906C70.0886 43.3703 70.2557 43.1849 70.4628 43.0555C70.67 42.9261 70.909 42.8579 71.1528 42.8586H78.7974C78.9681 42.8703 79.1393 42.845 79.2995 42.7845C79.4597 42.7239 79.6052 42.6294 79.7262 42.5074C79.8472 42.3854 79.9409 42.2387 80.0009 42.0772C80.061 41.9156 80.0861 41.743 80.0744 41.5708V6.93457C80.0721 6.59376 79.9369 6.26756 79.6979 6.02656C79.4589 5.78557 79.1354 5.64915 78.7974 5.64684H10.3104C10.1397 5.63511 9.96844 5.66037 9.80823 5.72094C9.64801 5.7815 9.50253 5.87596 9.38154 5.99796C9.26055 6.11996 9.16688 6.26667 9.10682 6.42823C9.04675 6.58978 9.02169 6.76243 9.03333 6.93457V41.5708C9.03562 41.9116 9.17091 42.2378 9.4099 42.4788C9.64889 42.7198 9.97238 42.8562 10.3104 42.8586H17.8151C18.0588 42.8579 18.2978 42.9261 18.505 43.0555C18.7121 43.1849 18.8792 43.3703 18.9871 43.5906L21.996 49.6588L28.3462 43.2466C28.5936 43.0009 28.926 42.8617 29.2733 42.8586Z" fill="#1589C9"/>
<path d="M68.9223 37.2578H66.2983V31.6307H65.5373C65.0531 31.6131 64.5837 31.457 64.1842 31.1806C63.7846 30.9042 63.4712 30.5188 63.2807 30.0695L61.2339 25.2802C60.9823 24.8044 60.8965 24.2571 60.99 23.7262C61.0836 23.1952 61.3512 22.7113 61.75 22.352L62.2485 21.8492L57.0005 16.5572L56.4932 17.0688C56.1403 17.4674 55.665 17.7353 55.1434 17.8296C54.6218 17.924 54.0838 17.8393 53.6155 17.5892L48.9885 15.5958C48.4848 15.4519 48.0437 15.1415 47.736 14.7144C47.4283 14.2873 47.2718 13.7684 47.2916 13.2409V12.4912H40.3642V13.2321C40.3709 13.7778 40.2049 14.3114 39.8903 14.7555C39.5757 15.1996 39.1289 15.5311 38.6148 15.7017L33.9528 17.7126C33.4822 17.9657 32.941 18.0519 32.4159 17.9576C31.8909 17.8632 31.4126 17.5937 31.0576 17.1923L30.5591 16.6895L25.311 21.9815L25.8096 22.4931C26.2077 22.847 26.476 23.3258 26.5712 23.8522C26.6664 24.3787 26.583 24.9221 26.3344 25.3949L24.3489 30.0607C24.2093 30.5687 23.9034 31.0141 23.4811 31.3248C23.0587 31.6354 22.5446 31.7929 22.0223 31.7718H21.2875V37.2755H18.6635V31.6307C18.6635 30.9523 18.9307 30.3017 19.4064 29.822C19.8821 29.3423 20.5273 29.0728 21.2001 29.0728H21.8911L23.9116 24.31L23.3955 23.7896C23.1256 23.5242 22.9156 23.2033 22.7797 22.8487C22.6439 22.494 22.5854 22.114 22.6083 21.7346C22.633 21.4123 22.7234 21.0987 22.8739 20.8134C23.0244 20.528 23.2318 20.2771 23.483 20.0764L28.731 14.7844C28.9942 14.5122 29.3125 14.3004 29.6642 14.1634C30.0159 14.0265 30.3927 13.9675 30.769 13.9906C31.0886 14.0155 31.3996 14.1067 31.6825 14.2584C31.9655 14.4102 32.2143 14.6193 32.4134 14.8726L32.877 15.3401L37.6002 13.2938C37.6553 13.2768 37.7082 13.2531 37.7577 13.2233V12.403C37.76 11.7238 38.0292 11.0732 38.5062 10.5938C38.9833 10.1144 39.6294 9.84517 40.303 9.84518H47.2566C47.6007 9.82852 47.9446 9.88222 48.2676 10.0031C48.5906 10.1239 48.886 10.3094 49.136 10.5483C49.386 10.7873 49.5856 11.0748 49.7226 11.3935C49.8595 11.7122 49.9312 12.0556 49.9331 12.403V13.1086L54.6564 15.146L55.1724 14.6256C55.4356 14.3535 55.7539 14.1417 56.1056 14.0047C56.4573 13.8677 56.8341 13.8087 57.2104 13.8318C57.53 13.8567 57.841 13.9479 58.124 14.0997C58.4069 14.2514 58.6557 14.4605 58.8548 14.7138L64.1029 20.0059C64.3728 20.2713 64.5828 20.5922 64.7187 20.9468C64.8545 21.3015 64.913 21.6815 64.8901 22.0609C64.8654 22.3832 64.775 22.6968 64.6245 22.9821C64.4739 23.2675 64.2666 23.5184 64.0154 23.7191L63.5518 24.1866L65.5811 28.9494H66.412C67.0847 28.9494 67.7299 29.2188 68.2056 29.6985C68.6813 30.1782 68.9486 30.8288 68.9486 31.5072L68.9223 37.2578Z" fill="#1589C9"/>
<path d="M58.1463 37.2578H55.5223V35.9348C55.5223 32.8564 54.3096 29.9041 52.1509 27.7273C49.9922 25.5506 47.0644 24.3277 44.0116 24.3277C40.9588 24.3277 38.031 25.5506 35.8723 27.7273C33.7136 29.9041 32.5009 32.8564 32.5009 35.9348V37.2578H29.8768V35.9348C29.8768 32.1547 31.366 28.5293 34.0168 25.8563C36.6676 23.1833 40.2628 21.6817 44.0116 21.6817C47.7604 21.6817 51.3556 23.1833 54.0063 25.8563C56.6571 28.5293 58.1463 32.1547 58.1463 35.9348V37.2578Z" fill="#1589C9"/>
</svg>
