<svg width="24" height="24" viewBox="0 0 24 24" fill="none" xmlns="http://www.w3.org/2000/svg">
<path fill-rule="evenodd" clip-rule="evenodd" d="M1.64987 10.4709C8.09231 7.36615 12.3883 5.31934 14.5378 4.33042C20.675 1.50685 21.9503 1.01637 22.7815 1.00017C22.9643 0.996611 23.3731 1.04673 23.6379 1.28437C23.8614 1.48504 23.9229 1.75611 23.9524 1.94636C23.9818 2.13661 24.0185 2.57001 23.9893 2.90866C23.6568 6.7739 22.2177 16.1538 21.4856 20.483C21.1758 22.3148 20.5658 22.929 19.9753 22.9891C18.6919 23.1197 17.7174 22.051 16.4744 21.1497C14.5294 19.7394 13.4305 18.8615 11.5425 17.4853C9.36064 15.8949 10.7751 15.0208 12.0185 13.5922C12.344 13.2184 17.9985 7.52943 18.1079 7.01335C18.1216 6.94881 18.1343 6.70822 18.0051 6.58118C17.8759 6.45414 17.6851 6.49758 17.5475 6.53213C17.3524 6.5811 14.2452 8.85279 8.22584 13.3472C7.34386 14.0171 6.545 14.3435 5.82924 14.3264C5.04018 14.3075 3.52233 13.8329 2.39397 13.4272C1.00999 12.9296 -0.0899676 12.6665 0.00581422 11.8214C0.0557033 11.3812 0.603723 10.931 1.64987 10.4709Z" fill="url(#paint0_linear_4003_18)"/>
<defs>
<linearGradient id="paint0_linear_4003_18" x1="12" y1="1" x2="12" y2="23" gradientUnits="userSpaceOnUse">
<stop stop-color="#2AABEE"/>
<stop offset="1" stop-color="#229ED9"/>
</linearGradient>
</defs>
</svg>
