<svg width="29" height="32" viewBox="0 0 29 32" fill="none" xmlns="http://www.w3.org/2000/svg">
<path d="M9.32557 27.4234C8.86186 27.2421 8.44452 27.0609 8.02718 26.8796C7.14613 26.4718 6.35782 26.0187 5.66226 25.4749C4.17838 24.3874 2.97273 23.0281 2.04531 21.4874C1.11789 19.9468 0.468694 18.1796 0.190468 16.3671C0.0977254 15.778 0.0513543 15.1889 0.00498322 14.5999C-0.087759 11.0655 1.11789 7.7123 3.29733 5.12947C5.47677 2.54664 8.58363 0.734123 12.2006 0.190368C12.8034 0.0997427 13.4062 0.0544299 14.0091 0.00911701C16.4667 -0.0815087 18.9708 0.507559 21.1502 1.59507C23.3296 2.68258 25.2309 4.26853 26.5756 6.26229C27.874 8.16543 28.6159 10.2951 28.8942 12.4702C29.1724 14.6905 28.8942 17.0014 28.1522 19.2218C27.1784 22.0765 25.6482 24.3874 23.6542 26.2C21.6603 28.0125 19.249 29.3719 16.4667 30.414C15.2147 30.8672 13.9163 31.2297 12.5715 31.4562C11.2268 31.7281 9.83565 31.8641 8.39815 31.9094L5.84774 32L7.47073 30.0515C8.11992 29.2359 8.76912 28.375 9.32557 27.4234ZM9.04735 24.8406C9.51106 25.0671 9.97477 25.2484 10.4385 25.4296C11.505 23.2999 12.247 20.9437 12.5252 18.6327C12.9425 15.1889 12.2933 11.7451 10.0675 8.98106C9.23283 7.89356 8.30541 7.25918 7.33161 7.03261C5.15217 6.53417 4.08564 7.57637 3.29733 9.38888C2.60176 10.9295 2.27717 12.6967 2.32354 14.5545C2.32354 15.053 2.36991 15.5514 2.46265 16.0499C2.69451 17.5905 3.25096 19.0405 4.03927 20.3546C4.82758 21.6234 5.84774 22.7562 7.05339 23.6624C7.70258 24.1156 8.35178 24.5234 9.04735 24.8406ZM12.5715 2.4107C10.4848 2.72789 8.63001 3.54352 7.09976 4.67634C7.37799 4.67634 7.65621 4.72165 7.93444 4.81228C9.41831 5.12947 10.7631 6.08104 11.9687 7.57637C14.6119 10.8842 15.4002 14.917 14.9365 18.9046C14.4728 22.6656 12.9425 26.3812 10.8558 29.4625C11.3195 29.4172 11.7832 29.3265 12.2006 29.2359C13.4062 29.0094 14.6119 28.6922 15.7248 28.2843C18.2288 27.3781 20.4083 26.1546 22.124 24.5687C23.8397 22.9827 25.1845 20.989 26.0192 18.4968C26.6684 16.6389 26.9002 14.6452 26.6684 12.742C26.4365 10.8842 25.7873 9.117 24.7208 7.53105C23.6079 5.85448 21.9849 4.5404 20.1764 3.63415C18.3216 2.72789 16.2349 2.22945 14.1482 2.32007C13.5453 2.27476 13.0353 2.32007 12.5715 2.4107Z" fill="white"/>
</svg>
