<svg width="37" height="43" viewBox="0 0 37 43" fill="none" xmlns="http://www.w3.org/2000/svg">
<path d="M11.8981 36.8502C11.3065 36.6066 10.774 36.3631 10.2416 36.1195C9.11748 35.5715 8.1117 34.9626 7.22426 34.232C5.33104 32.7706 3.7928 30.9439 2.60953 28.8737C1.42627 26.8035 0.597989 24.4288 0.24301 21.9932C0.124684 21.2017 0.065521 20.4101 0.0063579 19.6186C-0.111968 14.8692 1.42627 10.3634 4.20694 6.89273C6.98761 3.42204 10.9515 0.986478 15.5663 0.255808C16.3354 0.134029 17.1045 0.0731401 17.8736 0.012251C21.0093 -0.109527 24.2041 0.682032 26.9847 2.14337C29.7654 3.60471 32.1911 5.73583 33.9068 8.41496C35.5634 10.9723 36.51 13.8341 36.865 16.7568C37.22 19.7403 36.865 22.8457 35.9184 25.8293C34.6759 29.6653 32.7236 32.7706 30.1795 35.2062C27.6355 37.6418 24.559 39.4684 21.0093 40.8689C19.4119 41.4778 17.7553 41.9649 16.0396 42.2693C14.3238 42.6347 12.5489 42.8173 10.7149 42.8782L7.46091 43L9.53162 40.3818C10.3599 39.2858 11.1882 38.1289 11.8981 36.8502ZM11.5432 33.3795C12.1348 33.684 12.7264 33.9275 13.3181 34.1711C14.6788 31.3093 15.6254 28.143 15.9804 25.0377C16.5129 20.4101 15.6846 15.7825 12.8448 12.0683C11.7798 10.607 10.5966 9.75452 9.35413 9.45007C6.57346 8.78029 5.21271 10.1807 4.20694 12.6163C3.31949 14.6865 2.90535 17.0612 2.96451 19.5577C2.96451 20.2275 3.02368 20.8972 3.142 21.567C3.43782 23.6372 4.14778 25.5857 5.15355 27.3515C6.15932 29.0564 7.46091 30.5786 8.99915 31.7964C9.82743 32.4053 10.6557 32.9533 11.5432 33.3795ZM16.0396 3.23938C13.3772 3.6656 11.0107 4.76161 9.05831 6.28383C9.41329 6.28383 9.76827 6.34472 10.1233 6.4665C12.0165 6.89273 13.7322 8.1714 15.2704 10.1807C18.6427 14.6257 19.6485 20.0448 19.0569 25.403C18.4652 30.4568 16.5129 35.4497 13.8505 39.5902C14.4422 39.5293 15.0338 39.4075 15.5663 39.2858C17.1045 38.9813 18.6427 38.5551 20.0627 38.0071C23.2575 36.7893 26.0381 35.1453 28.2272 33.0142C30.4162 30.8831 32.1319 28.2039 33.1969 24.855C34.0251 22.3586 34.321 19.6795 34.0251 17.1221C33.7293 14.6257 32.901 12.251 31.5403 10.1199C30.1204 7.86695 28.0497 6.10117 25.7423 4.88338C23.3758 3.6656 20.7134 2.99582 18.0511 3.1176C17.282 3.05671 16.6312 3.1176 16.0396 3.23938Z" fill="#1589C9"/>
</svg>
