<svg width="196" height="43" viewBox="0 0 196 43" fill="none" xmlns="http://www.w3.org/2000/svg">
<path d="M58.8362 14.4478V17.4328H51.0655V26.6866H48V14.4478H58.8362ZM67.3911 14.4478C70.2428 14.4478 72.3102 16.4627 72.3102 19.3731C72.3102 22.2836 70.1715 24.1493 67.3911 24.1493H63.4701V26.7612H60.3333V14.4478H67.3911ZM63.5414 21.0896H67.2486C68.3892 21.0896 69.1734 20.5672 69.1734 19.2239C69.1734 18.0299 68.4605 17.3582 67.2486 17.3582H63.5414V21.0896ZM82.2197 14.4478L87.1387 26.7612H83.8593L83.1464 24.8955H76.5877L75.9461 26.6866H72.5954L77.7283 14.3731C77.657 14.4478 82.2197 14.4478 82.2197 14.4478ZM77.7996 22.0597H81.9345L80.2235 17.2836H79.7245L77.7996 22.0597ZM91.9865 14.4478V19H97.7611V14.4478H100.898V26.7612H97.7611V21.9104H91.9865V26.7612H88.8497V14.4478H91.9865ZM115.37 14.4478V23.8507H116.724V29H114.015L113.802 26.6866H105.674L105.461 29H102.751V23.8507H104.249L105.96 14.4478C105.817 14.4478 115.37 14.4478 115.37 14.4478ZM107.243 23.7015H112.162V17.209H108.241L107.243 23.7015ZM125.066 19V21.8358H118.293V19H125.066ZM138.54 14.4478V26.7612H135.403V17.2836H129.913V26.6866H126.848V14.4478H138.54ZM147.094 26.9851C143.601 26.9851 140.464 24.4478 140.464 20.4925C140.464 16.6119 143.53 14 147.094 14C150.659 14 153.724 16.5373 153.724 20.4925C153.582 24.3731 150.516 26.9851 147.094 26.9851ZM147.094 24.2985C149.091 24.2985 150.588 22.8806 150.588 20.6418C150.588 18.403 149.019 16.9851 147.094 16.9851C145.098 16.9851 143.601 18.403 143.601 20.6418C143.459 22.7313 145.098 24.2985 147.094 24.2985ZM167.698 14.4478V26.7612H164.561V17.4328H160.782L159.642 23.6269C159.356 25.9403 157.931 26.8358 155.935 26.8358H154.366V23.8507H155.935C156.362 23.8507 156.647 23.6269 156.647 23.1791L158.216 14.597L167.698 14.4478ZM172.83 14.4478V22.1343L179.033 14.4478H181.956V26.7612H178.89V19L172.688 26.6866H169.622V14.4478H172.83ZM191.58 14.4478C193.719 14.4478 195.287 15.791 195.287 17.8806C195.287 18.6269 195.002 19.4478 194.432 19.7463C195.501 20.2687 196 21.3134 196 22.806C196 24.8955 194.289 26.6866 192.079 26.6866H183.881V14.4478H191.58ZM187.16 19H191.723C192.008 19 192.364 18.5522 192.364 18.2537C192.364 17.9552 192.15 17.5075 191.651 17.5075H187.303L187.16 19ZM187.16 23.7015H192.222C192.721 23.7015 193.077 23.403 193.077 22.7313C193.077 22.209 192.649 21.7612 192.15 21.7612H187.231V23.7015H187.16Z" fill="#222222"/>
<path d="M11.8981 36.8502C11.3065 36.6066 10.774 36.3631 10.2416 36.1195C9.11748 35.5715 8.1117 34.9626 7.22426 34.232C5.33104 32.7706 3.7928 30.9439 2.60953 28.8737C1.42627 26.8035 0.597989 24.4288 0.24301 21.9932C0.124684 21.2017 0.065521 20.4101 0.0063579 19.6186C-0.111968 14.8692 1.42627 10.3634 4.20694 6.89273C6.98761 3.42204 10.9515 0.986478 15.5663 0.255808C16.3354 0.134029 17.1045 0.0731401 17.8736 0.012251C21.0093 -0.109527 24.2041 0.682032 26.9847 2.14337C29.7654 3.60471 32.1911 5.73583 33.9068 8.41496C35.5634 10.9723 36.51 13.8341 36.865 16.7568C37.22 19.7403 36.865 22.8457 35.9184 25.8293C34.6759 29.6653 32.7236 32.7706 30.1795 35.2062C27.6355 37.6418 24.559 39.4684 21.0093 40.8689C19.4119 41.4778 17.7553 41.9649 16.0396 42.2693C14.3238 42.6347 12.5489 42.8173 10.7149 42.8782L7.46091 43L9.53162 40.3818C10.3599 39.2858 11.1882 38.1289 11.8981 36.8502ZM11.5432 33.3795C12.1348 33.684 12.7264 33.9275 13.3181 34.1711C14.6788 31.3093 15.6254 28.143 15.9804 25.0377C16.5129 20.4101 15.6846 15.7825 12.8448 12.0683C11.7798 10.607 10.5966 9.75452 9.35413 9.45007C6.57346 8.78029 5.21271 10.1807 4.20694 12.6163C3.31949 14.6865 2.90535 17.0612 2.96451 19.5577C2.96451 20.2275 3.02368 20.8972 3.142 21.567C3.43782 23.6372 4.14778 25.5857 5.15355 27.3515C6.15932 29.0564 7.46091 30.5786 8.99915 31.7964C9.82743 32.4053 10.6557 32.9533 11.5432 33.3795ZM16.0396 3.23938C13.3772 3.6656 11.0107 4.76161 9.05831 6.28383C9.41329 6.28383 9.76827 6.34472 10.1233 6.4665C12.0165 6.89273 13.7322 8.1714 15.2704 10.1807C18.6427 14.6257 19.6485 20.0448 19.0569 25.403C18.4652 30.4568 16.5129 35.4497 13.8505 39.5902C14.4422 39.5293 15.0338 39.4075 15.5663 39.2858C17.1045 38.9813 18.6427 38.5551 20.0627 38.0071C23.2575 36.7893 26.0381 35.1453 28.2272 33.0142C30.4162 30.8831 32.1319 28.2039 33.1969 24.855C34.0251 22.3586 34.321 19.6795 34.0251 17.1221C33.7293 14.6257 32.901 12.251 31.5403 10.1199C30.1204 7.86695 28.0497 6.10117 25.7423 4.88338C23.3758 3.6656 20.7134 2.99582 18.0511 3.1176C17.282 3.05671 16.6312 3.1176 16.0396 3.23938Z" fill="#1589C9"/>
</svg>
