<svg width="121" height="50" viewBox="0 0 121 50" fill="none" xmlns="http://www.w3.org/2000/svg">
<path d="M14.1491 42.8491C13.4456 42.5659 12.8124 42.2826 12.1792 41.9994C10.8424 41.3622 9.64635 40.6542 8.59101 39.8046C6.33961 38.1054 4.51035 35.9813 3.10323 33.5741C1.69611 31.1668 0.711122 28.4056 0.288985 25.5735C0.148273 24.6531 0.0779169 23.7327 0.00756074 22.8123C-0.133152 17.2898 1.69611 12.0505 5.00285 8.0148C8.30958 3.97912 13.0234 1.14707 18.5112 0.297451C19.4259 0.155848 20.3405 0.0850467 21.2551 0.0142453C24.984 -0.127357 28.7832 0.79306 32.09 2.49229C35.3967 4.19153 38.2813 6.66957 40.3216 9.78483C42.2916 12.7585 43.4173 16.0862 43.8394 19.4846C44.2616 22.9539 43.8394 26.5648 42.7137 30.034C41.2363 34.4945 38.9145 38.1054 35.8892 40.9374C32.8639 43.7695 29.2054 45.8935 24.984 47.5219C23.0844 48.23 21.1144 48.7964 19.0741 49.1504C17.0337 49.5752 14.9231 49.7876 12.742 49.8584L8.87243 50L11.3349 46.9555C12.3199 45.6811 13.3049 44.3359 14.1491 42.8491ZM13.727 38.8134C14.4306 39.1674 15.1341 39.4506 15.8377 39.7338C17.4559 36.4061 18.5816 32.7245 19.0037 29.1136C19.6369 23.7327 18.6519 18.3518 15.2748 14.0329C14.0084 12.3337 12.6013 11.3425 11.1238 10.9885C7.81709 10.2096 6.1989 11.8381 5.00285 14.6701C3.9475 17.0774 3.45501 19.8386 3.52537 22.7415C3.52537 23.5203 3.59572 24.2991 3.73644 25.0779C4.08822 27.4852 4.93249 29.7508 6.12854 31.8041C7.3246 33.7865 8.87243 35.5565 10.7017 36.9726C11.6867 37.6806 12.6717 38.3178 13.727 38.8134ZM19.0741 3.76672C15.908 4.26233 13.0938 5.53675 10.772 7.30678C11.1942 7.30678 11.6163 7.37759 12.0385 7.51919C14.2899 8.0148 16.3302 9.50163 18.1594 11.8381C22.1697 17.0066 23.3658 23.3079 22.6622 29.5384C21.9587 35.4149 19.6369 41.2206 16.4709 46.0351C17.1745 45.9643 17.878 45.8227 18.5112 45.6811C20.3405 45.3271 22.1697 44.8315 23.8583 44.1943C27.6575 42.7783 30.9643 40.8666 33.5674 38.3886C36.1706 35.9105 38.2109 32.7953 39.4773 28.9012C40.4623 25.9983 40.8141 22.8831 40.4623 19.9094C40.1106 17.0066 39.1256 14.2453 37.5074 11.7673C35.8188 9.14762 33.3564 7.09438 30.6125 5.67835C27.7982 4.26233 24.6322 3.48351 21.4662 3.62511C20.5515 3.55431 19.7776 3.62511 19.0741 3.76672Z" fill="#1589C9"/>
<path d="M14.1964 42.6917C13.5611 42.3739 12.8199 42.1621 12.1846 41.8443C10.9111 41.2289 9.7047 40.4835 8.58444 39.6201C6.34566 37.9307 4.47256 35.8048 3.07837 33.3709C1.61521 30.9355 0.643894 28.2366 0.219447 25.4271C0.100273 24.5135 0.0295832 23.5943 0.00767518 22.6732C-0.131747 17.3305 1.63216 12.1123 4.98432 7.95062C8.38995 3.78441 13.2191 1.02947 18.5377 0.218623C19.4506 0.0954164 20.3698 0.0246883 21.2908 0.00678731C25.0706 -0.0847955 28.8152 0.751638 32.197 2.4429C35.5469 4.10672 38.3966 6.62832 40.4561 9.75123C42.4361 12.6463 43.6393 16.0017 43.9504 19.4957C44.3575 23.0341 43.9593 26.6188 42.7856 29.9815C41.4557 34.1441 39.087 37.8989 35.903 40.8911C32.756 43.8047 29.0438 46.04 24.9968 47.458C23.0695 48.1828 21.0864 48.7496 19.0672 49.1527C16.9725 49.5684 14.8481 49.8163 12.714 49.8941L8.79621 50L11.2316 47.0343C12.3269 45.6628 13.3179 44.2112 14.1964 42.6917ZM13.7729 38.6668C14.4082 38.9845 15.1494 39.3023 15.8906 39.6201C17.5061 36.281 18.5785 32.7054 19.0672 29.0283C19.7025 23.6265 18.7495 18.3306 15.3611 13.9879C14.3967 12.5244 12.9262 11.4684 11.2316 11.0222C7.94913 10.2808 6.25495 11.8696 5.0902 14.6234C4.01636 17.1699 3.4758 19.9096 3.50191 22.6732C3.51991 23.4538 3.59066 24.2323 3.71369 25.0034C4.04509 27.3748 4.87512 29.649 6.14906 31.6762C7.32193 33.7132 8.90914 35.4813 10.808 36.8662C11.7325 37.5657 12.7259 38.169 13.7729 38.6668ZM19.173 3.71391C16.1169 4.15838 13.2317 5.40047 10.808 7.31512C11.2386 7.33373 11.6653 7.40487 12.0787 7.52695C14.5485 8.19821 16.7151 9.6929 18.2201 11.7637C22.2437 16.9536 23.4085 23.2028 22.6673 29.4519C21.8994 35.3384 19.7595 40.9619 16.42 45.8692C17.1612 45.7633 17.7965 45.6574 18.4318 45.5514C20.2756 45.2332 22.0842 44.7365 23.832 44.0686C27.4531 42.8347 30.7727 40.8495 33.5735 38.2431C36.3216 35.6583 38.3629 32.4132 39.5032 28.8164C40.4456 25.9149 40.7703 22.8481 40.4561 19.8134C40.1405 16.8101 39.0726 13.935 37.3514 11.4542C35.6301 8.97328 33.311 6.96681 30.6087 5.62043C27.7701 4.13682 24.598 3.4074 21.3966 3.50208C20.6514 3.52012 19.9083 3.59091 19.173 3.71391Z" fill="#0088CC"/>
<path d="M63.2745 9.0098V11.8696H55.5978V20.6608H52.5271V9.0098H63.2745ZM71.7454 9.0098C72.3781 8.96695 73.0128 9.05648 73.6091 9.27269C74.2053 9.48889 74.7499 9.82703 75.2082 10.2655C75.6665 10.704 76.0284 11.2333 76.2708 11.8195C76.5132 12.4057 76.6308 13.036 76.6161 13.6702C76.6161 16.424 74.4984 18.1187 71.7454 18.1187H67.9335V20.6608H64.7569V9.0098H71.7454ZM68.0394 15.259H71.6395C72.8043 15.259 73.5454 14.7294 73.5454 13.4583C73.5612 13.2086 73.5219 12.9583 73.4301 12.7255C73.3384 12.4926 73.1965 12.2828 73.0146 12.1109C72.8327 11.9391 72.6152 11.8094 72.3775 11.7311C72.1399 11.6527 71.8879 11.6277 71.6395 11.6577H68.0394V15.259ZM86.4635 9.0098L91.3343 20.6608H88.0518L87.3106 18.8602H80.8516L80.2163 20.5548H76.9338L82.0163 8.90388C82.0163 9.0098 86.4635 9.0098 86.4635 9.0098ZM82.1222 16.2122H86.1459L84.4517 11.7637H83.9223L82.1222 16.2122ZM96.205 9.0098V13.2465H101.923V9.0098H105.099V20.6608H101.923V16.1063H96.205V20.6608H93.0285V9.0098H96.205ZM119.288 9.0098V17.9069H120.665V22.7791H117.912L117.7 20.5548H109.653L109.441 22.7791H106.688V17.9069H108.17L109.864 9.0098H119.288ZM111.241 17.801H116.112V11.6577H112.3L111.241 17.801ZM64.1216 28.6258V40.2767H60.945V31.2525H55.5978V40.1496H52.5271V28.6258H64.1216ZM72.5925 40.4886C71.7546 40.5314 70.9167 40.4049 70.1287 40.1167C69.3407 39.8285 68.6189 39.3845 68.0062 38.8111C67.3935 38.2378 66.9025 37.5469 66.5626 36.7796C66.2226 36.0124 66.0407 35.1845 66.0275 34.3453C66.0549 33.5106 66.2465 32.6895 66.5913 31.9289C66.9361 31.1683 67.4274 30.4831 68.0371 29.9126C68.6468 29.3421 69.3629 28.8973 70.1446 28.6038C70.9262 28.3103 71.758 28.1738 72.5925 28.2021C73.4304 28.1593 74.2683 28.2858 75.0563 28.574C75.8442 28.8622 76.5661 29.3062 77.1788 29.8796C77.7915 30.4529 78.2824 31.1438 78.6224 31.9111C78.9623 32.6783 79.1443 33.5062 79.1574 34.3453C79.0804 36.0236 78.3509 37.6053 77.1244 38.753C75.8979 39.9007 74.2716 40.5235 72.5925 40.4886ZM72.5925 37.8406C73.0574 37.8634 73.5218 37.7885 73.9561 37.6209C74.3903 37.4533 74.7847 37.1966 75.1138 36.8674C75.4429 36.5382 75.6995 36.1437 75.867 35.7094C76.0346 35.275 76.1094 34.8104 76.0867 34.3453C76.1014 33.8824 76.0211 33.4213 75.8507 32.9905C75.6803 32.5598 75.4234 32.1686 75.096 31.8411C74.7685 31.5135 74.3774 31.2566 73.9469 31.0861C73.5163 30.9157 73.0553 30.8353 72.5925 30.8501C72.1276 30.8273 71.6631 30.9022 71.2289 31.0698C70.7946 31.2374 70.4003 31.4941 70.0712 31.8233C69.7421 32.1525 69.4855 32.547 69.3179 32.9813C69.1504 33.4157 69.0755 33.8803 69.0982 34.3453C69.067 34.8124 69.136 35.2808 69.3005 35.719C69.4651 36.1573 69.7214 36.5552 70.0523 36.8863C70.3832 37.2173 70.7811 37.4737 71.2192 37.6383C71.6573 37.8029 72.1255 37.8719 72.5925 37.8406ZM93.0285 28.6258V40.2767H89.8519V31.3796H86.1459L84.9811 37.2051C84.9592 37.6479 84.847 38.0815 84.6515 38.4793C84.4559 38.8771 84.1811 39.2306 83.8439 39.5183C83.5068 39.806 83.1144 40.0217 82.6908 40.1521C82.2673 40.2825 81.8215 40.3249 81.381 40.2767H79.7927V37.417H81.381C81.8046 37.417 82.1222 37.2051 82.1222 36.7815L83.7105 28.6258H93.0285ZM98.111 28.6258V35.9341L104.252 28.6258H107.217V40.2767H104.147V32.8625L98.0051 40.1708H94.9344V28.6258H98.111ZM116.641 28.6258C117.099 28.5779 117.561 28.6275 117.998 28.7712C118.436 28.9149 118.837 29.1496 119.177 29.4597C119.517 29.7698 119.788 30.1484 119.971 30.5706C120.155 30.9928 120.247 31.449 120.241 31.9092C120.258 32.2558 120.19 32.6013 120.042 32.9152C119.894 33.2292 119.672 33.5021 119.394 33.7098C119.927 33.9862 120.364 34.4174 120.647 34.9467C120.931 35.476 121.048 36.0786 120.982 36.6755C120.971 37.1633 120.864 37.644 120.666 38.0899C120.468 38.5357 120.183 38.9378 119.829 39.2728C119.474 39.6077 119.056 39.869 118.6 40.0413C118.144 40.2137 117.658 40.2937 117.17 40.2767H109.017V28.6258H116.641ZM112.3 32.8625H116.747C117.065 32.8625 117.382 32.4388 117.382 32.1211C117.385 32.0229 117.368 31.9252 117.332 31.8339C117.296 31.7426 117.241 31.6597 117.172 31.5903C117.102 31.5208 117.019 31.4663 116.928 31.4301C116.837 31.3939 116.739 31.3767 116.641 31.3796H112.406L112.3 32.8625ZM112.3 37.417H117.276C117.806 37.417 118.123 37.0992 118.123 36.4637C118.123 36.2109 118.023 35.9684 117.844 35.7896C117.666 35.6109 117.423 35.5104 117.17 35.5104H112.3V37.417Z" fill="#333333"/>
</svg>
