<svg width="230" height="50" viewBox="0 0 230 50" fill="none" xmlns="http://www.w3.org/2000/svg">
<path d="M68.7399 7.50746V10.8905H59.604V21.3781H56V7.50746H68.7399ZM78.7977 7.50746C82.1503 7.50746 84.5809 9.79104 84.5809 13.0896C84.5809 16.3881 82.0665 18.5025 78.7977 18.5025H74.1879V21.4627H70.5V7.50746H78.7977ZM74.2717 15.0348H78.6301C79.9711 15.0348 80.8931 14.4428 80.8931 12.9204C80.8931 11.5672 80.0549 10.806 78.6301 10.806H74.2717V15.0348ZM96.2312 7.50746L102.014 21.4627H98.159L97.3208 19.3483H89.6098L88.8555 21.3781H84.9162L90.9509 7.42289C90.8671 7.50746 96.2312 7.50746 96.2312 7.50746ZM91.0347 16.1343H95.896L93.8844 10.7214H93.2977L91.0347 16.1343ZM107.714 7.50746V12.6667H114.503V7.50746H118.191V21.4627H114.503V15.9652H107.714V21.4627H104.026V7.50746H107.714ZM135.205 7.50746V18.1642H136.798V24H133.613L133.361 21.3781H123.806L123.555 24H120.37V18.1642H122.13L124.142 7.50746C123.974 7.50746 135.205 7.50746 135.205 7.50746ZM125.65 17.995H131.434V10.6368H126.824L125.65 17.995ZM146.604 12.6667V15.8806H138.642V12.6667H146.604ZM162.445 7.50746V21.4627H158.757V10.7214H152.303V21.3781H148.699V7.50746H162.445ZM172.503 21.7164C168.396 21.7164 164.708 18.8408 164.708 14.3582C164.708 9.9602 168.312 7 172.503 7C176.694 7 180.298 9.87562 180.298 14.3582C180.13 18.7562 176.526 21.7164 172.503 21.7164ZM172.503 18.6716C174.85 18.6716 176.61 17.0647 176.61 14.5274C176.61 11.99 174.766 10.3831 172.503 10.3831C170.156 10.3831 168.396 11.99 168.396 14.5274C168.228 16.8955 170.156 18.6716 172.503 18.6716ZM196.725 7.50746V21.4627H193.038V10.8905H188.595L187.254 17.9104C186.919 20.5323 185.243 21.5473 182.896 21.5473H181.052V18.1642H182.896C183.399 18.1642 183.734 17.9104 183.734 17.403L185.578 7.67662L196.725 7.50746ZM202.76 7.50746V16.2189L210.052 7.50746H213.488V21.4627H209.884V12.6667L202.592 21.3781H198.988V7.50746H202.76ZM224.803 7.50746C227.318 7.50746 229.162 9.02985 229.162 11.398C229.162 12.2438 228.827 13.1741 228.156 13.5124C229.413 14.1045 230 15.2886 230 16.9801C230 19.3483 227.988 21.3781 225.39 21.3781H215.751V7.50746H224.803ZM219.607 12.6667H224.971C225.306 12.6667 225.725 12.1592 225.725 11.8209C225.725 11.4826 225.474 10.9751 224.887 10.9751H219.775L219.607 12.6667ZM219.607 17.995H225.558C226.145 17.995 226.564 17.6567 226.564 16.8955C226.564 16.3035 226.061 15.796 225.474 15.796H219.691V17.995H219.607Z" fill="#222222"/>
<path d="M14.1491 42.8491C13.4456 42.5659 12.8124 42.2827 12.1792 41.9994C10.8424 41.3622 9.64635 40.6542 8.59101 39.8046C6.33961 38.1054 4.51035 35.9813 3.10323 33.5741C1.69611 31.1668 0.711122 28.4056 0.288985 25.5735C0.148273 24.6531 0.0779169 23.7327 0.00756074 22.8123C-0.133152 17.2898 1.69611 12.0505 5.00285 8.0148C8.30958 3.97912 13.0234 1.14707 18.5112 0.297451C19.4259 0.155848 20.3405 0.0850467 21.2551 0.0142453C24.984 -0.127357 28.7832 0.79306 32.09 2.49229C35.3967 4.19153 38.2813 6.66957 40.3216 9.78483C42.2916 12.7585 43.4173 16.0862 43.8394 19.4846C44.2616 22.9539 43.8394 26.5648 42.7137 30.034C41.2363 34.4945 38.9145 38.1054 35.8892 40.9374C32.8639 43.7695 29.2054 45.8935 24.984 47.5219C23.0844 48.23 21.1144 48.7964 19.0741 49.1504C17.0337 49.5752 14.9231 49.7876 12.742 49.8584L8.87243 50L11.3349 46.9555C12.3199 45.6811 13.3049 44.3359 14.1491 42.8491ZM13.727 38.8134C14.4306 39.1674 15.1341 39.4506 15.8377 39.7338C17.4559 36.4061 18.5816 32.7245 19.0037 29.1136C19.6369 23.7327 18.6519 18.3518 15.2748 14.0329C14.0084 12.3337 12.6013 11.3425 11.1238 10.9885C7.81709 10.2096 6.1989 11.8381 5.00285 14.6701C3.9475 17.0774 3.45501 19.8386 3.52537 22.7415C3.52537 23.5203 3.59572 24.2991 3.73644 25.0779C4.08822 27.4852 4.93249 29.7508 6.12854 31.8041C7.3246 33.7865 8.87243 35.5565 10.7017 36.9726C11.6867 37.6806 12.6717 38.3178 13.727 38.8134ZM19.0741 3.76672C15.908 4.26233 13.0938 5.53675 10.772 7.30678C11.1942 7.30678 11.6163 7.37759 12.0385 7.51919C14.2899 8.0148 16.3302 9.50163 18.1594 11.8381C22.1697 17.0066 23.3658 23.3079 22.6622 29.5384C21.9587 35.4149 19.6369 41.2206 16.4709 46.0351C17.1745 45.9643 17.878 45.8227 18.5112 45.6811C20.3405 45.3271 22.1697 44.8315 23.8583 44.1943C27.6575 42.7783 30.9643 40.8666 33.5674 38.3886C36.1706 35.9105 38.2109 32.7953 39.4773 28.9012C40.4623 25.9983 40.8141 22.8831 40.4623 19.9094C40.1106 17.0066 39.1256 14.2453 37.5074 11.7673C35.8188 9.14762 33.3564 7.09438 30.6125 5.67835C27.7982 4.26233 24.6322 3.48351 21.4662 3.62511C20.5516 3.55431 19.7776 3.62511 19.0741 3.76672Z" fill="#1589C9"/>
</svg>
