<svg width="32" height="36" viewBox="0 0 32 36" fill="none" xmlns="http://www.w3.org/2000/svg">
<path d="M10.2903 30.8513C9.77861 30.6474 9.31809 30.4435 8.85758 30.2396C7.88539 29.7808 7.01553 29.271 6.24801 28.6593C4.61063 27.4359 3.28026 25.9066 2.2569 24.1733C1.23353 22.4401 0.51718 20.452 0.210171 18.4129C0.107835 17.7502 0.0566668 17.0875 0.00549872 16.4248C-0.0968375 12.4486 1.23353 8.67634 3.63843 5.77065C6.04333 2.86497 9.4716 0.825888 13.4627 0.214165C14.1279 0.112211 14.7931 0.0612336 15.4583 0.0102566C18.1702 -0.0916973 20.9332 0.571003 23.3382 1.79445C25.743 3.0179 27.8409 4.80209 29.3248 7.04508C30.7575 9.18611 31.5762 11.582 31.8832 14.0289C32.1902 16.5268 31.8832 19.1266 31.0645 21.6245C29.99 24.836 28.3015 27.4359 26.1012 29.4749C23.901 31.514 21.2403 33.0433 18.1702 34.2158C16.7886 34.7256 15.3559 35.1334 13.8721 35.3883C12.3882 35.6941 10.8531 35.8471 9.26692 35.898L6.45268 36L8.24356 33.808C8.95992 32.8904 9.67627 31.9218 10.2903 30.8513ZM9.98328 27.9456C10.495 28.2005 11.0066 28.4044 11.5183 28.6083C12.6952 26.2124 13.5139 23.5616 13.8209 20.9618C14.2814 17.0875 13.565 13.2133 11.109 10.1037C10.188 8.88025 9.16459 8.16657 8.09006 7.91169C5.68516 7.35094 4.50829 8.52341 3.63843 10.5625C2.87091 12.2957 2.51274 14.2838 2.5639 16.3739C2.5639 16.9346 2.61507 17.4954 2.71741 18.0561C2.97325 19.7893 3.58727 21.4206 4.45712 22.8989C5.32698 24.3263 6.45268 25.6007 7.78305 26.6202C8.4994 27.13 9.21576 27.5888 9.98328 27.9456ZM13.8721 2.71204C11.5695 3.06888 9.52276 3.98646 7.83422 5.26088C8.14123 5.26088 8.44823 5.31186 8.75524 5.41382C10.3926 5.77065 11.8765 6.84117 13.2069 8.52341C16.1234 12.2447 16.9933 16.7817 16.4816 21.2677C15.9699 25.4987 14.2814 29.6789 11.9788 33.1453C12.4905 33.0943 13.0022 32.9924 13.4627 32.8904C14.7931 32.6355 16.1234 32.2787 17.3515 31.8199C20.1146 30.8003 22.5195 29.424 24.4127 27.6398C26.3059 25.8556 27.7898 23.6126 28.7108 20.8089C29.4272 18.7188 29.683 16.4758 29.4272 14.3348C29.1713 12.2447 28.455 10.2566 27.2781 8.47243C26.0501 6.58629 24.2592 5.10795 22.2636 4.08841C20.2169 3.06887 17.9143 2.50813 15.6118 2.61008C14.9466 2.55911 14.3837 2.61008 13.8721 2.71204Z" fill="white"/>
</svg>
