<svg width="0" height="0" class="hidden">
  <symbol fill="none" xmlns="http://www.w3.org/2000/svg" viewBox="0 0 18 18" id="ic_add">
    <path fill-rule="evenodd" clip-rule="evenodd" d="M1 8.99993C1.00028 5.18354 3.69637 1.89881 7.43947 1.15452C11.1826 0.41023 14.9302 2.41368 16.3904 5.93965C17.8507 9.46562 16.6169 13.5321 13.4435 15.6522C10.2702 17.7723 6.04119 17.3555 3.34274 14.6568C1.84256 13.1564 0.999847 11.1216 1 8.99993Z" stroke="currentColor" stroke-width="2" stroke-linecap="round" stroke-linejoin="round"></path>
    <path d="M5.99973 7.99979C5.44744 7.99979 4.99973 8.44751 4.99973 8.99979C4.99973 9.55208 5.44744 9.99979 5.99973 9.99979V8.99979V7.99979ZM8.99957 9.99979C9.55186 9.99979 9.99957 9.55208 9.99957 8.99979C9.99957 8.44751 9.55186 7.99979 8.99957 7.99979V8.99979V9.99979ZM8.99956 7.99979C8.44728 7.99979 7.99956 8.44751 7.99956 8.99979C7.99956 9.55208 8.44728 9.99979 8.99956 9.99979V8.99979V7.99979ZM11.9994 9.99979C12.5517 9.99979 12.9994 9.55208 12.9994 8.99979C12.9994 8.44751 12.5517 7.99979 11.9994 7.99979V8.99979V9.99979ZM9.99958 8.99987C9.99958 8.44758 9.55186 7.99987 8.99958 7.99987C8.44729 7.99987 7.99958 8.44758 7.99958 8.99987H8.99958H9.99958ZM7.99958 11.9997C7.99958 12.552 8.44729 12.9997 8.99958 12.9997C9.55186 12.9997 9.99958 12.552 9.99958 11.9997H8.99958H7.99958ZM7.99958 8.99988C7.99958 9.55216 8.44729 9.99988 8.99958 9.99988C9.55186 9.99988 9.99958 9.55216 9.99958 8.99988H8.99958H7.99958ZM9.99958 6.00003C9.99958 5.44775 9.55186 5.00003 8.99958 5.00003C8.44729 5.00003 7.99958 5.44775 7.99958 6.00003H8.99958H9.99958ZM5.99973 8.99979V9.99979H8.99957V8.99979V7.99979H5.99973V8.99979ZM8.99956 8.99979V9.99979H11.9994V8.99979V7.99979H8.99956V8.99979ZM8.99958 8.99987H7.99958V11.9997H8.99958H9.99958V8.99987H8.99958ZM8.99958 8.99988H9.99958V6.00003H8.99958H7.99958V8.99988H8.99958Z" fill="currentColor"></path>
  </symbol>
  <symbol fill="none" xmlns="http://www.w3.org/2000/svg" viewBox="0 0 12 12" id="ic_arr_ver">
    <path d="M9 5L6.35355 7.84269C6.15829 8.05244 5.84171 8.05244 5.64645 7.84269L3 5" stroke="currentColor" stroke-width="2" stroke-linecap="round"></path>
  </symbol>
  <symbol fill="none" xmlns="http://www.w3.org/2000/svg" viewBox="0 0 32 32" id="ic_arrow_hor">
    <path d="M13.6667 9.33325L6.66675 15.9999M6.66675 15.9999L13.6667 22.6666M6.66675 15.9999L25.3334 15.9999" stroke="currentColor" stroke-width="2" stroke-linecap="round" stroke-linejoin="round"></path>
  </symbol>
  <symbol fill="none" xmlns="http://www.w3.org/2000/svg" viewBox="0 0 18 18" id="ic_cart">
    <path d="M1 2H1.55435C2.48749 2 3.27094 2.67244 3.37213 3.56022L4.11358 10.0648C4.21478 10.9526 4.99823 11.625 5.93137 11.625H13.8421C14.6779 11.625 15.4074 11.0826 15.6139 10.3074L16.8801 3.98852C16.9421 3.67907 16.7055 3.39028 16.3899 3.39028H3.34397M4.31406 14.7968H4.99978M4.31406 15.4531H4.99978M14.3712 14.7968H15.0569M14.3712 15.4531H15.0569M5.57143 15.125C5.57143 15.6082 5.16209 16 4.65714 16C4.1522 16 3.74286 15.6082 3.74286 15.125C3.74286 14.6418 4.1522 14.25 4.65714 14.25C5.16209 14.25 5.57143 14.6418 5.57143 15.125ZM15.6286 15.125C15.6286 15.6082 15.2192 16 14.7143 16C14.2093 16 13.8 15.6082 13.8 15.125C13.8 14.6418 14.2093 14.25 14.7143 14.25C15.2192 14.25 15.6286 14.6418 15.6286 15.125Z" stroke="currentColor" stroke-width="2" stroke-linecap="round"></path>
  </symbol>
  <symbol fill="none" xmlns="http://www.w3.org/2000/svg" viewBox="0 0 16 16" id="ic_check">
    <path d="M2 9.00798L6 13L14 5" stroke="currentColor" stroke-width="1.5" stroke-linecap="round" stroke-linejoin="round"></path>
  </symbol>
  <symbol fill="none" xmlns="http://www.w3.org/2000/svg" viewBox="0 0 16 16" id="ic_close">
    <path d="M0.293028 14.2928C-0.0975708 14.6832 -0.0976914 15.3164 0.292759 15.707C0.683208 16.0976 1.31637 16.0977 1.70697 15.7072L1 15L0.293028 14.2928ZM8.70697 8.70991C9.09757 8.31946 9.09769 7.6863 8.70724 7.2957C8.31679 6.9051 7.68363 6.90498 7.29303 7.29543L8 8.00267L8.70697 8.70991ZM7.29262 7.29583C6.90225 7.6865 6.90249 8.31967 7.29316 8.71004C7.68384 9.10042 8.317 9.10018 8.70738 8.7095L8 8.00267L7.29262 7.29583ZM15.7047 1.70684C16.0951 1.31616 16.0948 0.682999 15.7042 0.292624C15.3135 -0.0977516 14.6803 -0.0975105 14.29 0.293163L14.9973 1L15.7047 1.70684ZM8.70697 7.29543C8.31637 6.90498 7.68321 6.9051 7.29276 7.2957C6.90231 7.6863 6.90243 8.31946 7.29303 8.70991L8 8.00267L8.70697 7.29543ZM14.293 15.7072C14.6836 16.0977 15.3168 16.0976 15.7072 15.707C16.0977 15.3164 16.0976 14.6832 15.707 14.2928L15 15L14.293 15.7072ZM7.29276 8.70964C7.68321 9.10024 8.31637 9.10036 8.70697 8.70991C9.09757 8.31946 9.09769 7.68629 8.70724 7.29569L8 8.00267L7.29276 8.70964ZM1.70724 0.293028C1.31679 -0.0975708 0.683626 -0.0976913 0.293028 0.292759C-0.0975708 0.683209 -0.0976913 1.31637 0.292759 1.70697L1 1L1.70724 0.293028ZM1 15L1.70697 15.7072L8.70697 8.70991L8 8.00267L7.29303 7.29543L0.293028 14.2928L1 15ZM8 8.00267L8.70738 8.7095L15.7047 1.70684L14.9973 1L14.29 0.293163L7.29262 7.29583L8 8.00267ZM8 8.00267L7.29303 8.70991L14.293 15.7072L15 15L15.707 14.2928L8.70697 7.29543L8 8.00267ZM8 8.00267L8.70724 7.29569L1.70724 0.293028L1 1L0.292759 1.70697L7.29276 8.70964L8 8.00267Z" fill="currentColor"></path>
  </symbol>
  <symbol fill="none" xmlns="http://www.w3.org/2000/svg" viewBox="0 0 24 24" id="ic_images">
    <path fill-rule="evenodd" clip-rule="evenodd" d="M3.5 10.4V15.7329C3.50514 16.87 3.95584 17.9585 4.7529 18.7588C5.54997 19.559 6.62809 20.0055 7.75 19.9999H16.25C17.3719 20.0055 18.45 19.559 19.2471 18.7588C20.0442 17.9585 20.4949 16.87 20.5 15.7329V10.4C20.4949 9.26285 20.0442 8.17438 19.2471 7.37411C18.45 6.57384 17.3719 6.12736 16.25 6.13292C15.6608 6.05371 15.1573 5.66338 14.9276 5.1077C14.5511 4.42197 13.8368 3.99772 13.0625 4.00001H10.9375C10.1632 3.99772 9.44888 4.42197 9.07236 5.1077C8.84269 5.66338 8.33924 6.05371 7.75 6.13292C6.62809 6.12736 5.54997 6.57384 4.7529 7.37411C3.95584 8.17438 3.50514 9.26285 3.5 10.4Z" stroke="currentColor" stroke-width="1.5" stroke-linecap="round" stroke-linejoin="round"></path>
    <path fill-rule="evenodd" clip-rule="evenodd" d="M12 15.7329C10.55 15.7186 9.38463 14.5181 9.3942 13.0483C9.40377 11.5786 10.5847 10.3937 12.0347 10.3989C13.4848 10.404 14.6575 11.5973 14.6569 13.067C14.6533 13.7777 14.3714 14.4577 13.8732 14.9577C13.3749 15.4576 12.7011 15.7365 12 15.7329Z" stroke="currentColor" stroke-width="1.5" stroke-linecap="round" stroke-linejoin="round"></path>
  </symbol>
  <symbol fill="none" xmlns="http://www.w3.org/2000/svg" viewBox="0 0 16 16" id="ic_loading">
    <path d="M1 8H4M8 1V4M15 8H12M8 15V12M3.05003 12.95L5.17135 10.8287M3.05003 3.05001L5.17135 5.17133M12.95 3.05001L10.8287 5.17133M12.95 12.95L10.8287 10.8287" stroke="currentColor" stroke-width="1.5" stroke-linecap="round"></path>
  </symbol>
  <symbol fill="none" xmlns="http://www.w3.org/2000/svg" viewBox="0 0 16 16" id="ic_location">
    <path d="M12.9495 2.05891C14.2346 3.34932 14.9696 5.09106 14.9991 6.91585C15.0285 8.74063 14.3502 10.5054 13.1074 11.837L12.9495 12.001L9.64948 15.3142C9.23076 15.7345 8.66863 15.9791 8.07698 15.9987C7.48532 16.0183 6.90837 15.8113 6.46301 15.4197L6.35102 15.3142L3.05021 12.0002C1.73748 10.6819 1 8.89391 1 7.02956C1 5.1652 1.73748 3.37721 3.05021 2.05891C4.36294 0.740612 6.14338 0 7.99986 0C9.85634 0 11.6368 0.740612 12.9495 2.05891ZM7.99986 4.68638C7.69345 4.68638 7.39004 4.74699 7.10696 4.86475C6.82387 4.9825 6.56665 5.1551 6.34999 5.37268C6.13332 5.59027 5.96146 5.84858 5.8442 6.13286C5.72694 6.41715 5.66659 6.72185 5.66659 7.02956C5.66659 7.33727 5.72694 7.64196 5.8442 7.92625C5.96146 8.21054 6.13332 8.46884 6.34999 8.68643C6.56665 8.90401 6.82387 9.07661 7.10696 9.19436C7.39004 9.31212 7.69345 9.37273 7.99986 9.37273C8.61868 9.37273 9.21216 9.12586 9.64973 8.68643C10.0873 8.247 10.3331 7.651 10.3331 7.02956C10.3331 6.40811 10.0873 5.81211 9.64973 5.37268C9.21216 4.93325 8.61868 4.68638 7.99986 4.68638Z" fill="currentColor"></path>
  </symbol>
  <symbol fill="none" xmlns="http://www.w3.org/2000/svg" viewBox="0 0 24 24" id="ic_max">
    <path fill-rule="evenodd" clip-rule="evenodd" d="M12.2578 23.9315C9.90255 23.9315 8.808 23.5862 6.90542 22.2049C5.70199 23.7588 1.89111 24.9733 1.72492 22.8955C1.72492 21.3358 1.38108 20.0178 0.9914 18.5789C0.527219 16.8062 0 14.832 0 11.9715C0 5.13969 5.58164 0 12.1948 0C18.8137 0 23.9999 5.39294 23.9999 12.0348C24.0221 18.574 18.7687 23.8966 12.2578 23.9315ZM12.3553 5.90518C9.13464 5.73827 6.62462 7.97717 6.06875 11.488C5.6103 14.3946 6.42405 17.9342 7.11746 18.1184C7.44983 18.199 8.28651 17.5198 8.808 16.9961C9.6703 17.5944 10.6745 17.9537 11.7192 18.0378C15.0563 18.1991 17.9077 15.6475 18.1318 12.2996C18.2622 8.94458 15.6928 6.10293 12.3553 5.91094L12.3553 5.90518Z" fill="currentColor"></path>
  </symbol>
  <symbol fill="none" xmlns="http://www.w3.org/2000/svg" viewBox="0 0 26 18" id="ic_menu">
    <path d="M1 8C0.447715 8 0 8.44772 0 9C0 9.55229 0.447715 10 1 10V9V8ZM25 10C25.5523 10 26 9.55229 26 9C26 8.44772 25.5523 8 25 8V9V10ZM1 16C0.447715 16 0 16.4477 0 17C0 17.5523 0.447715 18 1 18V17V16ZM25 18C25.5523 18 26 17.5523 26 17C26 16.4477 25.5523 16 25 16V17V18ZM1 0C0.447715 0 0 0.447715 0 1C0 1.55228 0.447715 2 1 2V1V0ZM25 2C25.5523 2 26 1.55228 26 1C26 0.447715 25.5523 0 25 0V1V2ZM1 9V10H25V9V8H1V9ZM1 17V18H25V17V16H1V17ZM1 1V2H25V1V0H1V1Z" fill="currentColor"></path>
  </symbol>
  <symbol fill="none" xmlns="http://www.w3.org/2000/svg" viewBox="0 0 18 18" id="ic_phone">
    <path fill-rule="evenodd" clip-rule="evenodd" d="M1.98794 2.55569C2.99483 1.49682 3.35068 1.19984 3.77976 1.06163C4.0767 0.98395 4.38812 0.979638 4.68711 1.04906C5.08071 1.16329 5.18483 1.2501 6.47549 2.53398C7.6094 3.66138 7.72267 3.7836 7.83137 4.00406C8.03922 4.39102 8.07169 4.84816 7.92062 5.26053C7.8062 5.57465 7.64372 5.78254 6.95606 6.47131L6.50753 6.92022C6.38974 7.03972 6.36206 7.22118 6.43888 7.37026C7.4354 9.06748 8.84922 10.4828 10.5466 11.4824C10.7419 11.5868 10.9825 11.5531 11.1415 11.399L11.5729 10.9752C11.8395 10.7024 12.1219 10.4453 12.4185 10.2053C12.8843 9.91977 13.4648 9.8943 13.954 10.1379C14.1931 10.2522 14.2721 10.323 15.4415 11.4881C16.6474 12.6886 16.6818 12.7263 16.8145 13.0015C17.0643 13.4572 17.0617 14.0091 16.8076 14.4625C16.6783 14.7183 16.5994 14.8109 15.9209 15.5031C15.5112 15.9211 15.1257 16.3026 15.0639 16.3586C14.5041 16.8213 13.786 17.0482 13.0615 16.9914C11.736 16.8708 10.453 16.4618 9.30281 15.7932C6.75483 14.4456 4.58573 12.482 2.99369 10.082C2.64693 9.57968 2.33865 9.05198 2.07146 8.50337C1.35472 7.27702 0.984586 5.87956 1.00049 4.45982C1.05521 3.71708 1.41201 3.02905 1.98794 2.55569Z" stroke="currentColor" stroke-width="2" stroke-linecap="round" stroke-linejoin="round"></path>
  </symbol>
  <symbol fill="none" xmlns="http://www.w3.org/2000/svg" viewBox="0 0 16 16" id="ic_phone_fill">
    <path fill-rule="evenodd" clip-rule="evenodd" d="M0.987937 1.55569C1.99483 0.496823 2.35068 0.199838 2.77976 0.0616264C3.0767 -0.0160497 3.38812 -0.0203622 3.68711 0.0490617C4.08071 0.163287 4.18483 0.250097 5.47549 1.53398C6.6094 2.66138 6.72267 2.7836 6.83137 3.00406C7.03922 3.39102 7.07169 3.84816 6.92062 4.26053C6.8062 4.57465 6.64372 4.78254 5.95606 5.47131L5.50753 5.92022C5.38974 6.03972 5.36206 6.22118 5.43888 6.37026C6.4354 8.06748 7.84922 9.48282 9.54656 10.4824C9.74193 10.5868 9.98253 10.5531 10.1415 10.399L10.5729 9.9752C10.8395 9.70238 11.1219 9.44531 11.4185 9.20532C11.8843 8.91977 12.4648 8.8943 12.954 9.13793C13.1931 9.25216 13.2721 9.32298 14.4415 10.4881C15.6474 11.6886 15.6818 11.7263 15.8145 12.0015C16.0643 12.4572 16.0617 13.0091 15.8076 13.4625C15.6783 13.7183 15.5994 13.8109 14.9209 14.5031C14.5112 14.9211 14.1257 15.3026 14.0639 15.3586C13.5041 15.8213 12.786 16.0482 12.0615 15.9914C10.736 15.8708 9.45303 15.4618 8.30281 14.7932C5.75483 13.4456 3.58573 11.482 1.99369 9.08196C1.64693 8.57968 1.33865 8.05198 1.07146 7.50338C0.354717 6.27702 -0.0154139 4.87956 0.000491864 3.45982C0.0552111 2.71708 0.412009 2.02905 0.987937 1.55569Z" fill="currentColor"></path>
  </symbol>
  <symbol fill="none" xmlns="http://www.w3.org/2000/svg" viewBox="0 0 16 16" id="ic_search">
    <path d="M15 15L11.85 11.85M13.6 7.3C13.6 10.7794 10.7794 13.6 7.3 13.6C3.82061 13.6 1 10.7794 1 7.3C1 3.82061 3.82061 1 7.3 1C10.7794 1 13.6 3.82061 13.6 7.3Z" stroke="currentColor" stroke-width="2" stroke-linecap="round"></path>
  </symbol>
  <symbol fill="none" xmlns="http://www.w3.org/2000/svg" viewBox="0 0 16 16" id="ic_sitemap">
    <path fill-rule="evenodd" clip-rule="evenodd" d="M5.6 1.53743C5.6 1.12968 5.76857 0.738625 6.06863 0.450302C6.36869 0.161978 6.77565 0 7.2 0H8.8C9.22435 0 9.63131 0.161978 9.93137 0.450302C10.2314 0.738625 10.4 1.12968 10.4 1.53743V3.07485C10.4 3.4826 10.2314 3.87366 9.93137 4.16198C9.63131 4.4503 9.22435 4.61228 8.8 4.61228V6.14971H12C12.6365 6.14971 13.247 6.39268 13.6971 6.82516C14.1471 7.25765 14.4 7.84422 14.4 8.45585V9.22456C14.8243 9.22456 15.2313 9.38654 15.5314 9.67486C15.8314 9.96319 16 10.3542 16 10.762V12.2994C16 12.7072 15.8314 13.0982 15.5314 13.3865C15.2313 13.6749 14.8243 13.8368 14.4 13.8368H12.8C12.3757 13.8368 11.9687 13.6749 11.6686 13.3865C11.3686 13.0982 11.2 12.7072 11.2 12.2994V10.762C11.2 10.3542 11.3686 9.96319 11.6686 9.67486C11.9687 9.38654 12.3757 9.22456 12.8 9.22456V8.45585C12.8 8.25197 12.7157 8.05645 12.5657 7.91229C12.4157 7.76812 12.2122 7.68714 12 7.68714H8.8V9.22456C9.22435 9.22456 9.63131 9.38654 9.93137 9.67486C10.2314 9.96319 10.4 10.3542 10.4 10.762V12.2994C10.4 12.7072 10.2314 13.0982 9.93137 13.3865C9.63131 13.6749 9.22435 13.8368 8.8 13.8368H7.2C6.77565 13.8368 6.36869 13.6749 6.06863 13.3865C5.76857 13.0982 5.6 12.7072 5.6 12.2994V10.762C5.6 10.3542 5.76857 9.96319 6.06863 9.67486C6.36869 9.38654 6.77565 9.22456 7.2 9.22456V7.68714H4C3.78783 7.68714 3.58434 7.76812 3.43431 7.91229C3.28429 8.05645 3.2 8.25197 3.2 8.45585V9.22456C3.62435 9.22456 4.03131 9.38654 4.33137 9.67486C4.63143 9.96319 4.8 10.3542 4.8 10.762V12.2994C4.8 12.7072 4.63143 13.0982 4.33137 13.3865C4.03131 13.6749 3.62435 13.8368 3.2 13.8368H1.6C1.17565 13.8368 0.768687 13.6749 0.468629 13.3865C0.168571 13.0982 0 12.7072 0 12.2994V10.762C0 10.3542 0.168571 9.96319 0.468629 9.67486C0.768687 9.38654 1.17565 9.22456 1.6 9.22456V8.45585C1.6 7.84422 1.85286 7.25765 2.30294 6.82516C2.75303 6.39268 3.36348 6.14971 4 6.14971H7.2V4.61228C6.77565 4.61228 6.36869 4.4503 6.06863 4.16198C5.76857 3.87366 5.6 3.4826 5.6 3.07485V1.53743Z" fill="currentColor"></path>
  </symbol>
  <symbol fill="none" xmlns="http://www.w3.org/2000/svg" viewBox="0 0 17 17" id="ic_star">
    <path fill-rule="evenodd" clip-rule="evenodd" d="M10.6131 4.51714L8.5 0.5L6.38686 4.51714C6.23757 4.8107 6.0215 5.06514 5.756 5.26C5.48921 5.45586 5.18049 5.58694 4.85429 5.64286L0.5 6.49657L3.54 10.132C3.95574 10.5876 4.15191 11.202 4.07714 11.8143L3.49886 16.5L7.508 14.5571C7.81728 14.4074 8.15636 14.3292 8.5 14.3286C8.82242 14.3296 9.13989 14.4079 9.42571 14.5571L13.5286 16.38L12.9503 11.7503C12.8772 11.1394 13.0737 10.5269 13.4886 10.0726L16.5 6.49657L12.1457 5.64286C11.8191 5.58711 11.51 5.45602 11.2429 5.26C10.9778 5.065 10.7621 4.81058 10.6131 4.51714Z" fill="currentColor" stroke="currentColor" stroke-linecap="round" stroke-linejoin="round"></path>
  </symbol>
  <symbol fill="none" xmlns="http://www.w3.org/2000/svg" viewBox="0 0 17 17" id="ic_star_half">
    <path fill-rule="evenodd" clip-rule="evenodd" d="M10.6131 4.51714L8.5 0.5L6.38686 4.51714C6.23757 4.8107 6.0215 5.06514 5.756 5.26C5.48921 5.45586 5.18049 5.58694 4.85429 5.64286L0.5 6.49657L3.54 10.132C3.95574 10.5876 4.15191 11.202 4.07714 11.8143L3.49886 16.5L7.508 14.5571C7.81728 14.4074 8.15636 14.3292 8.5 14.3286C8.82242 14.3296 9.13989 14.4079 9.42571 14.5571L13.5286 16.38L12.9503 11.7503C12.8772 11.1394 13.0737 10.5269 13.4886 10.0726L16.5 6.49657L12.1457 5.64286C11.8191 5.58711 11.51 5.45602 11.2429 5.26C10.9778 5.065 10.7621 4.81058 10.6131 4.51714Z" fill="var(--bg_color)" stroke="var(--bg_color)" stroke-linecap="round" stroke-linejoin="round"></path>
    <path fill-rule="evenodd" clip-rule="evenodd" d="M8.5 1.16667V0.5L6.38686 4.51714C6.23757 4.8107 6.0215 5.06514 5.756 5.26C5.48921 5.45586 5.18049 5.58694 4.85429 5.64286L0.5 6.49657L3.54 10.132C3.95574 10.5876 4.15191 11.202 4.07714 11.8143L3.49886 16.5L7.508 14.5571C7.81728 14.4074 8.15636 14.3292 8.5 14.3286C8.5 13.8333 8.5 14.8333 8.5 13.5V13.1667V12.1667C8.5 11.5 8.5 11.5 8.5 10.8333V8.16667V5.64286C8.5 5.16667 8.5 3.5 8.5 2.83333C8.5 2.5 8.5 1.5 8.5 1.16667Z" fill="currentColor" stroke="currentColor" stroke-linecap="round" stroke-linejoin="round"></path>
  </symbol>
  <symbol fill="none" xmlns="http://www.w3.org/2000/svg" viewBox="0 0 32 32" id="ic_swipe">
    <path d="M27.9255 16.7867C27.2954 13.2001 24.9255 12.5601 23.8159 12.4667C23.4183 11.9429 22.9003 11.517 22.3032 11.2229C21.7062 10.9289 21.0467 10.7749 20.3776 10.7734C20.0698 10.7742 19.7628 10.8009 19.4598 10.8534C19.0566 10.3676 18.5445 9.97811 17.9628 9.71465C17.381 9.45119 16.7451 9.32078 16.1036 9.3334C15.2414 9.33697 14.3954 9.56236 13.6516 9.98673L11.2132 2.5334C11.0029 1.80108 10.551 1.15639 9.92725 0.698615C9.30347 0.240842 8.54235 -0.00461062 7.76115 6.55982e-05C7.16259 0.00161632 6.5726 0.138528 6.03771 0.399998C5.50281 0.661468 5.03767 1.04034 4.67896 1.50673C4.34129 1.95848 4.12126 2.48322 4.03775 3.03593C3.95425 3.58864 4.00975 4.15282 4.19951 4.68007L7.2817 14.1334C6.8384 14.3786 6.44773 14.7045 6.13101 15.0934C5.45717 15.9769 5.06639 17.0345 5.00773 18.1334C4.92622 20.3207 5.58034 22.4742 6.87074 24.2667C7.58724 25.3741 8.40814 26.4142 9.32279 27.3734L10.7885 30.6667C10.9583 31.0611 11.2438 31.3979 11.6093 31.6351C11.9748 31.8722 12.4041 31.9992 12.8433 32.0001H22.5009C23.0306 32.0073 23.5456 31.8298 23.9526 31.4996C24.3596 31.1695 24.6318 30.7085 24.7201 30.2001L25.131 26.9067V26.7601C27.2954 21.9601 28.1858 18.7601 27.8707 16.8534L27.9255 16.7867ZM23.6516 26.3601C23.6408 26.4084 23.6408 26.4584 23.6516 26.5067L23.2269 29.9334C23.1977 30.0923 23.1113 30.2358 22.9833 30.3384C22.8554 30.441 22.6941 30.4959 22.5283 30.4934H12.9392C12.8032 30.4965 12.6694 30.4601 12.5547 30.3889C12.44 30.3176 12.3498 30.2148 12.2954 30.0934L10.679 26.6667C10.6495 26.5908 10.6027 26.5224 10.542 26.4667C9.92553 25.8267 6.2132 21.8934 6.54197 18.2934C6.74745 16.1601 7.80224 15.4801 8.52827 15.2534C8.61649 15.2277 8.69847 15.185 8.76932 15.1277C8.84018 15.0705 8.89844 14.9999 8.94064 14.9203C8.98284 14.8406 9.00811 14.7535 9.01492 14.6641C9.02174 14.5747 9.00998 14.4849 8.98033 14.4001L5.66526 4.24007C5.56399 3.92603 5.54176 3.59291 5.60045 3.26876C5.65914 2.94462 5.79703 2.63895 6.00249 2.37754C6.20796 2.11612 6.47498 1.90661 6.78104 1.76666C7.08711 1.62671 7.42325 1.56043 7.76115 1.5734C8.21103 1.56825 8.64972 1.70988 9.00724 1.97571C9.36477 2.24154 9.62054 2.61625 9.73375 3.04007L12.5694 11.6667C12.6135 11.8063 12.7026 11.9283 12.8235 12.0147C12.9443 12.1012 13.0906 12.1475 13.2406 12.1467C13.3473 12.1489 13.453 12.1258 13.5484 12.0793C13.6439 12.0328 13.7263 11.9645 13.7885 11.8801C13.9158 11.725 14.058 11.5821 14.2132 11.4534C14.769 11.0801 15.4283 10.8801 16.1036 10.8801C16.5794 10.8852 17.0456 11.0108 17.4564 11.2446C17.8671 11.4784 18.2082 11.8123 18.4461 12.2134C18.5107 12.3118 18.5999 12.3928 18.7052 12.4487C18.8106 12.5047 18.9288 12.5338 19.0488 12.5334C19.1121 12.5463 19.1774 12.5463 19.2406 12.5334C19.606 12.4035 19.9892 12.3271 20.3776 12.3067C20.8673 12.2977 21.3505 12.4167 21.7769 12.6512C22.2034 12.8857 22.5574 13.2272 22.8022 13.6401C22.8669 13.7385 22.956 13.8195 23.0614 13.8754C23.1668 13.9314 23.285 13.9605 23.405 13.9601H23.5009C24.3228 13.9601 25.994 14.3067 26.4598 17.0401C26.9255 19.7734 24.0488 25.6134 23.7201 26.3734L23.6516 26.3601Z" fill="currentColor"></path>
    <path d="M26.6791 4.40011C26.788 4.40384 26.8966 4.38569 26.9981 4.34681C27.0995 4.30792 27.1917 4.24913 27.2688 4.17409C27.3459 4.09904 27.4063 4.00936 27.4462 3.91061C27.4862 3.81187 27.5048 3.70617 27.501 3.60011C27.4852 3.39305 27.3935 3.19839 27.2427 3.05157C27.0918 2.90474 26.8918 2.81551 26.6791 2.80011H19.2818L20.7887 1.33345C20.9207 1.18548 20.9934 0.996094 20.9934 0.800114C20.9934 0.604134 20.9207 0.414744 20.7887 0.266781C20.6366 0.138269 20.4421 0.0675049 20.2407 0.0675049C20.0394 0.0675049 19.8448 0.138269 19.6928 0.266781L16.8161 3.20011C16.684 3.34808 16.6113 3.53747 16.6113 3.73345C16.6113 3.92943 16.684 4.11882 16.8161 4.26678L19.6928 7.06678C19.758 7.14811 19.841 7.21424 19.9358 7.26038C20.0306 7.30651 20.1348 7.33147 20.2407 7.33345C20.4467 7.30006 20.6376 7.20715 20.7887 7.06678C20.9207 6.91882 20.9934 6.72943 20.9934 6.53345C20.9934 6.33747 20.9207 6.14808 20.7887 6.00011L19.1448 4.40011H26.6791Z" fill="currentColor"></path>
  </symbol>
  <symbol fill="none" xmlns="http://www.w3.org/2000/svg" viewBox="0 0 24 24" id="ic_tg">
    <path fill-rule="evenodd" clip-rule="evenodd" d="M1.64987 10.4709C8.09231 7.36615 12.3883 5.31934 14.5378 4.33042C20.675 1.50685 21.9503 1.01637 22.7815 1.00017C22.9643 0.996611 23.3731 1.04673 23.6379 1.28437C23.8614 1.48504 23.9229 1.75611 23.9524 1.94636C23.9818 2.13661 24.0185 2.57001 23.9893 2.90866C23.6568 6.7739 22.2177 16.1538 21.4856 20.483C21.1758 22.3148 20.5658 22.929 19.9753 22.9891C18.6919 23.1197 17.7174 22.051 16.4744 21.1497C14.5294 19.7394 13.4305 18.8615 11.5425 17.4853C9.36064 15.8949 10.7751 15.0208 12.0185 13.5922C12.344 13.2184 17.9985 7.52943 18.1079 7.01335C18.1216 6.94881 18.1343 6.70822 18.0051 6.58118C17.8759 6.45414 17.6851 6.49758 17.5475 6.53213C17.3524 6.5811 14.2452 8.85279 8.22584 13.3472C7.34386 14.0171 6.545 14.3435 5.82924 14.3264C5.04018 14.3075 3.52233 13.8329 2.39397 13.4272C1.00999 12.9296 -0.0899676 12.6665 0.00581422 11.8214C0.0557033 11.3812 0.603723 10.931 1.64987 10.4709Z" fill="currentColor"></path>
  </symbol>
  <symbol fill="none" xmlns="http://www.w3.org/2000/svg" viewBox="0 0 16 16" id="ic_thunder">
    <path fill-rule="evenodd" clip-rule="evenodd" d="M6.8 1L2 10.2304H8V16L14 5.61571H8L6.8 1Z" fill="currentColor"></path>
  </symbol>
  <symbol fill="none" xmlns="http://www.w3.org/2000/svg" viewBox="0 0 16 16" id="ic_time">
    <path d="M7.992 0C3.576 0 0 3.584 0 8C0 12.416 3.576 16 7.992 16C12.416 16 16 12.416 16 8C16 3.584 12.416 0 7.992 0ZM11.2 11.2C11.126 11.2742 11.0381 11.333 10.9413 11.3731C10.8445 11.4133 10.7408 11.434 10.636 11.434C10.5312 11.434 10.4275 11.4133 10.3307 11.3731C10.2339 11.333 10.146 11.2742 10.072 11.2L7.44 8.568C7.36441 8.49391 7.30427 8.40555 7.26308 8.30805C7.22188 8.21055 7.20044 8.10585 7.2 8V4.8C7.2 4.36 7.56 4 8 4C8.44 4 8.8 4.36 8.8 4.8V7.672L11.2 10.072C11.512 10.384 11.512 10.888 11.2 11.2Z" fill="currentColor"></path>
  </symbol>
  <symbol fill="none" xmlns="http://www.w3.org/2000/svg" viewBox="0 0 18 18" id="ic_upload">
    <path d="M2 12.4286C2 11.8763 1.55228 11.4286 1 11.4286C0.447715 11.4286 0 11.8763 0 12.4286H1H2ZM1 13.5714H0H1ZM18 12.4286C18 11.8763 17.5523 11.4286 17 11.4286C16.4477 11.4286 16 11.8763 16 12.4286H17H18ZM9.78091 1.62473C10.1259 1.19346 10.056 0.564171 9.62473 0.219162C9.19347 -0.125848 8.56418 -0.0559264 8.21917 0.375335L9.00004 1.00003L9.78091 1.62473ZM3.64774 6.08962C3.30273 6.52088 3.37265 7.15018 3.80391 7.49518C4.23518 7.84019 4.86447 7.77027 5.20948 7.33901L4.42861 6.71432L3.64774 6.08962ZM9.78104 0.375335C9.43603 -0.0559264 8.80674 -0.125848 8.37548 0.219162C7.94421 0.564171 7.87429 1.19346 8.2193 1.62473L9.00017 1.00003L9.78104 0.375335ZM12.7907 7.33901C13.1357 7.77027 13.765 7.84019 14.1963 7.49518C14.6276 7.15018 14.6975 6.52088 14.3525 6.08962L13.5716 6.71432L12.7907 7.33901ZM9.99987 1.00003C9.99987 0.447746 9.55216 3.05176e-05 8.99987 3.05176e-05C8.44759 3.05176e-05 7.99987 0.447746 7.99987 1.00003H8.99987H9.99987ZM7.99987 13.5715C7.99987 14.1237 8.44759 14.5715 8.99987 14.5715C9.55216 14.5715 9.99987 14.1237 9.99987 13.5715H8.99987H7.99987ZM1 12.4286H0V13.5714H1H2V12.4286H1ZM1 13.5714H0C0 16.0173 1.98274 18 4.42857 18V17V16C3.08731 16 2 14.9127 2 13.5714H1ZM4.42857 17V18H13.5714V17V16H4.42857V17ZM13.5714 17V18C16.0173 18 18 16.0173 18 13.5714H17H16C16 14.9127 14.9127 16 13.5714 16V17ZM17 13.5714H18V12.4286H17H16V13.5714H17ZM9.00004 1.00003L8.21917 0.375335L3.64774 6.08962L4.42861 6.71432L5.20948 7.33901L9.78091 1.62473L9.00004 1.00003ZM9.00017 1.00003L8.2193 1.62473L12.7907 7.33901L13.5716 6.71432L14.3525 6.08962L9.78104 0.375335L9.00017 1.00003ZM8.99987 1.00003H7.99987V13.5715H8.99987H9.99987V1.00003H8.99987Z" fill="currentColor"></path>
  </symbol>
  <symbol fill="none" xmlns="http://www.w3.org/2000/svg" viewBox="0 0 24 24" id="ic_whatsapp">
    <path fill-rule="evenodd" clip-rule="evenodd" d="M12 24C9.95951 24 7.95101 23.4722 6.16146 22.4706L1.33867 23.897C0.985754 24 0.60085 23.902 0.342914 23.6352C0.0849788 23.3703 -0.003999 22.9834 0.111972 22.6326L1.62859 18.0185C0.56086 16.1853 0 14.1151 0 12C0 5.38376 5.38265 0 12 0C18.6163 0 24 5.38376 24 12C24 18.6162 18.6163 24 12 24ZM12 1.99017C6.47938 1.99017 1.9895 6.4803 1.9895 12C1.9895 13.8942 2.53037 15.7484 3.55511 17.3598C3.71607 17.6097 3.75506 17.9205 3.66108 18.2034L2.59335 21.4511L6.0095 20.4415C6.10147 20.4145 6.19745 20.4005 6.29143 20.4005C6.47238 20.4005 6.65134 20.4505 6.8093 20.5464C8.3809 21.504 10.1765 22.0098 12 22.0098C17.5196 22.0098 22.0105 17.5197 22.0105 12C22.0105 6.4803 17.5196 1.99017 12 1.99017ZM15.878 16.9459C15.3862 16.9889 15.3862 17.3378 12.6628 16.2922C9.93951 15.2436 8.22094 12.5158 8.08698 12.3419C7.95201 12.1669 6.99225 10.9234 6.99225 9.63499C6.99225 8.34952 7.68408 7.71579 7.93002 7.45589C8.17496 7.193 8.46588 7.12803 8.64384 7.12803C8.82179 7.12803 9.00075 7.14902 9.15771 7.14902C9.31467 7.14902 9.53761 7.06206 9.76056 7.58484C9.9845 8.10962 10.5194 9.39709 10.5864 9.52803C10.6533 9.65898 10.6983 9.80991 10.6083 9.98584C10.5194 10.1598 10.4744 10.2697 10.3414 10.4217C10.2074 10.5746 10.0585 10.7615 9.93951 10.8815C9.80555 11.0104 9.66558 11.1514 9.82154 11.4142C9.9785 11.6761 10.5154 12.5318 11.3122 13.2265C12.3349 14.1171 13.1987 14.393 13.4666 14.5239C13.7346 14.6549 13.8905 14.6339 14.0455 14.457C14.2024 14.283 14.7173 13.6953 14.8953 13.4334C15.0732 13.1705 15.2512 13.2155 15.4981 13.3025C15.7431 13.3894 17.0607 14.0222 17.3287 14.1531C17.5966 14.283 17.7746 14.349 17.8415 14.457C17.9075 14.5669 17.9075 15.0917 17.6856 15.7025C17.4616 16.3132 16.3679 16.903 15.878 16.9459Z" fill="currentColor"></path>
  </symbol>
</svg>