<svg width="0" height="0" class="hidden">
  <symbol fill="none" xmlns="http://www.w3.org/2000/svg" viewBox="0 0 18 18" id="ic_add">
    <path fill-rule="evenodd" clip-rule="evenodd" d="M1 8.99993C1.00028 5.18354 3.69637 1.89881 7.43947 1.15452C11.1826 0.41023 14.9302 2.41368 16.3904 5.93965C17.8507 9.46562 16.6169 13.5321 13.4435 15.6522C10.2702 17.7723 6.04119 17.3555 3.34274 14.6568C1.84256 13.1564 0.999847 11.1216 1 8.99993Z" stroke="currentColor" stroke-width="2" stroke-linecap="round" stroke-linejoin="round"></path>
    <path d="M5.99973 7.99979C5.44744 7.99979 4.99973 8.44751 4.99973 8.99979C4.99973 9.55208 5.44744 9.99979 5.99973 9.99979V8.99979V7.99979ZM8.99957 9.99979C9.55186 9.99979 9.99957 9.55208 9.99957 8.99979C9.99957 8.44751 9.55186 7.99979 8.99957 7.99979V8.99979V9.99979ZM8.99956 7.99979C8.44728 7.99979 7.99956 8.44751 7.99956 8.99979C7.99956 9.55208 8.44728 9.99979 8.99956 9.99979V8.99979V7.99979ZM11.9994 9.99979C12.5517 9.99979 12.9994 9.55208 12.9994 8.99979C12.9994 8.44751 12.5517 7.99979 11.9994 7.99979V8.99979V9.99979ZM9.99958 8.99987C9.99958 8.44758 9.55186 7.99987 8.99958 7.99987C8.44729 7.99987 7.99958 8.44758 7.99958 8.99987H8.99958H9.99958ZM7.99958 11.9997C7.99958 12.552 8.44729 12.9997 8.99958 12.9997C9.55186 12.9997 9.99958 12.552 9.99958 11.9997H8.99958H7.99958ZM7.99958 8.99988C7.99958 9.55216 8.44729 9.99988 8.99958 9.99988C9.55186 9.99988 9.99958 9.55216 9.99958 8.99988H8.99958H7.99958ZM9.99958 6.00003C9.99958 5.44775 9.55186 5.00003 8.99958 5.00003C8.44729 5.00003 7.99958 5.44775 7.99958 6.00003H8.99958H9.99958ZM5.99973 8.99979V9.99979H8.99957V8.99979V7.99979H5.99973V8.99979ZM8.99956 8.99979V9.99979H11.9994V8.99979V7.99979H8.99956V8.99979ZM8.99958 8.99987H7.99958V11.9997H8.99958H9.99958V8.99987H8.99958ZM8.99958 8.99988H9.99958V6.00003H8.99958H7.99958V8.99988H8.99958Z" fill="currentColor"></path>
  </symbol>
  <symbol fill="none" xmlns="http://www.w3.org/2000/svg" viewBox="0 0 12 12" id="ic_arr_ver">
    <path d="M9 5L6.35355 7.84269C6.15829 8.05244 5.84171 8.05244 5.64645 7.84269L3 5" stroke="currentColor" stroke-width="2" stroke-linecap="round"></path>
  </symbol>
  <symbol fill="none" xmlns="http://www.w3.org/2000/svg" viewBox="0 0 32 32" id="ic_arrow_hor">
    <path d="M13.6667 9.33325L6.66675 15.9999M6.66675 15.9999L13.6667 22.6666M6.66675 15.9999L25.3334 15.9999" stroke="currentColor" stroke-width="2" stroke-linecap="round" stroke-linejoin="round"></path>
  </symbol>
  <symbol fill="none" xmlns="http://www.w3.org/2000/svg" viewBox="0 0 26 24" id="ic_arrow_hor2">
    <path d="M25 12.5H2.03482M10.8676 2L1.51741 11.2626C0.82753 11.946 0.82753 13.054 1.51741 13.7374L10.8676 23" stroke="currentColor" stroke-width="2" stroke-linecap="round"></path>
  </symbol>
  <symbol fill="none" xmlns="http://www.w3.org/2000/svg" viewBox="0 0 18 18" id="ic_cart">
    <path d="M1 2H1.55435C2.48749 2 3.27094 2.67244 3.37213 3.56022L4.11358 10.0648C4.21478 10.9526 4.99823 11.625 5.93137 11.625H13.8421C14.6779 11.625 15.4074 11.0826 15.6139 10.3074L16.8801 3.98852C16.9421 3.67907 16.7055 3.39028 16.3899 3.39028H3.34397M4.31406 14.7968H4.99978M4.31406 15.4531H4.99978M14.3712 14.7968H15.0569M14.3712 15.4531H15.0569M5.57143 15.125C5.57143 15.6082 5.16209 16 4.65714 16C4.1522 16 3.74286 15.6082 3.74286 15.125C3.74286 14.6418 4.1522 14.25 4.65714 14.25C5.16209 14.25 5.57143 14.6418 5.57143 15.125ZM15.6286 15.125C15.6286 15.6082 15.2192 16 14.7143 16C14.2093 16 13.8 15.6082 13.8 15.125C13.8 14.6418 14.2093 14.25 14.7143 14.25C15.2192 14.25 15.6286 14.6418 15.6286 15.125Z" stroke="currentColor" stroke-width="2" stroke-linecap="round"></path>
  </symbol>
  <symbol fill="none" xmlns="http://www.w3.org/2000/svg" viewBox="0 0 32 32" id="ic_cart_thin">
    <path d="M1.77783 3.55554H2.76334C4.42226 3.55554 5.81505 4.75099 5.99496 6.32926L7.31309 17.8929C7.49299 19.4712 8.88579 20.6667 10.5447 20.6667H24.6082C26.0942 20.6667 27.391 19.7023 27.7582 18.3243L30.1024 6.62538C30.1644 6.31594 29.9277 6.02715 29.6121 6.02715H5.94489M7.6695 26.3054H8.88855M7.6695 27.4721H8.88855M25.5489 26.3054H26.7679M25.5489 27.4721H26.7679M9.90482 26.8889C9.90482 27.748 9.1771 28.4444 8.27942 28.4444C7.38174 28.4444 6.65402 27.748 6.65402 26.8889C6.65402 26.0298 7.38174 25.3333 8.27942 25.3333C9.1771 25.3333 9.90482 26.0298 9.90482 26.8889ZM27.7842 26.8889C27.7842 27.748 27.0565 28.4444 26.1588 28.4444C25.2611 28.4444 24.5334 27.748 24.5334 26.8889C24.5334 26.0298 25.2611 25.3333 26.1588 25.3333C27.0565 25.3333 27.7842 26.0298 27.7842 26.8889Z" stroke="currentColor" stroke-width="2" stroke-linecap="round"></path>
  </symbol>
  <symbol fill="none" xmlns="http://www.w3.org/2000/svg" viewBox="0 0 16 16" id="ic_check">
    <path d="M2 9.00798L6 13L14 5" stroke="currentColor" stroke-width="1.5" stroke-linecap="round" stroke-linejoin="round"></path>
  </symbol>
  <symbol fill="none" xmlns="http://www.w3.org/2000/svg" viewBox="0 0 16 16" id="ic_close">
    <path d="M0.293028 14.2928C-0.0975708 14.6832 -0.0976914 15.3164 0.292759 15.707C0.683208 16.0976 1.31637 16.0977 1.70697 15.7072L1 15L0.293028 14.2928ZM8.70697 8.70991C9.09757 8.31946 9.09769 7.6863 8.70724 7.2957C8.31679 6.9051 7.68363 6.90498 7.29303 7.29543L8 8.00267L8.70697 8.70991ZM7.29262 7.29583C6.90225 7.6865 6.90249 8.31967 7.29316 8.71004C7.68384 9.10042 8.317 9.10018 8.70738 8.7095L8 8.00267L7.29262 7.29583ZM15.7047 1.70684C16.0951 1.31616 16.0948 0.682999 15.7042 0.292624C15.3135 -0.0977516 14.6803 -0.0975105 14.29 0.293163L14.9973 1L15.7047 1.70684ZM8.70697 7.29543C8.31637 6.90498 7.68321 6.9051 7.29276 7.2957C6.90231 7.6863 6.90243 8.31946 7.29303 8.70991L8 8.00267L8.70697 7.29543ZM14.293 15.7072C14.6836 16.0977 15.3168 16.0976 15.7072 15.707C16.0977 15.3164 16.0976 14.6832 15.707 14.2928L15 15L14.293 15.7072ZM7.29276 8.70964C7.68321 9.10024 8.31637 9.10036 8.70697 8.70991C9.09757 8.31946 9.09769 7.68629 8.70724 7.29569L8 8.00267L7.29276 8.70964ZM1.70724 0.293028C1.31679 -0.0975708 0.683626 -0.0976913 0.293028 0.292759C-0.0975708 0.683209 -0.0976913 1.31637 0.292759 1.70697L1 1L1.70724 0.293028ZM1 15L1.70697 15.7072L8.70697 8.70991L8 8.00267L7.29303 7.29543L0.293028 14.2928L1 15ZM8 8.00267L8.70738 8.7095L15.7047 1.70684L14.9973 1L14.29 0.293163L7.29262 7.29583L8 8.00267ZM8 8.00267L7.29303 8.70991L14.293 15.7072L15 15L15.707 14.2928L8.70697 7.29543L8 8.00267ZM8 8.00267L8.70724 7.29569L1.70724 0.293028L1 1L0.292759 1.70697L7.29276 8.70964L8 8.00267Z" fill="currentColor"></path>
  </symbol>
  <symbol fill="none" xmlns="http://www.w3.org/2000/svg" viewBox="0 0 26 26" id="ic_close_thin">
    <path d="M0.293028 24.2928C-0.0975707 24.6832 -0.0976914 25.3164 0.292758 25.707C0.683208 26.0976 1.31637 26.0977 1.70697 25.7072L1 25L0.293028 24.2928ZM13.707 13.7118C14.0976 13.3214 14.0977 12.6882 13.7072 12.2976C13.3168 11.907 12.6836 11.9069 12.293 12.2973L13 13.0046L13.707 13.7118ZM12.2926 12.2977C11.9022 12.6884 11.9025 13.3216 12.2932 13.7119C12.6838 14.1023 13.317 14.1021 13.7074 13.7114L13 13.0046L12.2926 12.2977ZM25.7028 1.70684C26.0932 1.31616 26.0929 0.683 25.7023 0.292624C25.3116 -0.0977515 24.6784 -0.0975105 24.2881 0.293162L24.9954 1L25.7028 1.70684ZM13.707 12.2973C13.3164 11.9069 12.6832 11.907 12.2928 12.2976C11.9023 12.6882 11.9024 13.3214 12.293 13.7118L13 13.0046L13.707 12.2973ZM24.293 25.7072C24.6836 26.0977 25.3168 26.0976 25.7072 25.707C26.0977 25.3164 26.0976 24.6832 25.707 24.2928L25 25L24.293 25.7072ZM12.2928 13.7115C12.6832 14.1021 13.3164 14.1023 13.707 13.7118C14.0976 13.3214 14.0977 12.6882 13.7072 12.2976L13 13.0046L12.2928 13.7115ZM1.70724 0.293028C1.31679 -0.0975708 0.683626 -0.0976913 0.293028 0.292759C-0.0975708 0.683209 -0.0976913 1.31637 0.292759 1.70697L1 1L1.70724 0.293028ZM1 25L1.70697 25.7072L13.707 13.7118L13 13.0046L12.293 12.2973L0.293028 24.2928L1 25ZM13 13.0046L13.7074 13.7114L25.7028 1.70684L24.9954 1L24.2881 0.293162L12.2926 12.2977L13 13.0046ZM13 13.0046L12.293 13.7118L24.293 25.7072L25 25L25.707 24.2928L13.707 12.2973L13 13.0046ZM13 13.0046L13.7072 12.2976L1.70724 0.293028L1 1L0.292759 1.70697L12.2928 13.7115L13 13.0046Z" fill="currentColor"></path>
  </symbol>
  <symbol fill="none" xmlns="http://www.w3.org/2000/svg" viewBox="0 0 24 24" id="ic_images">
    <path fill-rule="evenodd" clip-rule="evenodd" d="M3.5 10.4V15.7329C3.50514 16.87 3.95584 17.9585 4.7529 18.7588C5.54997 19.559 6.62809 20.0055 7.75 19.9999H16.25C17.3719 20.0055 18.45 19.559 19.2471 18.7588C20.0442 17.9585 20.4949 16.87 20.5 15.7329V10.4C20.4949 9.26285 20.0442 8.17438 19.2471 7.37411C18.45 6.57384 17.3719 6.12736 16.25 6.13292C15.6608 6.05371 15.1573 5.66338 14.9276 5.1077C14.5511 4.42197 13.8368 3.99772 13.0625 4.00001H10.9375C10.1632 3.99772 9.44888 4.42197 9.07236 5.1077C8.84269 5.66338 8.33924 6.05371 7.75 6.13292C6.62809 6.12736 5.54997 6.57384 4.7529 7.37411C3.95584 8.17438 3.50514 9.26285 3.5 10.4Z" stroke="currentColor" stroke-width="1.5" stroke-linecap="round" stroke-linejoin="round"></path>
    <path fill-rule="evenodd" clip-rule="evenodd" d="M12 15.7329C10.55 15.7186 9.38463 14.5181 9.3942 13.0483C9.40377 11.5786 10.5847 10.3937 12.0347 10.3989C13.4848 10.404 14.6575 11.5973 14.6569 13.067C14.6533 13.7777 14.3714 14.4577 13.8732 14.9577C13.3749 15.4576 12.7011 15.7365 12 15.7329Z" stroke="currentColor" stroke-width="1.5" stroke-linecap="round" stroke-linejoin="round"></path>
  </symbol>
  <symbol fill="none" xmlns="http://www.w3.org/2000/svg" viewBox="0 0 16 16" id="ic_loading">
    <path d="M1 8H4M8 1V4M15 8H12M8 15V12M3.05003 12.95L5.17135 10.8287M3.05003 3.05001L5.17135 5.17133M12.95 3.05001L10.8287 5.17133M12.95 12.95L10.8287 10.8287" stroke="currentColor" stroke-width="1.5" stroke-linecap="round"></path>
  </symbol>
  <symbol fill="none" xmlns="http://www.w3.org/2000/svg" viewBox="0 0 16 16" id="ic_location">
    <path d="M12.9495 2.05891C14.2346 3.34932 14.9696 5.09106 14.9991 6.91585C15.0285 8.74063 14.3502 10.5054 13.1074 11.837L12.9495 12.001L9.64948 15.3142C9.23076 15.7345 8.66863 15.9791 8.07698 15.9987C7.48532 16.0183 6.90837 15.8113 6.46301 15.4197L6.35102 15.3142L3.05021 12.0002C1.73748 10.6819 1 8.89391 1 7.02956C1 5.1652 1.73748 3.37721 3.05021 2.05891C4.36294 0.740612 6.14338 0 7.99986 0C9.85634 0 11.6368 0.740612 12.9495 2.05891ZM7.99986 4.68638C7.69345 4.68638 7.39004 4.74699 7.10696 4.86475C6.82387 4.9825 6.56665 5.1551 6.34999 5.37268C6.13332 5.59027 5.96146 5.84858 5.8442 6.13286C5.72694 6.41715 5.66659 6.72185 5.66659 7.02956C5.66659 7.33727 5.72694 7.64196 5.8442 7.92625C5.96146 8.21054 6.13332 8.46884 6.34999 8.68643C6.56665 8.90401 6.82387 9.07661 7.10696 9.19436C7.39004 9.31212 7.69345 9.37273 7.99986 9.37273C8.61868 9.37273 9.21216 9.12586 9.64973 8.68643C10.0873 8.247 10.3331 7.651 10.3331 7.02956C10.3331 6.40811 10.0873 5.81211 9.64973 5.37268C9.21216 4.93325 8.61868 4.68638 7.99986 4.68638Z" fill="currentColor"></path>
  </symbol>
  <symbol fill="none" xmlns="http://www.w3.org/2000/svg" viewBox="0 0 24 24" id="ic_max">
    <path fill-rule="evenodd" clip-rule="evenodd" d="M12.2578 23.9315C9.90255 23.9315 8.808 23.5862 6.90542 22.2049C5.70199 23.7588 1.89111 24.9733 1.72492 22.8955C1.72492 21.3358 1.38108 20.0178 0.9914 18.5789C0.527219 16.8062 0 14.832 0 11.9715C0 5.13969 5.58164 0 12.1948 0C18.8137 0 23.9999 5.39294 23.9999 12.0348C24.0221 18.574 18.7687 23.8966 12.2578 23.9315ZM12.3553 5.90518C9.13464 5.73827 6.62462 7.97717 6.06875 11.488C5.6103 14.3946 6.42405 17.9342 7.11746 18.1184C7.44983 18.199 8.28651 17.5198 8.808 16.9961C9.6703 17.5944 10.6745 17.9537 11.7192 18.0378C15.0563 18.1991 17.9077 15.6475 18.1318 12.2996C18.2622 8.94458 15.6928 6.10293 12.3553 5.91094L12.3553 5.90518Z" fill="currentColor"></path>
  </symbol>
  <symbol fill="none" xmlns="http://www.w3.org/2000/svg" viewBox="0 0 26 18" id="ic_menu">
    <path d="M1 8C0.447715 8 0 8.44772 0 9C0 9.55229 0.447715 10 1 10V9V8ZM25 10C25.5523 10 26 9.55229 26 9C26 8.44772 25.5523 8 25 8V9V10ZM1 16C0.447715 16 0 16.4477 0 17C0 17.5523 0.447715 18 1 18V17V16ZM25 18C25.5523 18 26 17.5523 26 17C26 16.4477 25.5523 16 25 16V17V18ZM1 0C0.447715 0 0 0.447715 0 1C0 1.55228 0.447715 2 1 2V1V0ZM25 2C25.5523 2 26 1.55228 26 1C26 0.447715 25.5523 0 25 0V1V2ZM1 9V10H25V9V8H1V9ZM1 17V18H25V17V16H1V17ZM1 1V2H25V1V0H1V1Z" fill="currentColor"></path>
  </symbol>
  <symbol fill="none" xmlns="http://www.w3.org/2000/svg" viewBox="0 0 18 18" id="ic_phone">
    <path fill-rule="evenodd" clip-rule="evenodd" d="M1.98794 2.55569C2.99483 1.49682 3.35068 1.19984 3.77976 1.06163C4.0767 0.98395 4.38812 0.979638 4.68711 1.04906C5.08071 1.16329 5.18483 1.2501 6.47549 2.53398C7.6094 3.66138 7.72267 3.7836 7.83137 4.00406C8.03922 4.39102 8.07169 4.84816 7.92062 5.26053C7.8062 5.57465 7.64372 5.78254 6.95606 6.47131L6.50753 6.92022C6.38974 7.03972 6.36206 7.22118 6.43888 7.37026C7.4354 9.06748 8.84922 10.4828 10.5466 11.4824C10.7419 11.5868 10.9825 11.5531 11.1415 11.399L11.5729 10.9752C11.8395 10.7024 12.1219 10.4453 12.4185 10.2053C12.8843 9.91977 13.4648 9.8943 13.954 10.1379C14.1931 10.2522 14.2721 10.323 15.4415 11.4881C16.6474 12.6886 16.6818 12.7263 16.8145 13.0015C17.0643 13.4572 17.0617 14.0091 16.8076 14.4625C16.6783 14.7183 16.5994 14.8109 15.9209 15.5031C15.5112 15.9211 15.1257 16.3026 15.0639 16.3586C14.5041 16.8213 13.786 17.0482 13.0615 16.9914C11.736 16.8708 10.453 16.4618 9.30281 15.7932C6.75483 14.4456 4.58573 12.482 2.99369 10.082C2.64693 9.57968 2.33865 9.05198 2.07146 8.50337C1.35472 7.27702 0.984586 5.87956 1.00049 4.45982C1.05521 3.71708 1.41201 3.02905 1.98794 2.55569Z" stroke="currentColor" stroke-width="2" stroke-linecap="round" stroke-linejoin="round"></path>
  </symbol>
  <symbol fill="none" xmlns="http://www.w3.org/2000/svg" viewBox="0 0 16 16" id="ic_phone_fill">
    <path fill-rule="evenodd" clip-rule="evenodd" d="M0.987937 1.55569C1.99483 0.496823 2.35068 0.199838 2.77976 0.0616264C3.0767 -0.0160497 3.38812 -0.0203622 3.68711 0.0490617C4.08071 0.163287 4.18483 0.250097 5.47549 1.53398C6.6094 2.66138 6.72267 2.7836 6.83137 3.00406C7.03922 3.39102 7.07169 3.84816 6.92062 4.26053C6.8062 4.57465 6.64372 4.78254 5.95606 5.47131L5.50753 5.92022C5.38974 6.03972 5.36206 6.22118 5.43888 6.37026C6.4354 8.06748 7.84922 9.48282 9.54656 10.4824C9.74193 10.5868 9.98253 10.5531 10.1415 10.399L10.5729 9.9752C10.8395 9.70238 11.1219 9.44531 11.4185 9.20532C11.8843 8.91977 12.4648 8.8943 12.954 9.13793C13.1931 9.25216 13.2721 9.32298 14.4415 10.4881C15.6474 11.6886 15.6818 11.7263 15.8145 12.0015C16.0643 12.4572 16.0617 13.0091 15.8076 13.4625C15.6783 13.7183 15.5994 13.8109 14.9209 14.5031C14.5112 14.9211 14.1257 15.3026 14.0639 15.3586C13.5041 15.8213 12.786 16.0482 12.0615 15.9914C10.736 15.8708 9.45303 15.4618 8.30281 14.7932C5.75483 13.4456 3.58573 11.482 1.99369 9.08196C1.64693 8.57968 1.33865 8.05198 1.07146 7.50338C0.354717 6.27702 -0.0154139 4.87956 0.000491864 3.45982C0.0552111 2.71708 0.412009 2.02905 0.987937 1.55569Z" fill="currentColor"></path>
  </symbol>
  <symbol fill="none" xmlns="http://www.w3.org/2000/svg" viewBox="0 0 16 16" id="ic_search">
    <path d="M15 15L11.85 11.85M13.6 7.3C13.6 10.7794 10.7794 13.6 7.3 13.6C3.82061 13.6 1 10.7794 1 7.3C1 3.82061 3.82061 1 7.3 1C10.7794 1 13.6 3.82061 13.6 7.3Z" stroke="currentColor" stroke-width="2" stroke-linecap="round"></path>
  </symbol>
  <symbol fill="none" xmlns="http://www.w3.org/2000/svg" viewBox="0 0 24 24" id="ic_search_thin">
    <path d="M22.5 22.5L17.775 17.775M20.4 10.95C20.4 16.1691 16.1691 20.4 10.95 20.4C5.73091 20.4 1.5 16.1691 1.5 10.95C1.5 5.73091 5.73091 1.5 10.95 1.5C16.1691 1.5 20.4 5.73091 20.4 10.95Z" stroke="currentColor" stroke-width="2" stroke-linecap="round"></path>
  </symbol>
  <symbol fill="none" xmlns="http://www.w3.org/2000/svg" viewBox="0 0 16 16" id="ic_sitemap">
    <path fill-rule="evenodd" clip-rule="evenodd" d="M5.6 1.53743C5.6 1.12968 5.76857 0.738625 6.06863 0.450302C6.36869 0.161978 6.77565 0 7.2 0H8.8C9.22435 0 9.63131 0.161978 9.93137 0.450302C10.2314 0.738625 10.4 1.12968 10.4 1.53743V3.07485C10.4 3.4826 10.2314 3.87366 9.93137 4.16198C9.63131 4.4503 9.22435 4.61228 8.8 4.61228V6.14971H12C12.6365 6.14971 13.247 6.39268 13.6971 6.82516C14.1471 7.25765 14.4 7.84422 14.4 8.45585V9.22456C14.8243 9.22456 15.2313 9.38654 15.5314 9.67486C15.8314 9.96319 16 10.3542 16 10.762V12.2994C16 12.7072 15.8314 13.0982 15.5314 13.3865C15.2313 13.6749 14.8243 13.8368 14.4 13.8368H12.8C12.3757 13.8368 11.9687 13.6749 11.6686 13.3865C11.3686 13.0982 11.2 12.7072 11.2 12.2994V10.762C11.2 10.3542 11.3686 9.96319 11.6686 9.67486C11.9687 9.38654 12.3757 9.22456 12.8 9.22456V8.45585C12.8 8.25197 12.7157 8.05645 12.5657 7.91229C12.4157 7.76812 12.2122 7.68714 12 7.68714H8.8V9.22456C9.22435 9.22456 9.63131 9.38654 9.93137 9.67486C10.2314 9.96319 10.4 10.3542 10.4 10.762V12.2994C10.4 12.7072 10.2314 13.0982 9.93137 13.3865C9.63131 13.6749 9.22435 13.8368 8.8 13.8368H7.2C6.77565 13.8368 6.36869 13.6749 6.06863 13.3865C5.76857 13.0982 5.6 12.7072 5.6 12.2994V10.762C5.6 10.3542 5.76857 9.96319 6.06863 9.67486C6.36869 9.38654 6.77565 9.22456 7.2 9.22456V7.68714H4C3.78783 7.68714 3.58434 7.76812 3.43431 7.91229C3.28429 8.05645 3.2 8.25197 3.2 8.45585V9.22456C3.62435 9.22456 4.03131 9.38654 4.33137 9.67486C4.63143 9.96319 4.8 10.3542 4.8 10.762V12.2994C4.8 12.7072 4.63143 13.0982 4.33137 13.3865C4.03131 13.6749 3.62435 13.8368 3.2 13.8368H1.6C1.17565 13.8368 0.768687 13.6749 0.468629 13.3865C0.168571 13.0982 0 12.7072 0 12.2994V10.762C0 10.3542 0.168571 9.96319 0.468629 9.67486C0.768687 9.38654 1.17565 9.22456 1.6 9.22456V8.45585C1.6 7.84422 1.85286 7.25765 2.30294 6.82516C2.75303 6.39268 3.36348 6.14971 4 6.14971H7.2V4.61228C6.77565 4.61228 6.36869 4.4503 6.06863 4.16198C5.76857 3.87366 5.6 3.4826 5.6 3.07485V1.53743Z" fill="currentColor"></path>
  </symbol>
  <symbol fill="none" xmlns="http://www.w3.org/2000/svg" viewBox="0 0 17 17" id="ic_star">
    <path fill-rule="evenodd" clip-rule="evenodd" d="M10.6131 4.51714L8.5 0.5L6.38686 4.51714C6.23757 4.8107 6.0215 5.06514 5.756 5.26C5.48921 5.45586 5.18049 5.58694 4.85429 5.64286L0.5 6.49657L3.54 10.132C3.95574 10.5876 4.15191 11.202 4.07714 11.8143L3.49886 16.5L7.508 14.5571C7.81728 14.4074 8.15636 14.3292 8.5 14.3286C8.82242 14.3296 9.13989 14.4079 9.42571 14.5571L13.5286 16.38L12.9503 11.7503C12.8772 11.1394 13.0737 10.5269 13.4886 10.0726L16.5 6.49657L12.1457 5.64286C11.8191 5.58711 11.51 5.45602 11.2429 5.26C10.9778 5.065 10.7621 4.81058 10.6131 4.51714Z" fill="currentColor" stroke="currentColor" stroke-linecap="round" stroke-linejoin="round"></path>
  </symbol>
  <symbol fill="none" xmlns="http://www.w3.org/2000/svg" viewBox="0 0 17 17" id="ic_star_half">
    <path fill-rule="evenodd" clip-rule="evenodd" d="M10.6131 4.51714L8.5 0.5L6.38686 4.51714C6.23757 4.8107 6.0215 5.06514 5.756 5.26C5.48921 5.45586 5.18049 5.58694 4.85429 5.64286L0.5 6.49657L3.54 10.132C3.95574 10.5876 4.15191 11.202 4.07714 11.8143L3.49886 16.5L7.508 14.5571C7.81728 14.4074 8.15636 14.3292 8.5 14.3286C8.82242 14.3296 9.13989 14.4079 9.42571 14.5571L13.5286 16.38L12.9503 11.7503C12.8772 11.1394 13.0737 10.5269 13.4886 10.0726L16.5 6.49657L12.1457 5.64286C11.8191 5.58711 11.51 5.45602 11.2429 5.26C10.9778 5.065 10.7621 4.81058 10.6131 4.51714Z" fill="var(--bg_color)" stroke="var(--bg_color)" stroke-linecap="round" stroke-linejoin="round"></path>
    <path fill-rule="evenodd" clip-rule="evenodd" d="M8.5 1.16667V0.5L6.38686 4.51714C6.23757 4.8107 6.0215 5.06514 5.756 5.26C5.48921 5.45586 5.18049 5.58694 4.85429 5.64286L0.5 6.49657L3.54 10.132C3.95574 10.5876 4.15191 11.202 4.07714 11.8143L3.49886 16.5L7.508 14.5571C7.81728 14.4074 8.15636 14.3292 8.5 14.3286C8.5 13.8333 8.5 14.8333 8.5 13.5V13.1667V12.1667C8.5 11.5 8.5 11.5 8.5 10.8333V8.16667V5.64286C8.5 5.16667 8.5 3.5 8.5 2.83333C8.5 2.5 8.5 1.5 8.5 1.16667Z" fill="currentColor" stroke="currentColor" stroke-linecap="round" stroke-linejoin="round"></path>
  </symbol>
  <symbol fill="none" xmlns="http://www.w3.org/2000/svg" viewBox="0 0 24 24" id="ic_sub_services1">
    <path d="M4 21H8.57143V7.58824H4V21ZM4 4.23529H4.37714L5.14286 6.47059H7.42857L8.19429 4.23529H8.57143V3.11765H4V4.23529Z" fill="currentColor"></path>
    <path d="M13.1429 5.35294C13.1429 5.9702 12.6312 6.47059 12 6.47059C11.3688 6.47059 10.8571 5.9702 10.8571 5.35294C10.8571 4.73568 11.3688 4.23529 12 4.23529C12.6312 4.23529 13.1429 4.73568 13.1429 5.35294Z" fill="currentColor"></path>
    <path d="M16.5714 7.58824C16.5714 8.20549 16.0598 8.70588 15.4286 8.70588C14.7974 8.70588 14.2857 8.20549 14.2857 7.58824C14.2857 6.97098 14.7974 6.47059 15.4286 6.47059C16.0598 6.47059 16.5714 6.97098 16.5714 7.58824Z" fill="currentColor"></path>
    <path d="M16.5714 4.23529C16.5714 4.85255 16.0598 5.35294 15.4286 5.35294C14.7974 5.35294 14.2857 4.85255 14.2857 4.23529C14.2857 3.61803 14.7974 3.11765 15.4286 3.11765C16.0598 3.11765 16.5714 3.61803 16.5714 4.23529Z" fill="currentColor"></path>
    <path d="M20 3.11765C20 3.73491 19.4883 4.23529 18.8571 4.23529C18.226 4.23529 17.7143 3.73491 17.7143 3.11765C17.7143 2.50039 18.226 2 18.8571 2C19.4883 2 20 2.50039 20 3.11765Z" fill="currentColor"></path>
    <path d="M20 9.82353C20 10.4408 19.4883 10.9412 18.8571 10.9412C18.226 10.9412 17.7143 10.4408 17.7143 9.82353C17.7143 9.20627 18.226 8.70588 18.8571 8.70588C19.4883 8.70588 20 9.20627 20 9.82353Z" fill="currentColor"></path>
    <path d="M20 6.47059C20 7.08785 19.4883 7.58824 18.8571 7.58824C18.226 7.58824 17.7143 7.08785 17.7143 6.47059C17.7143 5.85333 18.226 5.35294 18.8571 5.35294C19.4883 5.35294 20 5.85333 20 6.47059Z" fill="currentColor"></path>
  </symbol>
  <symbol fill="none" xmlns="http://www.w3.org/2000/svg" viewBox="0 0 24 24" id="ic_sub_services2">
    <path d="M12.1546 12.4977L14.2132 11.254L16.2719 12.4977L15.7289 10.1459L17.5387 8.58556L15.1634 8.38204L14.2132 6.1659L13.2631 8.38204L10.8877 8.58556L12.6975 10.1459L12.1546 12.4977ZM6.2501 20.9778C5.75241 21.0532 5.30388 20.9365 4.90452 20.6278C4.50515 20.319 4.27501 19.9156 4.21408 19.4175L3.01508 9.53533C2.95475 9.03783 3.07541 8.5931 3.37704 8.20113C3.67868 7.80916 4.07834 7.58302 4.57604 7.52272L5.61667 7.38704V14.7591C5.61667 15.7541 5.97109 16.6059 6.67993 17.3144C7.38877 18.023 8.24089 18.3772 9.23628 18.3772H17.6519C17.5614 18.7391 17.3804 19.052 17.1089 19.3162C16.8375 19.5803 16.5057 19.7347 16.1135 19.7793L6.2501 20.9778ZM9.23628 16.5682C8.73858 16.5682 8.31268 16.3912 7.95856 16.0372C7.60444 15.6832 7.42708 15.2572 7.42648 14.7591V4.80909C7.42648 4.31159 7.60384 3.88585 7.95856 3.53187C8.31328 3.17789 8.73919 3.0006 9.23628 3H19.1902C19.6879 3 20.1141 3.17729 20.4688 3.53187C20.8235 3.88645 21.0006 4.31219 21 4.80909V14.7591C21 15.2566 20.8229 15.6826 20.4688 16.0372C20.1147 16.3918 19.6885 16.5688 19.1902 16.5682H9.23628Z" fill="currentColor"></path>
  </symbol>
  <symbol fill="none" xmlns="http://www.w3.org/2000/svg" viewBox="0 0 24 24" id="ic_sub_services3">
    <path d="M21 16.225C21 16.624 20.7783 16.9705 20.4406 17.149L12.1017 21.811C11.9328 21.937 11.7217 22 11.5 22C11.2783 22 11.0672 21.937 10.8983 21.811L2.55945 17.149C2.39015 17.0606 2.24846 16.9278 2.14982 16.7648C2.05118 16.6019 1.99936 16.4152 2.00001 16.225V6.775C2.00001 6.376 2.22167 6.0295 2.55945 5.851L10.8983 1.189C11.0672 1.063 11.2783 1 11.5 1C11.7217 1 11.9328 1.063 12.1017 1.189L20.4406 5.851C20.7783 6.0295 21 6.376 21 6.775V16.225ZM4.11112 8.35V14.65H5.43056V12.55H6.22223C6.78213 12.55 7.3191 12.3287 7.71501 11.9349C8.11092 11.5411 8.33334 11.007 8.33334 10.45C8.33334 9.89304 8.11092 9.3589 7.71501 8.96508C7.3191 8.57125 6.78213 8.35 6.22223 8.35H4.11112ZM5.43056 11.5V9.4H5.95834C6.23829 9.4 6.50677 9.51062 6.70473 9.70754C6.90268 9.90445 7.01389 10.1715 7.01389 10.45C7.01389 10.7285 6.90268 10.9955 6.70473 11.1925C6.50677 11.3894 6.23829 11.5 5.95834 11.5H5.43056ZM9.125 8.35V14.65H10.4444V12.55H11.2361L11.9328 14.65H13.3261L12.4922 12.1405C13.0094 11.7625 13.3472 11.143 13.3472 10.45C13.3472 9.89304 13.1248 9.3589 12.7289 8.96508C12.333 8.57125 11.796 8.35 11.2361 8.35H9.125ZM10.4444 11.5V9.4H10.9722C11.2522 9.4 11.5207 9.51062 11.7186 9.70754C11.9166 9.90445 12.0278 10.1715 12.0278 10.45C12.0278 10.7285 11.9166 10.9955 11.7186 11.1925C11.5207 11.3894 11.2522 11.5 10.9722 11.5H10.4444ZM16.7778 8.35C15.3211 8.35 14.1389 9.757 14.1389 11.5C14.1389 13.243 15.3211 14.65 16.7778 14.65C18.2344 14.65 19.4167 13.243 19.4167 11.5C19.4167 9.757 18.2344 8.35 16.7778 8.35ZM16.7778 9.6625C17.58 9.6625 18.2344 10.4815 18.2344 11.5C18.2344 12.5185 17.58 13.3375 16.7778 13.3375C15.9756 13.3375 15.3317 12.5185 15.3317 11.5C15.3317 10.4815 15.9756 9.6625 16.7778 9.6625Z" fill="currentColor"></path>
  </symbol>
  <symbol fill="none" xmlns="http://www.w3.org/2000/svg" viewBox="0 0 24 24" id="ic_sub_services4">
    <path d="M9.05463 20.8L8.49175 21.7699H8.4907C8.33968 22.0322 8.06194 22.1962 7.75885 22.1993C7.61311 22.1962 7.46949 22.157 7.34169 22.0862C6.95201 21.8556 6.81261 21.3574 7.02698 20.9576L7.58985 19.9877C7.82324 19.5826 8.33965 19.444 8.74413 19.6778C9.1486 19.9116 9.288 20.4288 9.0546 20.8339L9.05463 20.8ZM3.85033 16.5132L2.97168 17.1108C2.61578 17.3731 2.52708 17.8681 2.76891 18.2394C2.92204 18.4689 3.18077 18.6043 3.45537 18.6C3.63067 18.6032 3.80069 18.5482 3.94011 18.4424L4.86418 17.7994C5.21902 17.536 5.30772 17.041 5.06694 16.6708C4.92965 16.4825 4.72268 16.3598 4.49244 16.3302C4.26222 16.2995 4.02987 16.3662 3.85033 16.5132ZM7.58985 3.88859C7.82325 4.29369 8.33965 4.43224 8.74413 4.19849C9.1486 3.96474 9.288 3.44754 9.0546 3.04244L8.49173 2.0609H8.49067C8.25728 1.6558 7.74087 1.51619 7.3364 1.74995C6.93192 1.9837 6.79358 2.50196 7.02698 2.90705L7.58985 3.88859ZM3.85033 7.37475C3.99712 7.45936 4.16504 7.4985 4.33401 7.48686C4.60964 7.49109 4.8684 7.35571 5.02152 7.1262C5.25703 6.75495 5.16937 6.26418 4.81876 5.99763L3.89469 5.34397C3.52506 5.10176 3.03083 5.1906 2.76891 5.54704C2.53235 5.9183 2.62106 6.40907 2.97168 6.67455L3.85033 7.37475ZM3.85033 12C3.84716 11.7705 3.75211 11.5516 3.58736 11.3929C3.42262 11.2343 3.20084 11.1475 2.97169 11.1539H1.84485C1.37806 11.1539 1 11.5325 1 12C1 12.4675 1.37806 12.8462 1.84485 12.8462H2.97169C3.43529 12.8398 3.81022 12.4643 3.81654 12L3.85033 12ZM23 12C22.9937 12.4643 22.6187 12.8398 22.1551 12.8462H20.7812L21.5923 13.6585C21.9218 13.9885 21.9218 14.5237 21.5923 14.8547C21.2617 15.1848 20.7274 15.1848 20.3978 14.8547L18.3924 12.8462H13.4584L17.4683 16.8622H20.3081C20.7738 16.8622 21.1529 17.2419 21.1529 17.7084C21.1529 18.1759 20.7738 18.5545 20.3081 18.5545H19.1813L20.1275 19.5022C20.288 19.6598 20.3788 19.8756 20.3788 20.1009C20.3788 20.3262 20.288 20.5409 20.1275 20.6985C19.9701 20.8592 19.7547 20.9491 19.5308 20.947C19.3059 20.9481 19.0915 20.8582 18.9331 20.6985L17.9869 19.7508V20.8793C17.9869 21.3458 17.6088 21.7255 17.142 21.7255C16.6763 21.7255 16.2972 21.3458 16.2972 20.8793V18.0585L12.8501 14.6062V22.1538C12.8501 22.6214 12.4721 23 12.0053 23C11.5396 23 11.1604 22.6214 11.1604 22.1538V19.5699C8.65545 19.296 6.44818 17.7961 5.26863 15.5655C4.08899 13.3359 4.08899 10.664 5.26863 8.43451C6.44826 6.20383 8.65534 4.70412 11.1604 4.4301V1.84615C11.1604 1.37864 11.5396 1 12.0053 1C12.4721 1 12.8501 1.37864 12.8501 1.84615V9.06703L16.2972 5.61472V2.77164C16.2972 2.30413 16.6763 1.92549 17.142 1.92549C17.6088 1.92549 17.9869 2.30413 17.9869 2.77164V3.90021L18.9109 2.97472C19.0672 2.80655 19.2848 2.70924 19.514 2.70501C19.7431 2.70078 19.9639 2.79068 20.1265 2.95251C20.288 3.11539 20.3778 3.33646 20.3736 3.56596C20.3694 3.79548 20.2722 4.01336 20.1053 4.16991L19.1591 5.11761H20.2859H20.2849C20.7517 5.11761 21.1297 5.49731 21.1297 5.96376C21.1297 6.43127 20.7517 6.80991 20.2849 6.80991H17.4694L13.11 11.1539H18.3702L20.3757 9.1453C20.7084 8.8354 21.2269 8.84385 21.549 9.16645C21.87 9.48905 21.8796 10.0084 21.5691 10.3415L20.758 11.1538H22.1214C22.585 11.1602 22.9599 11.5357 22.9663 12L23 12Z" fill="currentColor"></path>
  </symbol>
  <symbol fill="none" xmlns="http://www.w3.org/2000/svg" viewBox="0 0 24 24" id="ic_sub_services5">
    <path fill-rule="evenodd" clip-rule="evenodd" d="M10.6 3L5 14.0764H12V21L19 8.53886H12L10.6 3Z" fill="currentColor"></path>
  </symbol>
  <symbol fill="none" xmlns="http://www.w3.org/2000/svg" viewBox="0 0 24 24" id="ic_tg">
    <path fill-rule="evenodd" clip-rule="evenodd" d="M1.64987 10.4709C8.09231 7.36615 12.3883 5.31934 14.5378 4.33042C20.675 1.50685 21.9503 1.01637 22.7815 1.00017C22.9643 0.996611 23.3731 1.04673 23.6379 1.28437C23.8614 1.48504 23.9229 1.75611 23.9524 1.94636C23.9818 2.13661 24.0185 2.57001 23.9893 2.90866C23.6568 6.7739 22.2177 16.1538 21.4856 20.483C21.1758 22.3148 20.5658 22.929 19.9753 22.9891C18.6919 23.1197 17.7174 22.051 16.4744 21.1497C14.5294 19.7394 13.4305 18.8615 11.5425 17.4853C9.36064 15.8949 10.7751 15.0208 12.0185 13.5922C12.344 13.2184 17.9985 7.52943 18.1079 7.01335C18.1216 6.94881 18.1343 6.70822 18.0051 6.58118C17.8759 6.45414 17.6851 6.49758 17.5475 6.53213C17.3524 6.5811 14.2452 8.85279 8.22584 13.3472C7.34386 14.0171 6.545 14.3435 5.82924 14.3264C5.04018 14.3075 3.52233 13.8329 2.39397 13.4272C1.00999 12.9296 -0.0899676 12.6665 0.00581422 11.8214C0.0557033 11.3812 0.603723 10.931 1.64987 10.4709Z" fill="currentColor"></path>
  </symbol>
  <symbol fill="none" xmlns="http://www.w3.org/2000/svg" viewBox="0 0 16 16" id="ic_thunder">
    <path fill-rule="evenodd" clip-rule="evenodd" d="M6.8 1L2 10.2304H8V16L14 5.61571H8L6.8 1Z" fill="currentColor"></path>
  </symbol>
  <symbol fill="none" xmlns="http://www.w3.org/2000/svg" viewBox="0 0 16 16" id="ic_time">
    <path d="M7.992 0C3.576 0 0 3.584 0 8C0 12.416 3.576 16 7.992 16C12.416 16 16 12.416 16 8C16 3.584 12.416 0 7.992 0ZM11.2 11.2C11.126 11.2742 11.0381 11.333 10.9413 11.3731C10.8445 11.4133 10.7408 11.434 10.636 11.434C10.5312 11.434 10.4275 11.4133 10.3307 11.3731C10.2339 11.333 10.146 11.2742 10.072 11.2L7.44 8.568C7.36441 8.49391 7.30427 8.40555 7.26308 8.30805C7.22188 8.21055 7.20044 8.10585 7.2 8V4.8C7.2 4.36 7.56 4 8 4C8.44 4 8.8 4.36 8.8 4.8V7.672L11.2 10.072C11.512 10.384 11.512 10.888 11.2 11.2Z" fill="currentColor"></path>
  </symbol>
  <symbol fill="none" xmlns="http://www.w3.org/2000/svg" viewBox="0 0 18 18" id="ic_upload">
    <path d="M2 12.4286C2 11.8763 1.55228 11.4286 1 11.4286C0.447715 11.4286 0 11.8763 0 12.4286H1H2ZM1 13.5714H0H1ZM18 12.4286C18 11.8763 17.5523 11.4286 17 11.4286C16.4477 11.4286 16 11.8763 16 12.4286H17H18ZM9.78091 1.62473C10.1259 1.19346 10.056 0.564171 9.62473 0.219162C9.19347 -0.125848 8.56418 -0.0559264 8.21917 0.375335L9.00004 1.00003L9.78091 1.62473ZM3.64774 6.08962C3.30273 6.52088 3.37265 7.15018 3.80391 7.49518C4.23518 7.84019 4.86447 7.77027 5.20948 7.33901L4.42861 6.71432L3.64774 6.08962ZM9.78104 0.375335C9.43603 -0.0559264 8.80674 -0.125848 8.37548 0.219162C7.94421 0.564171 7.87429 1.19346 8.2193 1.62473L9.00017 1.00003L9.78104 0.375335ZM12.7907 7.33901C13.1357 7.77027 13.765 7.84019 14.1963 7.49518C14.6276 7.15018 14.6975 6.52088 14.3525 6.08962L13.5716 6.71432L12.7907 7.33901ZM9.99987 1.00003C9.99987 0.447746 9.55216 3.05176e-05 8.99987 3.05176e-05C8.44759 3.05176e-05 7.99987 0.447746 7.99987 1.00003H8.99987H9.99987ZM7.99987 13.5715C7.99987 14.1237 8.44759 14.5715 8.99987 14.5715C9.55216 14.5715 9.99987 14.1237 9.99987 13.5715H8.99987H7.99987ZM1 12.4286H0V13.5714H1H2V12.4286H1ZM1 13.5714H0C0 16.0173 1.98274 18 4.42857 18V17V16C3.08731 16 2 14.9127 2 13.5714H1ZM4.42857 17V18H13.5714V17V16H4.42857V17ZM13.5714 17V18C16.0173 18 18 16.0173 18 13.5714H17H16C16 14.9127 14.9127 16 13.5714 16V17ZM17 13.5714H18V12.4286H17H16V13.5714H17ZM9.00004 1.00003L8.21917 0.375335L3.64774 6.08962L4.42861 6.71432L5.20948 7.33901L9.78091 1.62473L9.00004 1.00003ZM9.00017 1.00003L8.2193 1.62473L12.7907 7.33901L13.5716 6.71432L14.3525 6.08962L9.78104 0.375335L9.00017 1.00003ZM8.99987 1.00003H7.99987V13.5715H8.99987H9.99987V1.00003H8.99987Z" fill="currentColor"></path>
  </symbol>
  <symbol fill="none" xmlns="http://www.w3.org/2000/svg" viewBox="0 0 24 24" id="ic_whatsapp">
    <path fill-rule="evenodd" clip-rule="evenodd" d="M12 24C9.95951 24 7.95101 23.4722 6.16146 22.4706L1.33867 23.897C0.985754 24 0.60085 23.902 0.342914 23.6352C0.0849788 23.3703 -0.003999 22.9834 0.111972 22.6326L1.62859 18.0185C0.56086 16.1853 0 14.1151 0 12C0 5.38376 5.38265 0 12 0C18.6163 0 24 5.38376 24 12C24 18.6162 18.6163 24 12 24ZM12 1.99017C6.47938 1.99017 1.9895 6.4803 1.9895 12C1.9895 13.8942 2.53037 15.7484 3.55511 17.3598C3.71607 17.6097 3.75506 17.9205 3.66108 18.2034L2.59335 21.4511L6.0095 20.4415C6.10147 20.4145 6.19745 20.4005 6.29143 20.4005C6.47238 20.4005 6.65134 20.4505 6.8093 20.5464C8.3809 21.504 10.1765 22.0098 12 22.0098C17.5196 22.0098 22.0105 17.5197 22.0105 12C22.0105 6.4803 17.5196 1.99017 12 1.99017ZM15.878 16.9459C15.3862 16.9889 15.3862 17.3378 12.6628 16.2922C9.93951 15.2436 8.22094 12.5158 8.08698 12.3419C7.95201 12.1669 6.99225 10.9234 6.99225 9.63499C6.99225 8.34952 7.68408 7.71579 7.93002 7.45589C8.17496 7.193 8.46588 7.12803 8.64384 7.12803C8.82179 7.12803 9.00075 7.14902 9.15771 7.14902C9.31467 7.14902 9.53761 7.06206 9.76056 7.58484C9.9845 8.10962 10.5194 9.39709 10.5864 9.52803C10.6533 9.65898 10.6983 9.80991 10.6083 9.98584C10.5194 10.1598 10.4744 10.2697 10.3414 10.4217C10.2074 10.5746 10.0585 10.7615 9.93951 10.8815C9.80555 11.0104 9.66558 11.1514 9.82154 11.4142C9.9785 11.6761 10.5154 12.5318 11.3122 13.2265C12.3349 14.1171 13.1987 14.393 13.4666 14.5239C13.7346 14.6549 13.8905 14.6339 14.0455 14.457C14.2024 14.283 14.7173 13.6953 14.8953 13.4334C15.0732 13.1705 15.2512 13.2155 15.4981 13.3025C15.7431 13.3894 17.0607 14.0222 17.3287 14.1531C17.5966 14.283 17.7746 14.349 17.8415 14.457C17.9075 14.5669 17.9075 15.0917 17.6856 15.7025C17.4616 16.3132 16.3679 16.903 15.878 16.9459Z" fill="currentColor"></path>
  </symbol>
</svg>