<svg width="24" height="24" viewBox="0 0 24 24" fill="none" xmlns="http://www.w3.org/2000/svg">
<g clip-path="url(#clip0_55_561)">
<path d="M12 23.9755C18.6139 23.9755 23.9755 18.6139 23.9755 12C23.9755 5.38606 18.6139 0.0244141 12 0.0244141C5.38606 0.0244141 0.0244141 5.38606 0.0244141 12C0.0244141 18.6139 5.38606 23.9755 12 23.9755Z" fill="#FC3F1D"/>
<path d="M15.4286 17.6057H13.3997V7.57098H12.4959C10.8392 7.57098 9.97136 8.39935 9.97136 9.6359C9.97136 11.0388 10.5699 11.6888 11.8082 12.5172L12.8286 13.2049L9.8959 17.604H7.71436L10.3538 13.6765C8.836 12.5926 7.9819 11.5345 7.9819 9.74909C7.9819 7.51782 9.53745 6 12.4822 6H15.4149V17.6023H15.4286V17.6057Z" fill="white"/>
</g>
<defs>
<clipPath id="clip0_55_561">
<rect width="24" height="24" fill="white"/>
</clipPath>
</defs>
</svg>
